{
.appVersion = "1330";
DisplayStrings = (
"narrower:/space \012/I.ss01/i.ss01 Llj/t.ss01/space (space)\012\012wider:\012ÆæMm/OE/oe Ww@&\012\012alternates:/space \012/AE.ss01/I.ss01/OE.ss01/a.ss01/ae.ss01/g.ss01/i.ss01/l.ss01/oe.ss01/r.ss01/t.ss01/ae.ss01.sc/i.ss01.sc/oe.ss01.sc/zero.ss01",
"amazingly/space few/space discotheques/space provide/space jukeboxes\012\012AMAZINGLY/space FEW/space DISCOTHEQUES/space PROVIDE/space JUKEBOXES\012\012giant/space werewolves/space quickly/space ravaged/space the/space famous/space Phoenix/space biz/space joint\012\012GIANT/space WEREWOLVES/space QUICKLY/space RAVAGED/space THE/space FAMOUS/space PHOENIX/space BIZ/space JOINT\012\012we/quoteright ve/space just/space experienced/space the/space amazingly/space quiet/space book/space fair\012\012WE'VE/space JUST/space EXPERIENCED/space THE/space AMAZINGLY/space QUIET/space BOOK/space FAIR",
"six/space whiz/space kids/space eject/space pineapples/space from/space every/space big/space quadrant\012\012SIX/space WHIZ/space KIDS/space EJECT/space PINEAPPLES/space FROM/space EVERY/space BIG/space QUADRANT\012",
"Small/space Caps\012ABCDEFGHIJKLMNOPQRSTUVWXYZ\012abcdefghijklmnopqrstuvwxyz\012AaBbCcDdEeFfGgHhIiJjKkLlMmNnOoPpQqRrSsTtUuVvWwXxYyZz\012",
"ABCDEFGHIJKLMNOPQRSTUVWXYZ\012abcdefghijklmnopqrstuvwxyz",
questions,
obligatory,
"/upArrow/northEastArrow/rightArrow/southEastArrow/downArrow/southWestArrow/leftArrow/northWestArrow/leftRightArrow/upDownArrow"
);
classes = (
{
automatic = 1;

glyphs = (
{
glyphname = A;
lastChange = "2020-04-13 16:18:06 +0000";
layers = (
{
anchors = (
{
name = bottom;
position = "{642, 0}";
},
{
name = ogonek;
position = "{998, 0}";
},
{
name = top;
position = "{642, 1400}";
}
);
layerId = "5521DC30-183F-421A-91F3-644B5E24AFE6";
paths = (
{
closed = 1;
nodes = (
"992 1400 LINE",
"292 1400 LINE",
"58 0 LINE",
"436 0 LINE",
"475 282 LINE",
"809 282 LINE",
"848 0 LINE",
"1226 0 LINE"
);
},
{
closed = 1;
nodes = (
"692 1130 LINE",
"772 552 LINE",
"512 552 LINE",
"592 1130 LINE"
);
}
);
width = 1300;
},
{
anchors = (
{
name = bottom;
position = "{652, 0}";
},
{
name = ogonek;
position = "{1091, 0}";
},
{
name = top;
position = "{652, 1400}";
}
);
layerId = "BE68D89F-AB3F-4BDF-B332-ED50D7C47704";
paths = (
{
closed = 1;
nodes = (
"776 1400 LINE",
"528 1400 LINE",
"176 0 LINE",
"246 0 LINE",
"350 408 LINE",
"954 408 LINE",
"1058 0 LINE",
"1128 0 LINE"
);
},
{
closed = 1;
nodes = (
"718 1336 LINE",
"938 472 LINE",
"366 472 LINE",
"586 1336 LINE"
);
}
);
width = 1300;
},
{
anchors = (
{
name = bottom;
position = "{450, 0}";
},
{
name = ogonek;
position = "{693, 0}";
},
{
name = top;
position = "{450, 1400}";
}
);
layerId = "2E286313-D5BF-4FB4-A4B7-BD9BC13B574E";
paths = (
{
closed = 1;
nodes = (
"528 1400 LINE",
"372 1400 LINE",
"166 0 LINE",
"234 0 LINE",
"283 336 LINE",
"617 336 LINE",
"666 0 LINE",
"734 0 LINE"
);
},
{
closed = 1;
nodes = (
"472 1336 LINE",
"608 400 LINE",
"292 400 LINE",
"428 1336 LINE"
);
}
);
width = 900;
},
{
anchors = (
{
name = bottom;
position = "{1070, 0}";
},
{
name = ogonek;
position = "{1834, 0}";
},
{
name = top;
position = "{1070, 1400}";
}
);
layerId = "E338D14E-1DA5-418D-88BC-8956EEA80AB9";
paths = (
{
closed = 1;
nodes = (
"1198 1400 LINE",
"942 1400 LINE",
"248 0 LINE",
"334 0 LINE",
"557 448 LINE",
"1583 448 LINE",
"1806 0 LINE",
"1894 0 LINE"
);
},
{
closed = 1;
nodes = (
"1142 1336 LINE",
"1552 512 LINE",
"588 512 LINE",
"998 1336 LINE"
);
}
);
width = 2200;
},
{
anchors = (
{
name = bottom;
position = "{452, 0}";
},
{
name = ogonek;
position = "{642, 0}";
},
{
name = top;
position = "{452, 1400}";
}
);
layerId = "5D8A6BC1-E275-4777-AF98-AB9B3DC0EDC1";
paths = (
{
closed = 1;
nodes = (
"760 1400 LINE",
"140 1400 LINE",
"22 0 LINE",
"396 0 LINE",
"405 240 LINE",
"495 240 LINE",
"504 0 LINE",
"878 0 LINE"
);
},
{
closed = 1;
nodes = (
"462 1130 LINE",
"485 508 LINE",
"415 508 LINE",
"438 1130 LINE"
);
}
);
width = 900;
},
{
anchors = (
{
name = bottom;
position = "{1026, 0}";
},
{
name = ogonek;
position = "{1656, 0}";
},
{
name = top;
position = "{1026, 1400}";
}
);
layerId = "16EBFD8D-F4C1-4BAA-8DD7-EBE82D779ED1";
paths = (
{
closed = 1;
nodes = (
"1396 1400 LINE",
"656 1400 LINE",
"130 0 LINE",
"526 0 LINE",
"645 316 LINE",
"1407 316 LINE",
"1526 0 LINE",
"1922 0 LINE"
);
},
{
closed = 1;
nodes = (
"1122 1110 LINE",
"1306 600 LINE",
"746 600 LINE",
"930 1110 LINE"
);
}
);
width = 2100;
}
);
leftKerningGroup = A;
rightKerningGroup = A;
unicode = 0041;
},
{
glyphname = AE;
lastChange = "2020-04-13 15:54:57 +0000";
layers = (
{
anchors = (
{
name = bottom;
position = "{900, 0}";
},
{
name = top;
position = "{900, 1400}";
}
);
layerId = "5521DC30-183F-421A-91F3-644B5E24AFE6";
paths = (
{
closed = 1;
nodes = (
"1636 0 LINE",
"1636 270 LINE",
"1238 270 LINE",
"1238 554 LINE",
"1584 554 LINE",
"1584 822 LINE",
"1238 822 LINE",
"1238 1130 LINE",
"1636 1130 LINE",
"1636 1400 LINE",
"678 1400 LINE",
"644 1130 LINE",
"864 1130 LINE",
"864 0 LINE"
);
},
{
closed = 1;
nodes = (
"956 162 LINE",
"996 412 LINE",
"534 412 LINE",
"500 162 LINE"
);
},
{
closed = 1;
nodes = (
"484 0 LINE",
"944 1400 LINE",
"592 1400 LINE",
"80 0 LINE"
);
}
);
width = 1800;
},
{
anchors = (
{
name = bottom;
position = "{900, 0}";
},
{
name = top;
position = "{900, 1400}";
}
);
layerId = "BE68D89F-AB3F-4BDF-B332-ED50D7C47704";
paths = (
{
closed = 1;
nodes = (
"1466 0 LINE",
"1466 64 LINE",
"904 64 LINE",
"904 656 LINE",
"1398 656 LINE",
"1398 720 LINE",
"904 720 LINE",
"904 1336 LINE",
"1466 1336 LINE",
"1466 1400 LINE",
"738 1400 LINE",
"704 1336 LINE",
"838 1336 LINE",
"838 0 LINE"
);
},
{
closed = 1;
nodes = (
"858 388 LINE",
"866 452 LINE",
"404 452 LINE",
"370 388 LINE"
);
},
{
closed = 1;
nodes = (
"256 0 LINE",
"764 1400 LINE",
"694 1400 LINE",
"186 0 LINE"
);
}
);
width = 1800;
},
{
anchors = (
{
name = bottom;
position = "{700, 0}";
},
{
name = top;
position = "{700, 1400}";
}
);
layerId = "2E286313-D5BF-4FB4-A4B7-BD9BC13B574E";
paths = (
{
closed = 1;
nodes = (
"1122 0 LINE",
"1122 64 LINE",
"814 64 LINE",
"814 656 LINE",
"1102 656 LINE",
"1102 720 LINE",
"814 720 LINE",
"814 1336 LINE",
"1122 1336 LINE",
"1122 1400 LINE",
"616 1400 LINE",
"592 1336 LINE",
"744 1336 LINE",
"744 0 LINE"
);
},
{
closed = 1;
nodes = (
"784 348 LINE",
"792 412 LINE",
"394 412 LINE",
"368 348 LINE"
);
},
{
closed = 1;
nodes = (
"330 0 LINE",
"652 1400 LINE",
"578 1400 LINE",
"258 0 LINE"
);
}
);
width = 1400;
},
{
anchors = (
{
name = bottom;
position = "{1300, 0}";
},
{
name = top;
position = "{1300, 1400}";
}
);
layerId = "E338D14E-1DA5-418D-88BC-8956EEA80AB9";
paths = (
{
closed = 1;
nodes = (
"2388 0 LINE",
"2388 64 LINE",
"1454 64 LINE",
"1454 656 LINE",
"2348 656 LINE",
"2348 720 LINE",
"1454 720 LINE",
"1454 1336 LINE",
"2388 1336 LINE",
"2388 1400 LINE",
"1074 1400 LINE",
"1016 1336 LINE",
"1384 1336 LINE",
"1384 0 LINE"
);
},
{
closed = 1;
nodes = (
"1406 410 LINE",
"1420 474 LINE",
"502 474 LINE",
"454 410 LINE"
);
},
{
closed = 1;
nodes = (
"206 0 LINE",
"1116 1400 LINE",
"1032 1400 LINE",
"124 0 LINE"
);
}
);
width = 2600;
},
{
anchors = (
{
name = bottom;
position = "{700, 0}";
},
{
name = top;
position = "{700, 1400}";
}
);
layerId = "5D8A6BC1-E275-4777-AF98-AB9B3DC0EDC1";
paths = (
{
closed = 1;
nodes = (
"1286 0 LINE",
"1286 270 LINE",
"1094 270 LINE",
"1094 554 LINE",
"1296 554 LINE",
"1296 822 LINE",
"1094 822 LINE",
"1094 1130 LINE",
"1286 1130 LINE",
"1286 1400 LINE",
"612 1400 LINE",
"590 1130 LINE",
"718 1130 LINE",
"718 0 LINE"
);
},
{
closed = 1;
nodes = (
"796 276 LINE",
"796 526 LINE",
"454 526 LINE",
"424 276 LINE"
);
},
{
closed = 1;
nodes = (
"466 0 LINE",
"718 1400 LINE",
"368 1400 LINE",
"84 0 LINE"
);
}
);
width = 1400;
},
{
anchors = (
{
name = bottom;
position = "{1330, 0}";
},
{
name = top;
position = "{1330, 1400}";
}
);
layerId = "16EBFD8D-F4C1-4BAA-8DD7-EBE82D779ED1";
paths = (
{
closed = 1;
nodes = (
"2506 0 LINE",
"2506 270 LINE",
"1696 270 LINE",
"1696 554 LINE",
"2330 554 LINE",
"2330 822 LINE",
"1696 822 LINE",
"1696 1130 LINE",
"2506 1130 LINE",
"2506 1400 LINE",
"1010 1400 LINE",
"922 1130 LINE",
"1326 1130 LINE",
"1326 0 LINE"
);
},
{
closed = 1;
nodes = (
"1404 244 LINE",
"1524 494 LINE",
"624 494 LINE",
"582 244 LINE"
);
},
{
closed = 1;
nodes = (
"500 0 LINE",
"1376 1400 LINE",
"990 1400 LINE",
"72 0 LINE"
);
}
);
width = 2600;
}
);
leftKerningGroup = A;
rightKerningGroup = E;
unicode = 00C6;
},
{
color = 4;
glyphname = AE.ss01;
lastChange = "2020-04-13 20:18:14 +0000";
layers = (
{
layerId = "5521DC30-183F-421A-91F3-644B5E24AFE6";
paths = (
{
closed = 1;
nodes = (
"1246 0 LINE",
"1246 270 LINE",
"970 270 LINE",
"970 554 LINE",
"1194 554 LINE",
"1194 822 LINE",
"970 822 LINE",
"970 1130 LINE",
"1246 1130 LINE",
"1246 1400 LINE",
"470 1400 LINE",
"436 1130 LINE",
"594 1130 LINE",
"594 0 LINE"
);
},
{
closed = 1;
nodes = (
"686 162 LINE",
"728 412 LINE",
"404 412 LINE",
"370 162 LINE"
);
},
{
closed = 1;
nodes = (
"356 0 LINE",
"674 1400 LINE",
"344 1400 LINE",
"-28 0 LINE"
);
}
);
width = 1300;
},
{
layerId = "BE68D89F-AB3F-4BDF-B332-ED50D7C47704";
paths = (
{
closed = 1;
nodes = (
"1162 0 LINE",
"1162 64 LINE",
"700 64 LINE",
"700 656 LINE",
"1054 656 LINE",
"1054 720 LINE",
"700 720 LINE",
"700 1336 LINE",
"1162 1336 LINE",
"1162 1400 LINE",
"534 1400 LINE",
"500 1336 LINE",
"634 1336 LINE",
"634 0 LINE"
);
},
{
closed = 1;
nodes = (
"654 388 LINE",
"662 452 LINE",
"304 452 LINE",
"270 388 LINE"
);
},
{
closed = 1;
nodes = (
"172 0 LINE",
"560 1400 LINE",
"490 1400 LINE",
"102 0 LINE"
);
}
);
width = 1300;
},
{
layerId = "2E286313-D5BF-4FB4-A4B7-BD9BC13B574E";
paths = (
{
closed = 1;
nodes = (
"862 0 LINE",
"862 64 LINE",
"594 64 LINE",
"594 656 LINE",
"842 656 LINE",
"842 720 LINE",
"594 720 LINE",
"594 1336 LINE",
"862 1336 LINE",
"862 1400 LINE",
"356 1400 LINE",
"332 1336 LINE",
"524 1336 LINE",
"524 0 LINE"
);
},
{
closed = 1;
nodes = (
"564 348 LINE",
"572 412 LINE",
"174 412 LINE",
"140 348 LINE"
);
},
{
closed = 1;
nodes = (
"110 0 LINE",
"392 1400 LINE",
"318 1400 LINE",
"38 0 LINE"
);
}
);
width = 900;
},
{
layerId = "E338D14E-1DA5-418D-88BC-8956EEA80AB9";
paths = (
{
closed = 1;
nodes = (
"2098 0 LINE",
"2098 64 LINE",
"1214 64 LINE",
"1214 656 LINE",
"1970 656 LINE",
"1970 720 LINE",
"1214 720 LINE",
"1214 1336 LINE",
"2098 1336 LINE",
"2098 1400 LINE",
"934 1400 LINE",
"876 1336 LINE",
"1144 1336 LINE",
"1144 0 LINE"
);
},
{
closed = 1;
nodes = (
"1174 488 LINE",
"1188 552 LINE",
"470 552 LINE",
"422 488 LINE"
);
},
{
closed = 1;
nodes = (
"226 0 LINE",
"976 1400 LINE",
"892 1400 LINE",
"144 0 LINE"
);
}
);
width = 2200;
},
{
layerId = "5D8A6BC1-E275-4777-AF98-AB9B3DC0EDC1";
paths = (
{
closed = 1;
nodes = (
"896 0 LINE",
"896 270 LINE",
"804 270 LINE",
"804 554 LINE",
"906 554 LINE",
"906 822 LINE",
"804 822 LINE",
"804 1130 LINE",
"896 1130 LINE",
"896 1400 LINE",
"302 1400 LINE",
"280 1130 LINE",
"428 1130 LINE",
"428 0 LINE"
);
},
{
closed = 1;
nodes = (
"526 116 LINE",
"566 346 LINE",
"324 346 LINE",
"294 116 LINE"
);
},
{
closed = 1;
nodes = (
"336 0 LINE",
"468 1400 LINE",
"158 1400 LINE",
"-46 0 LINE"
);
}
);
width = 900;
},
{
layerId = "16EBFD8D-F4C1-4BAA-8DD7-EBE82D779ED1";
paths = (
{
closed = 1;
nodes = (
"1946 0 LINE",
"1946 270 LINE",
"1302 270 LINE",
"1302 554 LINE",
"1770 554 LINE",
"1770 822 LINE",
"1302 822 LINE",
"1302 1130 LINE",
"1946 1130 LINE",
"1946 1400 LINE",
"806 1400 LINE",
"748 1130 LINE",
"926 1130 LINE",
"926 0 LINE"
);
},
{
closed = 1;
nodes = (
"1006 254 LINE",
"1052 544 LINE",
"564 544 LINE",
"522 254 LINE"
);
},
{
closed = 1;
nodes = (
"396 0 LINE",
"1086 1400 LINE",
"716 1400 LINE",
"8 0 LINE"
);
}
);
width = 2200;
}
);
leftKerningGroup = A;
rightKerningGroup = E;
},
{
glyphname = B;
lastChange = "2020-04-14 01:37:39 +0000";
layers = (
{
anchors = (
{
name = bottom;
position = "{600, 0}";
},
{
name = top;
position = "{600, 1400}";
}
);
layerId = "5521DC30-183F-421A-91F3-644B5E24AFE6";
paths = (
{
closed = 1;
nodes = (
"806 0 LINE SMOOTH",
"1044 0 OFFCURVE",
"1224 132 OFFCURVE",
"1224 400 CURVE SMOOTH",
"1224 632 OFFCURVE",
"1061 733 OFFCURVE",
"938 744 CURVE",
"1039 753 OFFCURVE",
"1174 845 OFFCURVE",
"1174 1058 CURVE SMOOTH",
"1174 1380 OFFCURVE",
"842 1400 OFFCURVE",
"674 1400 CURVE SMOOTH",
"144 1400 LINE",
"144 0 LINE"
);
},
{
closed = 1;
nodes = (
"518 588 LINE",
"662 588 LINE SMOOTH",
"776 588 OFFCURVE",
"848 570 OFFCURVE",
"848 428 CURVE SMOOTH",
"848 302 OFFCURVE",
"786 270 OFFCURVE",
"674 270 CURVE SMOOTH",
"518 270 LINE"
);
},
{
closed = 1;
nodes = (
"518 1130 LINE",
"622 1130 LINE SMOOTH",
"748 1130 OFFCURVE",
"812 1098 OFFCURVE",
"812 998 CURVE SMOOTH",
"812 888 OFFCURVE",
"742 856 OFFCURVE",
"622 856 CURVE SMOOTH",
"518 856 LINE"
);
}
);
width = 1300;
},
{
anchors = (
{
name = bottom;
position = "{600, 0}";
},
{
name = top;
position = "{600, 1400}";
}
);
layerId = "BE68D89F-AB3F-4BDF-B332-ED50D7C47704";
paths = (
{
closed = 1;
nodes = (
"730 0 LINE SMOOTH",
"968 0 OFFCURVE",
"1078 141 OFFCURVE",
"1078 390 CURVE SMOOTH",
"1078 622 OFFCURVE",
"954 718 OFFCURVE",
"868 738 CURVE",
"924 761 OFFCURVE",
"1028 864 OFFCURVE",
"1028 1058 CURVE SMOOTH",
"1028 1380 OFFCURVE",
"816 1400 OFFCURVE",
"648 1400 CURVE SMOOTH",
"280 1400 LINE",
"280 0 LINE"
);
},
{
closed = 1;
nodes = (
"346 690 LINE",
"776 690 LINE SMOOTH",
"890 690 OFFCURVE",
"1010 603 OFFCURVE",
"1010 390 CURVE SMOOTH",
"1010 165 OFFCURVE",
"906 64 OFFCURVE",
"736 64 CURVE SMOOTH",
"346 64 LINE"
);
},
{
closed = 1;
nodes = (
"346 1336 LINE",
"700 1336 LINE SMOOTH",
"816 1336 OFFCURVE",
"956 1286 OFFCURVE",
"956 1058 CURVE SMOOTH",
"956 870 OFFCURVE",
"856 754 OFFCURVE",
"736 754 CURVE SMOOTH",
"346 754 LINE"
);
}
);
width = 1300;
},
{
anchors = (
{
name = bottom;
position = "{388, 0}";
},
{
name = top;
position = "{388, 1400}";
}
);
layerId = "2E286313-D5BF-4FB4-A4B7-BD9BC13B574E";
paths = (
{
closed = 1;
nodes = (
"478 0 LINE SMOOTH",
"676 0 OFFCURVE",
"736 132 OFFCURVE",
"736 400 CURVE SMOOTH",
"736 613 OFFCURVE",
"643 718 OFFCURVE",
"572 738 CURVE",
"589 744 OFFCURVE",
"722 798 OFFCURVE",
"722 1058 CURVE SMOOTH",
"722 1340 OFFCURVE",
"620 1400 OFFCURVE",
"472 1400 CURVE SMOOTH",
"218 1400 LINE",
"218 0 LINE"
);
},
{
closed = 1;
nodes = (
"284 690 LINE",
"484 690 LINE SMOOTH",
"598 690 OFFCURVE",
"668 594 OFFCURVE",
"668 400 CURVE SMOOTH",
"668 156 OFFCURVE",
"614 64 OFFCURVE",
"484 64 CURVE SMOOTH",
"284 64 LINE"
);
},
{
closed = 1;
nodes = (
"284 1336 LINE",
"484 1336 LINE SMOOTH",
"580 1336 OFFCURVE",
"650 1286 OFFCURVE",
"650 1058 CURVE SMOOTH",
"650 870 OFFCURVE",
"564 754 OFFCURVE",
"444 754 CURVE SMOOTH",
"284 754 LINE"
);
}
);
width = 900;
},
{
anchors = (
{
name = bottom;
position = "{1030, 0}";
},
{
name = top;
position = "{1030, 1400}";
}
);
layerId = "E338D14E-1DA5-418D-88BC-8956EEA80AB9";
paths = (
{
closed = 1;
nodes = (
"1308 0 LINE SMOOTH",
"1724 0 OFFCURVE",
"1862 150 OFFCURVE",
"1862 400 CURVE SMOOTH",
"1862 619 OFFCURVE",
"1674 722 OFFCURVE",
"1532 738 CURVE",
"1626 770 OFFCURVE",
"1750 878 OFFCURVE",
"1750 1058 CURVE SMOOTH",
"1750 1360 OFFCURVE",
"1458 1400 OFFCURVE",
"1164 1400 CURVE SMOOTH",
"460 1400 LINE",
"460 0 LINE"
);
},
{
closed = 1;
nodes = (
"536 690 LINE",
"1388 690 LINE SMOOTH",
"1588 690 OFFCURVE",
"1784 614 OFFCURVE",
"1784 400 CURVE SMOOTH",
"1784 156 OFFCURVE",
"1616 64 OFFCURVE",
"1318 64 CURVE SMOOTH",
"536 64 LINE"
);
},
{
closed = 1;
nodes = (
"536 1336 LINE",
"1256 1336 LINE SMOOTH",
"1458 1336 OFFCURVE",
"1672 1286 OFFCURVE",
"1672 1058 CURVE SMOOTH",
"1672 870 OFFCURVE",
"1528 754 OFFCURVE",
"1318 754 CURVE SMOOTH",
"536 754 LINE"
);
}
);
width = 2200;
},
{
anchors = (
{
name = bottom;
position = "{349, 0}";
},
{
name = top;
position = "{349, 1400}";
}
);
layerId = "5D8A6BC1-E275-4777-AF98-AB9B3DC0EDC1";
paths = (
{
closed = 1;
nodes = (
"526 0 LINE SMOOTH",
"700 0 OFFCURVE",
"840 128 OFFCURVE",
"840 400 CURVE SMOOTH",
"840 633 OFFCURVE",
"709 731 OFFCURVE",
"616 743 CURVE",
"701 750 OFFCURVE",
"826 836 OFFCURVE",
"826 1058 CURVE SMOOTH",
"826 1365 OFFCURVE",
"578 1400 OFFCURVE",
"452 1400 CURVE SMOOTH",
"81 1400 LINE",
"81 0 LINE"
);
},
{
closed = 1;
nodes = (
"419 589 LINE",
"448 589 LINE SMOOTH",
"477 589 OFFCURVE",
"510 566 OFFCURVE",
"510 425 CURVE SMOOTH",
"510 306 OFFCURVE",
"478 267 OFFCURVE",
"449 267 CURVE SMOOTH",
"419 267 LINE"
);
},
{
closed = 1;
nodes = (
"419 1133 LINE",
"446 1133 LINE SMOOTH",
"474 1133 OFFCURVE",
"508 1094 OFFCURVE",
"508 1000 CURVE SMOOTH",
"508 891 OFFCURVE",
"476 855 OFFCURVE",
"442 855 CURVE SMOOTH",
"419 855 LINE"
);
}
);
width = 900;
},
{
anchors = (
{
name = bottom;
position = "{1121, 0}";
},
{
name = top;
position = "{1121, 1400}";
}
);
layerId = "16EBFD8D-F4C1-4BAA-8DD7-EBE82D779ED1";
paths = (
{
closed = 1;
nodes = (
"1359 0 LINE SMOOTH",
"1723 0 OFFCURVE",
"1975 149 OFFCURVE",
"1975 410 CURVE SMOOTH",
"1975 647 OFFCURVE",
"1757 735 OFFCURVE",
"1585 744 CURVE",
"1700 754 OFFCURVE",
"1852 841 OFFCURVE",
"1852 1048 CURVE SMOOTH",
"1852 1390 OFFCURVE",
"1379 1400 OFFCURVE",
"1171 1400 CURVE SMOOTH",
"286 1400 LINE",
"286 0 LINE"
);
},
{
closed = 1;
nodes = (
"698 577 LINE",
"1273 577 LINE SMOOTH",
"1380 577 OFFCURVE",
"1539 577 OFFCURVE",
"1539 431 CURVE SMOOTH",
"1539 318 OFFCURVE",
"1430 293 OFFCURVE",
"1319 293 CURVE SMOOTH",
"698 293 LINE"
);
},
{
closed = 1;
nodes = (
"698 1107 LINE",
"1159 1107 LINE SMOOTH",
"1312 1107 OFFCURVE",
"1427 1088 OFFCURVE",
"1427 991 CURVE SMOOTH",
"1427 877 OFFCURVE",
"1266 867 OFFCURVE",
"1152 867 CURVE SMOOTH",
"698 867 LINE"
);
}
);
width = 2200;
}
);
leftKerningGroup = H;
rightKerningGroup = B;
unicode = 0042;
},
{
glyphname = C;
lastChange = "2020-04-13 20:39:16 +0000";
layers = (
{
anchors = (
{
name = bottom;
position = "{716, 0}";
},
{
name = top;
position = "{716, 1400}";
}
);
layerId = "5521DC30-183F-421A-91F3-644B5E24AFE6";
paths = (
{
closed = 1;
nodes = (
"959 -22 OFFCURVE",
"1163 98 OFFCURVE",
"1251 342 CURVE",
"917 514 LINE",
"890 401 OFFCURVE",
"837 252 OFFCURVE",
"719 252 CURVE SMOOTH",
"593 252 OFFCURVE",
"499 352 OFFCURVE",
"499 696 CURVE SMOOTH",
"499 1038 OFFCURVE",
"593 1138 OFFCURVE",
"719 1138 CURVE SMOOTH",
"837 1138 OFFCURVE",
"890 989 OFFCURVE",
"917 876 CURVE",
"1251 1048 LINE",
"1163 1292 OFFCURVE",
"959 1412 OFFCURVE",
"719 1412 CURVE SMOOTH",
"435 1412 OFFCURVE",
"119 1282 OFFCURVE",
"119 696 CURVE SMOOTH",
"119 110 OFFCURVE",
"435 -22 OFFCURVE",
"719 -22 CURVE SMOOTH"
);
}
);
width = 1300;
},
{
anchors = (
{
name = bottom;
position = "{698, 0}";
},
{
name = top;
position = "{698, 1400}";
}
);
layerId = "BE68D89F-AB3F-4BDF-B332-ED50D7C47704";
paths = (
{
closed = 1;
nodes = (
"892 -22 OFFCURVE",
"1008 76 OFFCURVE",
"1070 198 CURVE",
"1006 232 LINE",
"950 126 OFFCURVE",
"858 44 OFFCURVE",
"690 44 CURVE SMOOTH",
"458 44 OFFCURVE",
"292 250 OFFCURVE",
"292 696 CURVE SMOOTH",
"292 1142 OFFCURVE",
"466 1346 OFFCURVE",
"698 1346 CURVE SMOOTH",
"868 1346 OFFCURVE",
"942 1260 OFFCURVE",
"1006 1138 CURVE",
"1070 1170 LINE",
"996 1308 OFFCURVE",
"892 1412 OFFCURVE",
"696 1412 CURVE SMOOTH",
"410 1412 OFFCURVE",
"220 1186 OFFCURVE",
"220 696 CURVE SMOOTH",
"220 206 OFFCURVE",
"402 -22 OFFCURVE",
"688 -22 CURVE SMOOTH"
);
}
);
width = 1300;
},
{
anchors = (
{
name = bottom;
position = "{502, 0}";
},
{
name = top;
position = "{502, 1400}";
}
);
layerId = "2E286313-D5BF-4FB4-A4B7-BD9BC13B574E";
paths = (
{
closed = 1;
nodes = (
"660 -22 OFFCURVE",
"719 138 OFFCURVE",
"754 238 CURVE",
"690 272 LINE",
"667 198 OFFCURVE",
"618 44 OFFCURVE",
"494 44 CURVE SMOOTH",
"322 44 OFFCURVE",
"256 270 OFFCURVE",
"256 696 CURVE SMOOTH",
"256 1122 OFFCURVE",
"330 1346 OFFCURVE",
"502 1346 CURVE SMOOTH",
"626 1346 OFFCURVE",
"672 1170 OFFCURVE",
"690 1098 CURVE",
"754 1130 LINE",
"719 1237 OFFCURVE",
"660 1412 OFFCURVE",
"500 1412 CURVE SMOOTH",
"274 1412 OFFCURVE",
"186 1166 OFFCURVE",
"186 696 CURVE SMOOTH",
"186 226 OFFCURVE",
"266 -22 OFFCURVE",
"492 -22 CURVE SMOOTH"
);
}
);
width = 900;
},
{
anchors = (
{
name = bottom;
position = "{1176, 0}";
},
{
name = top;
position = "{1176, 1400}";
}
);
layerId = "E338D14E-1DA5-418D-88BC-8956EEA80AB9";
paths = (
{
closed = 1;
nodes = (
"1514 -22 OFFCURVE",
"1706 64 OFFCURVE",
"1852 184 CURVE",
"1798 236 LINE",
"1680 130 OFFCURVE",
"1482 44 OFFCURVE",
"1176 44 CURVE SMOOTH",
"718 44 OFFCURVE",
"418 290 OFFCURVE",
"418 696 CURVE SMOOTH",
"418 1102 OFFCURVE",
"718 1346 OFFCURVE",
"1176 1346 CURVE SMOOTH",
"1482 1346 OFFCURVE",
"1680 1260 OFFCURVE",
"1798 1154 CURVE",
"1852 1206 LINE",
"1706 1326 OFFCURVE",
"1514 1412 OFFCURVE",
"1176 1412 CURVE SMOOTH",
"682 1412 OFFCURVE",
"340 1146 OFFCURVE",
"340 696 CURVE SMOOTH",
"340 246 OFFCURVE",
"682 -22 OFFCURVE",
"1176 -22 CURVE SMOOTH"
);
}
);
width = 2200;
},
{
anchors = (
{
name = bottom;
position = "{472, 0}";
},
{
name = top;
position = "{472, 1400}";
}
);
layerId = "5D8A6BC1-E275-4777-AF98-AB9B3DC0EDC1";
paths = (
{
closed = 1;
nodes = (
"703 -22 OFFCURVE",
"837 178 OFFCURVE",
"873 375 CURVE",
"561 492 LINE",
"558 446 OFFCURVE",
"540 249 OFFCURVE",
"487 249 CURVE SMOOTH",
"434 249 OFFCURVE",
"405 342 OFFCURVE",
"405 696 CURVE SMOOTH",
"405 1046 OFFCURVE",
"431 1141 OFFCURVE",
"485 1141 CURVE SMOOTH",
"537 1141 OFFCURVE",
"559 946 OFFCURVE",
"561 908 CURVE",
"861 1034 LINE",
"837 1204 OFFCURVE",
"703 1412 OFFCURVE",
"481 1412 CURVE SMOOTH",
"278 1412 OFFCURVE",
"62 1270 OFFCURVE",
"62 696 CURVE SMOOTH",
"62 121 OFFCURVE",
"280 -22 OFFCURVE",
"483 -22 CURVE SMOOTH"
);
}
);
width = 900;
},
{
anchors = (
{
name = bottom;
position = "{1196, 0}";
},
{
name = top;
position = "{1196, 1400}";
}
);
layerId = "16EBFD8D-F4C1-4BAA-8DD7-EBE82D779ED1";
paths = (
{
closed = 1;
nodes = (
"1602 -22 OFFCURVE",
"1887 85 OFFCURVE",
"1976 160 CURVE",
"1711 421 LINE",
"1650 362 OFFCURVE",
"1460 275 OFFCURVE",
"1182 275 CURVE SMOOTH",
"898 275 OFFCURVE",
"611 364 OFFCURVE",
"611 696 CURVE SMOOTH",
"611 1026 OFFCURVE",
"907 1115 OFFCURVE",
"1191 1115 CURVE SMOOTH",
"1467 1115 OFFCURVE",
"1653 1012 OFFCURVE",
"1711 938 CURVE",
"2008 1177 LINE",
"1905 1275 OFFCURVE",
"1604 1412 OFFCURVE",
"1200 1412 CURVE SMOOTH",
"776 1412 OFFCURVE",
"193 1293 OFFCURVE",
"193 696 CURVE SMOOTH",
"193 104 OFFCURVE",
"766 -22 OFFCURVE",
"1191 -22 CURVE SMOOTH"
);
}
);
width = 2200;
}
);
leftKerningGroup = O;
rightKerningGroup = O;
unicode = 0043;
},
{
glyphname = D;
lastChange = "2020-04-14 01:37:35 +0000";
layers = (
{
anchors = (
{
name = bottom;
position = "{600, 0}";
},
{
name = center;
position = "{314, 700}";
},
{
name = top;
position = "{600, 1400}";
}
);
layerId = "5521DC30-183F-421A-91F3-644B5E24AFE6";
paths = (
{
closed = 1;
nodes = (
"634 0 LINE SMOOTH",
"930 0 OFFCURVE",
"1236 80 OFFCURVE",
"1236 700 CURVE SMOOTH",
"1236 1320 OFFCURVE",
"930 1400 OFFCURVE",
"634 1400 CURVE SMOOTH",
"130 1400 LINE",
"130 0 LINE"
);
},
{
closed = 1;
nodes = (
"504 1130 LINE",
"594 1130 LINE SMOOTH",
"812 1130 OFFCURVE",
"852 1012 OFFCURVE",
"852 700 CURVE SMOOTH",
"852 388 OFFCURVE",
"812 270 OFFCURVE",
"594 270 CURVE SMOOTH",
"504 270 LINE"
);
}
);
width = 1300;
},
{
anchors = (
{
name = bottom;
position = "{600, 0}";
},
{
name = center;
position = "{332, 700}";
},
{
name = top;
position = "{600, 1400}";
}
);
layerId = "BE68D89F-AB3F-4BDF-B332-ED50D7C47704";
paths = (
{
closed = 1;
nodes = (
"630 0 LINE SMOOTH",
"900 0 OFFCURVE",
"1094 140 OFFCURVE",
"1094 700 CURVE SMOOTH",
"1094 1260 OFFCURVE",
"900 1400 OFFCURVE",
"630 1400 CURVE SMOOTH",
"266 1400 LINE",
"266 0 LINE"
);
},
{
closed = 1;
nodes = (
"332 1336 LINE",
"626 1336 LINE SMOOTH",
"870 1336 OFFCURVE",
"1026 1192 OFFCURVE",
"1026 700 CURVE SMOOTH",
"1026 208 OFFCURVE",
"870 64 OFFCURVE",
"626 64 CURVE SMOOTH",
"332 64 LINE"
);
}
);
width = 1300;
},
{
anchors = (
{
name = bottom;
position = "{440, 0}";
},
{
name = center;
position = "{242, 700}";
},
{
name = top;
position = "{490, 1400}";
}
);
layerId = "2E286313-D5BF-4FB4-A4B7-BD9BC13B574E";
paths = (
{
closed = 1;
nodes = (
"432 0 LINE SMOOTH",
"622 0 OFFCURVE",
"764 120 OFFCURVE",
"764 700 CURVE SMOOTH",
"764 1280 OFFCURVE",
"622 1400 OFFCURVE",
"432 1400 CURVE SMOOTH",
"256 1400 LINE",
"256 0 LINE"
);
},
{
closed = 1;
nodes = (
"322 1336 LINE",
"416 1336 LINE SMOOTH",
"588 1336 OFFCURVE",
"694 1192 OFFCURVE",
"694 700 CURVE SMOOTH",
"694 208 OFFCURVE",
"588 64 OFFCURVE",
"416 64 CURVE SMOOTH",
"322 64 LINE"
);
}
);
width = 900;
},
{
anchors = (
{
name = bottom;
position = "{1030, 0}";
},
{
name = center;
position = "{562, 700}";
},
{
name = top;
position = "{1030, 1400}";
}
);
layerId = "E338D14E-1DA5-418D-88BC-8956EEA80AB9";
paths = (
{
closed = 1;
nodes = (
"1070 0 LINE SMOOTH",
"1562 0 OFFCURVE",
"1864 180 OFFCURVE",
"1864 700 CURVE SMOOTH",
"1864 1220 OFFCURVE",
"1562 1400 OFFCURVE",
"1070 1400 CURVE SMOOTH",
"440 1400 LINE",
"440 0 LINE"
);
},
{
closed = 1;
nodes = (
"516 1336 LINE",
"1100 1336 LINE SMOOTH",
"1528 1336 OFFCURVE",
"1788 1172 OFFCURVE",
"1788 700 CURVE SMOOTH",
"1788 228 OFFCURVE",
"1528 64 OFFCURVE",
"1100 64 CURVE SMOOTH",
"516 64 LINE"
);
}
);
width = 2200;
},
{
anchors = (
{
name = bottom;
position = "{406, 0}";
},
{
name = center;
position = "{207, 700}";
},
{
name = top;
position = "{432, 1400}";
}
);
layerId = "5D8A6BC1-E275-4777-AF98-AB9B3DC0EDC1";
paths = (
{
closed = 1;
nodes = (
"455 0 LINE SMOOTH",
"609 0 OFFCURVE",
"871 28 OFFCURVE",
"871 700 CURVE SMOOTH",
"871 1372 OFFCURVE",
"609 1400 OFFCURVE",
"455 1400 CURVE SMOOTH",
"100 1400 LINE",
"100 0 LINE"
);
},
{
closed = 1;
nodes = (
"439 1133 LINE",
"461 1133 LINE SMOOTH",
"509 1133 OFFCURVE",
"531 1034 OFFCURVE",
"531 700 CURVE SMOOTH",
"531 369 OFFCURVE",
"506 267 OFFCURVE",
"461 267 CURVE SMOOTH",
"439 267 LINE"
);
}
);
width = 900;
},
{
anchors = (
{
name = bottom;
position = "{992, 0}";
},
{
name = center;
position = "{535, 700}";
},
{
name = top;
position = "{943, 1400}";
}
);
layerId = "16EBFD8D-F4C1-4BAA-8DD7-EBE82D779ED1";
paths = (
{
closed = 1;
nodes = (
"976 0 LINE SMOOTH",
"1367 0 OFFCURVE",
"1948 0 OFFCURVE",
"1948 700 CURVE SMOOTH",
"1948 1400 OFFCURVE",
"1367 1400 OFFCURVE",
"976 1400 CURVE SMOOTH",
"206 1400 LINE",
"206 0 LINE"
);
},
{
closed = 1;
nodes = (
"614 1107 LINE",
"1007 1107 LINE SMOOTH",
"1290 1107 OFFCURVE",
"1507 1056 OFFCURVE",
"1507 700 CURVE SMOOTH",
"1507 344 OFFCURVE",
"1299 293 OFFCURVE",
"1007 293 CURVE SMOOTH",
"614 293 LINE"
);
}
);
width = 2200;
}
);
leftKerningGroup = H;
rightKerningGroup = O;
unicode = 0044;
},
{
glyphname = Eth;
lastChange = "2020-04-14 01:04:27 +0000";
layers = (
{
anchors = (
{
name = _center;
position = "{314, 700}";
}
);
components = (
{
alignment = -1;
name = D;
}
);
layerId = "5521DC30-183F-421A-91F3-644B5E24AFE6";
paths = (
{
closed = 1;
nodes = (
"664 580 LINE",
"664 820 LINE",
"3 820 LINE",
"3 580 LINE"
);
}
);
width = 1300;
},
{
anchors = (
{
name = _center;
position = "{332, 700}";
}
);
components = (
{
alignment = -1;
name = D;
}
);
layerId = "BE68D89F-AB3F-4BDF-B332-ED50D7C47704";
paths = (
{
closed = 1;
nodes = (
"634 668 LINE",
"634 732 LINE",
"34 732 LINE",
"34 668 LINE"
);
}
);
width = 1300;
},
{
anchors = (
{
name = _center;
position = "{296, 700}";
}
);
components = (
{
alignment = -1;
name = D;
transform = "{1, 0, 0, 1, 9, 0}";
}
);
layerId = "2E286313-D5BF-4FB4-A4B7-BD9BC13B574E";
paths = (
{
closed = 1;
nodes = (
"512 668 LINE",
"512 732 LINE",
"165 732 LINE",
"165 668 LINE"
);
}
);
width = 900;
},
{
anchors = (
{
name = _center;
position = "{562, 700}";
}
);
components = (
{
alignment = -1;
name = D;
}
);
layerId = "E338D14E-1DA5-418D-88BC-8956EEA80AB9";
paths = (
{
closed = 1;
nodes = (
"1028 668 LINE",
"1028 732 LINE",
"96 732 LINE",
"96 668 LINE"
);
}
);
width = 2200;
},
{
anchors = (
{
name = _center;
position = "{246, 700}";
}
);
components = (
{
alignment = -1;
name = D;
transform = "{1, 0, 0, 1, 66, 0}";
}
);
layerId = "5D8A6BC1-E275-4777-AF98-AB9B3DC0EDC1";
paths = (
{
closed = 1;
nodes = (
"552 580 LINE",
"552 820 LINE",
"20 820 LINE",
"20 580 LINE"
);
}
);
width = 900;
},
{
anchors = (
{
name = _center;
position = "{616, 700}";
}
);
components = (
{
alignment = -1;
name = D;
transform = "{1, 0, 0, 1, 34, 0}";
}
);
layerId = "16EBFD8D-F4C1-4BAA-8DD7-EBE82D779ED1";
paths = (
{
closed = 1;
nodes = (
"1134 580 LINE",
"1134 820 LINE",
"98 820 LINE",
"98 580 LINE"
);
}
);
width = 2200;
}
);
leftKerningGroup = H;
rightKerningGroup = O;
unicode = 00D0;
},
{
glyphname = E;
lastChange = "2020-04-13 16:18:33 +0000";
layers = (
{
anchors = (
{
name = bottom;
position = "{680, 0}";
},
{
name = ogonek;
position = "{952, 0}";
},
{
name = top;
position = "{680, 1400}";
},
{
name = topleft;
position = "{80, 1400}";
}
);
layerId = "5521DC30-183F-421A-91F3-644B5E24AFE6";
paths = (
{
closed = 1;
nodes = (
"1150 0 LINE",
"1150 270 LINE",
"546 270 LINE",
"546 554 LINE",
"1082 554 LINE",
"1082 822 LINE",
"546 822 LINE",
"546 1130 LINE",
"1150 1130 LINE",
"1150 1400 LINE",
"172 1400 LINE",
"172 0 LINE"
);
}
);
width = 1300;
},
{
anchors = (
{
name = bottom;
position = "{700, 0}";
},
{
name = ogonek;
position = "{916, 0}";
},
{
name = top;
position = "{700, 1400}";
},
{
name = topleft;
position = "{100, 1400}";
}
);
layerId = "BE68D89F-AB3F-4BDF-B332-ED50D7C47704";
paths = (
{
closed = 1;
nodes = (
"1076 0 LINE",
"1076 64 LINE",
"344 64 LINE",
"344 656 LINE",
"988 656 LINE",
"988 720 LINE",
"344 720 LINE",
"344 1336 LINE",
"1076 1336 LINE",
"1076 1400 LINE",
"278 1400 LINE",
"278 0 LINE"
);
}
);
width = 1300;
},
{
anchors = (
{
name = bottom;
position = "{458, 0}";
},
{
name = ogonek;
position = "{606, 0}";
},
{
name = top;
position = "{478, 1400}";
},
{
name = topleft;
position = "{168, 1400}";
}
);
layerId = "2E286313-D5BF-4FB4-A4B7-BD9BC13B574E";
paths = (
{
closed = 1;
nodes = (
"706 0 LINE",
"706 64 LINE",
"282 64 LINE",
"282 656 LINE",
"676 656 LINE",
"676 720 LINE",
"282 720 LINE",
"282 1336 LINE",
"706 1336 LINE",
"706 1400 LINE",
"216 1400 LINE",
"216 0 LINE"
);
}
);
width = 900;
},
{
anchors = (
{
name = bottom;
position = "{1130, 0}";
},
{
name = ogonek;
position = "{1508, 0}";
},
{
name = top;
position = "{1130, 1400}";
},
{
name = topleft;
position = "{80, 1400}";
}
);
layerId = "E338D14E-1DA5-418D-88BC-8956EEA80AB9";
paths = (
{
closed = 1;
nodes = (
"1810 0 LINE",
"1810 64 LINE",
"460 64 LINE",
"460 656 LINE",
"1740 656 LINE",
"1740 720 LINE",
"460 720 LINE",
"460 1336 LINE",
"1810 1336 LINE",
"1810 1400 LINE",
"384 1400 LINE",
"384 0 LINE"
);
}
);
width = 2200;
},
{
anchors = (
{
name = bottom;
position = "{488, 0}";
},
{
name = ogonek;
position = "{716, 0}";
},
{
name = top;
position = "{496, 1400}";
},
{
name = topleft;
position = "{128, 1400}";
}
);
layerId = "5D8A6BC1-E275-4777-AF98-AB9B3DC0EDC1";
paths = (
{
closed = 1;
nodes = (
"778 0 LINE",
"778 270 LINE",
"492 270 LINE",
"492 554 LINE",
"744 554 LINE",
"744 822 LINE",
"492 822 LINE",
"492 1130 LINE",
"778 1130 LINE",
"778 1400 LINE",
"120 1400 LINE",
"120 0 LINE"
);
}
);
width = 900;
},
{
anchors = (
{
name = bottom;
position = "{1124, 0}";
},
{
name = ogonek;
position = "{1454, 0}";
},
{
name = top;
position = "{1108, 1400}";
},
{
name = topleft;
position = "{14, 1400}";
}
);
layerId = "16EBFD8D-F4C1-4BAA-8DD7-EBE82D779ED1";
paths = (
{
closed = 1;
nodes = (
"1924 0 LINE",
"1924 290 LINE",
"664 290 LINE",
"664 544 LINE",
"1788 544 LINE",
"1788 832 LINE",
"664 832 LINE",
"664 1110 LINE",
"1924 1110 LINE",
"1924 1400 LINE",
"256 1400 LINE",
"256 0 LINE"
);
}
);
width = 2200;
}
);
leftKerningGroup = H;
rightKerningGroup = E;
unicode = 0045;
},
{
glyphname = F;
lastChange = "2020-04-13 15:57:20 +0000";
layers = (
{
anchors = (
{
name = bottom;
position = "{638, 0}";
},
{
name = top;
position = "{638, 1400}";
}
);
layerId = "5521DC30-183F-421A-91F3-644B5E24AFE6";
paths = (
{
closed = 1;
nodes = (
"628 0 LINE",
"628 540 LINE",
"1098 540 LINE",
"1098 810 LINE",
"628 810 LINE",
"628 1130 LINE",
"1156 1130 LINE",
"1156 1400 LINE",
"254 1400 LINE",
"254 0 LINE"
);
}
);
width = 1300;
},
{
anchors = (
{
name = bottom;
position = "{640, 0}";
},
{
name = top;
position = "{640, 1400}";
}
);
layerId = "BE68D89F-AB3F-4BDF-B332-ED50D7C47704";
paths = (
{
closed = 1;
nodes = (
"388 0 LINE",
"388 656 LINE",
"1030 656 LINE",
"1030 720 LINE",
"388 720 LINE",
"388 1336 LINE",
"1090 1336 LINE",
"1090 1400 LINE",
"322 1400 LINE",
"322 0 LINE"
);
}
);
width = 1300;
},
{
anchors = (
{
name = bottom;
position = "{500, 0}";
},
{
name = top;
position = "{500, 1400}";
}
);
layerId = "2E286313-D5BF-4FB4-A4B7-BD9BC13B574E";
paths = (
{
closed = 1;
nodes = (
"368 0 LINE",
"368 656 LINE",
"740 656 LINE",
"740 720 LINE",
"368 720 LINE",
"368 1336 LINE",
"756 1336 LINE",
"756 1400 LINE",
"302 1400 LINE",
"302 0 LINE"
);
}
);
width = 900;
},
{
anchors = (
{
name = bottom;
position = "{1090, 0}";
},
{
name = top;
position = "{1090, 1400}";
}
);
layerId = "E338D14E-1DA5-418D-88BC-8956EEA80AB9";
paths = (
{
closed = 1;
nodes = (
"638 0 LINE",
"638 656 LINE",
"1878 656 LINE",
"1878 720 LINE",
"638 720 LINE",
"638 1336 LINE",
"1918 1336 LINE",
"1918 1400 LINE",
"562 1400 LINE",
"562 0 LINE"
);
}
);
width = 2200;
},
{
anchors = (
{
name = bottom;
position = "{435, 0}";
},
{
name = top;
position = "{435, 1400}";
}
);
layerId = "5D8A6BC1-E275-4777-AF98-AB9B3DC0EDC1";
paths = (
{
closed = 1;
nodes = (
"496 0 LINE",
"496 553 LINE",
"744 553 LINE",
"744 800 LINE",
"496 800 LINE",
"496 1153 LINE",
"764 1153 LINE",
"764 1400 LINE",
"157 1400 LINE",
"157 0 LINE"
);
}
);
width = 900;
},
{
anchors = (
{
name = bottom;
position = "{956, 0}";
},
{
name = top;
position = "{956, 1400}";
}
);
layerId = "16EBFD8D-F4C1-4BAA-8DD7-EBE82D779ED1";
paths = (
{
closed = 1;
nodes = (
"783 0 LINE",
"783 527 LINE",
"1695 527 LINE",
"1695 820 LINE",
"783 820 LINE",
"783 1107 LINE",
"1840 1107 LINE",
"1840 1400 LINE",
"375 1400 LINE",
"375 0 LINE"
);
}
);
width = 2200;
}
);
leftKerningGroup = H;
rightKerningGroup = F;
unicode = 0046;
},
{
glyphname = G;
lastChange = "2020-04-14 20:19:35 +0000";
layers = (
{
anchors = (
{
name = bottom;
position = "{650, 0}";
},
{
name = top;
position = "{650, 1400}";
}
);
layerId = "5521DC30-183F-421A-91F3-644B5E24AFE6";
paths = (
{
closed = 1;
nodes = (
"984 -22 OFFCURVE",
"1204 212 OFFCURVE",
"1204 608 CURVE SMOOTH",
"1204 816 LINE",
"668 816 LINE",
"668 540 LINE",
"852 540 LINE",
"852 383 OFFCURVE",
"796 252 OFFCURVE",
"666 252 CURVE SMOOTH",
"530 252 OFFCURVE",
"442 372 OFFCURVE",
"442 696 CURVE SMOOTH",
"442 1020 OFFCURVE",
"530 1138 OFFCURVE",
"650 1138 CURVE SMOOTH",
"752 1138 OFFCURVE",
"802 1020 OFFCURVE",
"828 916 CURVE",
"1170 1044 LINE",
"1086 1289 OFFCURVE",
"888 1412 OFFCURVE",
"658 1412 CURVE SMOOTH",
"322 1412 OFFCURVE",
"70 1230 OFFCURVE",
"70 696 CURVE SMOOTH",
"70 160 OFFCURVE",
"326 -22 OFFCURVE",
"662 -22 CURVE SMOOTH"
);
}
);
width = 1300;
},
{
anchors = (
{
name = bottom;
position = "{650, 0}";
},
{
name = top;
position = "{620, 1400}";
}
);
layerId = "BE68D89F-AB3F-4BDF-B332-ED50D7C47704";
paths = (
{
closed = 1;
nodes = (
"870 -22 OFFCURVE",
"1068 180 OFFCURVE",
"1068 656 CURVE SMOOTH",
"1068 720 LINE",
"652 720 LINE",
"652 656 LINE",
"1000 656 LINE",
"1000 240 OFFCURVE",
"844 44 OFFCURVE",
"644 44 CURVE SMOOTH",
"430 44 OFFCURVE",
"240 250 OFFCURVE",
"240 696 CURVE SMOOTH",
"240 1142 OFFCURVE",
"420 1346 OFFCURVE",
"644 1346 CURVE SMOOTH",
"816 1346 OFFCURVE",
"906 1250 OFFCURVE",
"964 1136 CURVE",
"1030 1174 LINE",
"968 1293 OFFCURVE",
"848 1412 OFFCURVE",
"644 1412 CURVE SMOOTH",
"400 1412 OFFCURVE",
"170 1220 OFFCURVE",
"170 696 CURVE SMOOTH",
"170 170 OFFCURVE",
"410 -22 OFFCURVE",
"644 -22 CURVE SMOOTH"
);
}
);
width = 1300;
},
{
anchors = (
{
name = bottom;
position = "{450, 0}";
},
{
name = top;
position = "{450, 1400}";
}
);
layerId = "2E286313-D5BF-4FB4-A4B7-BD9BC13B574E";
paths = (
{
closed = 1;
nodes = (
"660 -22 OFFCURVE",
"750 170 OFFCURVE",
"750 656 CURVE SMOOTH",
"750 720 LINE",
"474 720 LINE",
"474 656 LINE",
"682 656 LINE",
"682 180 OFFCURVE",
"610 44 OFFCURVE",
"460 44 CURVE SMOOTH",
"286 44 OFFCURVE",
"220 250 OFFCURVE",
"220 696 CURVE SMOOTH",
"220 1142 OFFCURVE",
"304 1346 OFFCURVE",
"458 1346 CURVE SMOOTH",
"598 1346 OFFCURVE",
"642 1175 OFFCURVE",
"656 1106 CURVE",
"715 1144 LINE",
"695 1233 OFFCURVE",
"626 1412 OFFCURVE",
"458 1412 CURVE SMOOTH",
"276 1412 OFFCURVE",
"152 1220 OFFCURVE",
"152 696 CURVE SMOOTH",
"152 170 OFFCURVE",
"264 -22 OFFCURVE",
"460 -22 CURVE SMOOTH"
);
}
);
width = 900;
},
{
anchors = (
{
name = bottom;
position = "{1100, 0}";
},
{
name = top;
position = "{1100, 1400}";
}
);
layerId = "E338D14E-1DA5-418D-88BC-8956EEA80AB9";
paths = (
{
closed = 1;
nodes = (
"1448 -22 OFFCURVE",
"1854 130 OFFCURVE",
"1854 656 CURVE SMOOTH",
"1854 720 LINE",
"1082 720 LINE",
"1082 656 LINE",
"1782 656 LINE",
"1782 180 OFFCURVE",
"1442 42 OFFCURVE",
"1110 42 CURVE SMOOTH",
"700 42 OFFCURVE",
"376 236 OFFCURVE",
"376 696 CURVE SMOOTH",
"376 1142 OFFCURVE",
"700 1348 OFFCURVE",
"1128 1348 CURVE SMOOTH",
"1426 1348 OFFCURVE",
"1642 1242 OFFCURVE",
"1740 1138 CURVE",
"1796 1186 LINE",
"1696 1294 OFFCURVE",
"1478 1412 OFFCURVE",
"1128 1412 CURVE SMOOTH",
"698 1412 OFFCURVE",
"298 1220 OFFCURVE",
"298 696 CURVE SMOOTH",
"298 170 OFFCURVE",
"682 -22 OFFCURVE",
"1110 -22 CURVE SMOOTH"
);
}
);
width = 2200;
},
{
anchors = (
{
name = bottom;
position = "{450, 0}";
},
{
name = top;
position = "{450, 1400}";
}
);
layerId = "5D8A6BC1-E275-4777-AF98-AB9B3DC0EDC1";
paths = (
{
closed = 1;
nodes = (
"735 -22 OFFCURVE",
"860 190 OFFCURVE",
"860 613 CURVE SMOOTH",
"860 805 LINE",
"457 805 LINE",
"457 553 LINE",
"537 553 LINE",
"537 358 OFFCURVE",
"532 249 OFFCURVE",
"471 249 CURVE SMOOTH",
"402 249 OFFCURVE",
"387 317 OFFCURVE",
"387 696 CURVE SMOOTH",
"387 1060 OFFCURVE",
"411 1141 OFFCURVE",
"460 1141 CURVE SMOOTH",
"508 1141 OFFCURVE",
"531 993 OFFCURVE",
"535 935 CURVE",
"835 1054 LINE",
"807 1243 OFFCURVE",
"657 1412 OFFCURVE",
"469 1412 CURVE SMOOTH",
"227 1412 OFFCURVE",
"51 1229 OFFCURVE",
"51 696 CURVE SMOOTH",
"51 161 OFFCURVE",
"208 -22 OFFCURVE",
"471 -22 CURVE SMOOTH"
);
}
);
width = 900;
},
{
anchors = (
{
name = bottom;
position = "{1190, 0}";
},
{
name = top;
position = "{1124, 1400}";
}
);
layerId = "16EBFD8D-F4C1-4BAA-8DD7-EBE82D779ED1";
paths = (
{
closed = 1;
nodes = (
"1509 -22 OFFCURVE",
"1992 190 OFFCURVE",
"1992 647 CURVE SMOOTH",
"1992 818 LINE",
"1118 818 LINE",
"1118 527 LINE",
"1577 527 LINE",
"1543 402 OFFCURVE",
"1376 276 OFFCURVE",
"1091 276 CURVE SMOOTH",
"879 276 OFFCURVE",
"602 366 OFFCURVE",
"602 696 CURVE SMOOTH",
"602 1027 OFFCURVE",
"891 1114 OFFCURVE",
"1102 1114 CURVE SMOOTH",
"1348 1114 OFFCURVE",
"1532 1025 OFFCURVE",
"1593 948 CURVE",
"1914 1178 LINE",
"1849 1252 OFFCURVE",
"1538 1412 OFFCURVE",
"1107 1412 CURVE SMOOTH",
"668 1412 OFFCURVE",
"186 1187 OFFCURVE",
"186 696 CURVE SMOOTH",
"186 205 OFFCURVE",
"655 -22 OFFCURVE",
"1096 -22 CURVE SMOOTH"
);
}
);
width = 2200;
}
);
leftKerningGroup = O;
rightKerningGroup = G;
unicode = 0047;
},
{
glyphname = H;
lastChange = "2020-04-13 20:49:52 +0000";
layers = (
{
anchors = (
{
name = bottom;
position = "{620, 0}";
},
{
name = center;
position = "{620, 1084}";
},
{
name = top;
position = "{620, 1400}";
},
{
name = topleft;
position = "{60, 1400}";
}
);
layerId = "5521DC30-183F-421A-91F3-644B5E24AFE6";
paths = (
{
closed = 1;
nodes = (
"462 0 LINE",
"462 594 LINE",
"800 594 LINE",
"800 0 LINE",
"1174 0 LINE",
"1174 1400 LINE",
"800 1400 LINE",
"800 862 LINE",
"462 862 LINE",
"462 1400 LINE",
"88 1400 LINE",
"88 0 LINE"
);
}
);
width = 1300;
},
{
anchors = (
{
name = bottom;
position = "{620, 0}";
},
{
name = center;
position = "{620, 1114}";
},
{
name = top;
position = "{620, 1400}";
},
{
name = topleft;
position = "{60, 1400}";
}
);
layerId = "BE68D89F-AB3F-4BDF-B332-ED50D7C47704";
paths = (
{
closed = 1;
nodes = (
"340 0 LINE",
"340 696 LINE",
"906 696 LINE",
"906 0 LINE",
"972 0 LINE",
"972 1400 LINE",
"906 1400 LINE",
"906 760 LINE",
"340 760 LINE",
"340 1400 LINE",
"274 1400 LINE",
"274 0 LINE"
);
}
);
width = 1300;
},
{
anchors = (
{
name = bottom;
position = "{452, 0}";
},
{
name = center;
position = "{452, 1062}";
},
{
name = top;
position = "{452, 1400}";
},
{
name = topleft;
position = "{12, 1400}";
}
);
layerId = "2E286313-D5BF-4FB4-A4B7-BD9BC13B574E";
paths = (
{
closed = 1;
nodes = (
"246 0 LINE",
"246 696 LINE",
"656 696 LINE",
"656 0 LINE",
"722 0 LINE",
"722 1400 LINE",
"656 1400 LINE",
"656 760 LINE",
"246 760 LINE",
"246 1400 LINE",
"180 1400 LINE",
"180 0 LINE"
);
}
);
width = 900;
},
{
anchors = (
{
name = bottom;
position = "{1050, 0}";
},
{
name = center;
position = "{1050, 1132}";
},
{
name = top;
position = "{1050, 1400}";
},
{
name = topleft;
position = "{70, 1400}";
}
);
layerId = "E338D14E-1DA5-418D-88BC-8956EEA80AB9";
paths = (
{
closed = 1;
nodes = (
"450 0 LINE",
"450 696 LINE",
"1708 696 LINE",
"1708 0 LINE",
"1784 0 LINE",
"1784 1400 LINE",
"1708 1400 LINE",
"1708 760 LINE",
"450 760 LINE",
"450 1400 LINE",
"374 1400 LINE",
"374 0 LINE"
);
}
);
width = 2200;
},
{
anchors = (
{
name = bottom;
position = "{458, 0}";
},
{
name = center;
position = "{458, 1056}";
},
{
name = top;
position = "{458, 1400}";
},
{
name = topleft;
position = "{68, 1400}";
}
);
layerId = "5D8A6BC1-E275-4777-AF98-AB9B3DC0EDC1";
paths = (
{
closed = 1;
nodes = (
"422 0 LINE",
"422 594 LINE",
"478 594 LINE",
"478 0 LINE",
"852 0 LINE",
"852 1400 LINE",
"478 1400 LINE",
"478 862 LINE",
"422 862 LINE",
"422 1400 LINE",
"48 1400 LINE",
"48 0 LINE"
);
}
);
width = 900;
},
{
anchors = (
{
name = bottom;
position = "{1024, 0}";
},
{
name = center;
position = "{1024, 1140}";
},
{
name = top;
position = "{1024, 1400}";
},
{
name = topleft;
position = "{124, 1400}";
}
);
layerId = "16EBFD8D-F4C1-4BAA-8DD7-EBE82D779ED1";
paths = (
{
closed = 1;
nodes = (
"652 0 LINE",
"652 579 LINE",
"1494 579 LINE",
"1494 0 LINE",
"1903 0 LINE",
"1903 1400 LINE",
"1494 1400 LINE",
"1494 877 LINE",
"652 877 LINE",
"652 1400 LINE",
"243 1400 LINE",
"243 0 LINE"
);
}
);
width = 2200;
}
);
leftKerningGroup = H;
rightKerningGroup = H;
unicode = 0048;
},
{
glyphname = Hbar;
lastChange = "2020-04-14 01:04:27 +0000";
layers = (
{
anchors = (
{
name = _center;
position = "{620, 1084}";
}
);
components = (
{
name = H;
}
);
layerId = "5521DC30-183F-421A-91F3-644B5E24AFE6";
paths = (
{
closed = 1;
nodes = (
"1228 964 LINE",
"1228 1202 LINE",
"12 1202 LINE",
"12 964 LINE"
);
}
);
width = 1300;
},
{
anchors = (
{
name = _center;
position = "{620, 1114}";
}
);
components = (
{
name = H;
}
);
layerId = "BE68D89F-AB3F-4BDF-B332-ED50D7C47704";
paths = (
{
closed = 1;
nodes = (
"1062 1082 LINE",
"1062 1146 LINE",
"178 1146 LINE",
"178 1082 LINE"
);
}
);
width = 1300;
},
{
anchors = (
{
name = _center;
position = "{450, 1062}";
}
);
components = (
{
name = H;
}
);
layerId = "2E286313-D5BF-4FB4-A4B7-BD9BC13B574E";
paths = (
{
closed = 1;
nodes = (
"754 1030 LINE",
"754 1094 LINE",
"146 1094 LINE",
"146 1030 LINE"
);
}
);
width = 900;
},
{
anchors = (
{
name = _center;
position = "{1050, 1132}";
}
);
components = (
{
name = H;
}
);
layerId = "E338D14E-1DA5-418D-88BC-8956EEA80AB9";
paths = (
{
closed = 1;
nodes = (
"1917 1100 LINE",
"1917 1164 LINE",
"241 1164 LINE",
"241 1100 LINE"
);
}
);
width = 2200;
},
{
anchors = (
{
name = _center;
position = "{470, 1057}";
}
);
components = (
{
name = H;
}
);
layerId = "5D8A6BC1-E275-4777-AF98-AB9B3DC0EDC1";
paths = (
{
closed = 1;
nodes = (
"873 947 LINE",
"873 1165 LINE",
"31 1165 LINE",
"31 947 LINE"
);
}
);
width = 900;
},
{
anchors = (
{
name = _center;
position = "{1075, 1141}";
}
);
components = (
{
alignment = -1;
name = H;
transform = "{1, 0, 0, 1, 102, 0}";
}
);
layerId = "16EBFD8D-F4C1-4BAA-8DD7-EBE82D779ED1";
paths = (
{
closed = 1;
nodes = (
"2052 1011 LINE",
"2052 1269 LINE",
"122 1269 LINE",
"122 1011 LINE"
);
}
);
width = 2200;
}
);
leftKerningGroup = H;
widthMetricsKey = H;
rightKerningGroup = H;
unicode = 0126;
},
{
glyphname = I;
lastChange = "2020-04-13 16:36:23 +0000";
layers = (
{
anchors = (
{
name = bottom;
position = "{652, 0}";
},
{
name = ogonek;
position = "{648, 0}";
},
{
name = top;
position = "{652, 1400}";
},
{
name = topleft;
position = "{92, 1400}";
}
);
layerId = "5521DC30-183F-421A-91F3-644B5E24AFE6";
paths = (
{
closed = 1;
nodes = (
"1114 0 LINE",
"1114 270 LINE",
"836 270 LINE",
"836 1130 LINE",
"1114 1130 LINE",
"1114 1400 LINE",
"186 1400 LINE",
"186 1130 LINE",
"462 1130 LINE",
"462 270 LINE",
"186 270 LINE",
"186 0 LINE"
);
}
);
width = 1300;
},
{
anchors = (
{
name = bottom;
position = "{652, 0}";
},
{
name = ogonek;
position = "{658, 0}";
},
{
name = top;
position = "{652, 1400}";
},
{
name = topleft;
position = "{92, 1400}";
}
);
layerId = "BE68D89F-AB3F-4BDF-B332-ED50D7C47704";
paths = (
{
closed = 1;
nodes = (
"982 0 LINE",
"982 64 LINE",
"682 64 LINE",
"682 1336 LINE",
"982 1336 LINE",
"982 1400 LINE",
"318 1400 LINE",
"318 1336 LINE",
"616 1336 LINE",
"616 64 LINE",
"318 64 LINE",
"318 0 LINE"
);
}
);
width = 1300;
},
{
anchors = (
{
name = bottom;
position = "{453, 0}";
},
{
name = ogonek;
position = "{452, 0}";
},
{
name = top;
position = "{451, 1400}";
},
{
name = topleft;
position = "{109, 1400}";
}
);
layerId = "2E286313-D5BF-4FB4-A4B7-BD9BC13B574E";
paths = (
{
closed = 1;
nodes = (
"703 0 LINE",
"703 64 LINE",
"483 64 LINE",
"483 1336 LINE",
"703 1336 LINE",
"703 1400 LINE",
"199 1400 LINE",
"199 1336 LINE",
"417 1336 LINE",
"417 64 LINE",
"199 64 LINE",
"199 0 LINE"
);
}
);
width = 900;
},
{
anchors = (
{
name = bottom;
position = "{1103, 0}";
},
{
name = ogonek;
position = "{1113, 0}";
},
{
name = top;
position = "{1103, 1400}";
},
{
name = topleft;
position = "{123, 1400}";
}
);
layerId = "E338D14E-1DA5-418D-88BC-8956EEA80AB9";
paths = (
{
closed = 1;
nodes = (
"1771 0 LINE",
"1771 64 LINE",
"1137 64 LINE",
"1137 1336 LINE",
"1771 1336 LINE",
"1771 1400 LINE",
"429 1400 LINE",
"429 1336 LINE",
"1061 1336 LINE",
"1061 64 LINE",
"429 64 LINE",
"429 0 LINE"
);
}
);
width = 2200;
},
{
anchors = (
{
name = bottom;
position = "{452, 0}";
},
{
name = ogonek;
position = "{446, 0}";
},
{
name = top;
position = "{452, 1400}";
},
{
name = topleft;
position = "{106, 1400}";
}
);
layerId = "5D8A6BC1-E275-4777-AF98-AB9B3DC0EDC1";
paths = (
{
closed = 1;
nodes = (
"820 0 LINE",
"820 270 LINE",
"638 270 LINE",
"638 1130 LINE",
"820 1130 LINE",
"820 1400 LINE",
"82 1400 LINE",
"82 1130 LINE",
"264 1130 LINE",
"264 270 LINE",
"82 270 LINE",
"82 0 LINE"
);
}
);
width = 900;
},
{
anchors = (
{
name = bottom;
position = "{1105, 0}";
},
{
name = ogonek;
position = "{1105, 0}";
},
{
name = top;
position = "{1105, 1400}";
},
{
name = topleft;
position = "{117, 1400}";
}
);
layerId = "16EBFD8D-F4C1-4BAA-8DD7-EBE82D779ED1";
paths = (
{
closed = 1;
nodes = (
"1845 0 LINE",
"1845 290 LINE",
"1305 290 LINE",
"1305 1110 LINE",
"1845 1110 LINE",
"1845 1400 LINE",
"351 1400 LINE",
"351 1110 LINE",
"891 1110 LINE",
"891 290 LINE",
"351 290 LINE",
"351 0 LINE"
);
}
);
width = 2200;
}
);
leftKerningGroup = H;
rightKerningGroup = H;
unicode = 0049;
},
{
color = 4;
glyphname = I.ss01;
lastChange = "2020-04-14 19:42:40 +0000";
layers = (
{
anchors = (
{
name = bottom;
position = "{300, 0}";
},
{
name = ogonek;
position = "{540, 10}";
},
{
name = top;
position = "{300, 1400}";
},
{
name = topleft;
position = "{20, 1400}";
}
);
layerId = "2E286313-D5BF-4FB4-A4B7-BD9BC13B574E";
paths = (
{
closed = 1;
nodes = (
"335 0 LINE",
"335 1400 LINE",
"267 1400 LINE",
"267 0 LINE"
);
}
);
width = 600;
},
{
anchors = (
{
name = bottom;
position = "{300, 0}";
},
{
name = ogonek;
position = "{540, 10}";
},
{
name = top;
position = "{300, 1400}";
},
{
name = topleft;
position = "{20, 1400}";
}
);
layerId = "5D8A6BC1-E275-4777-AF98-AB9B3DC0EDC1";
paths = (
{
closed = 1;
nodes = (
"470 0 LINE",
"470 1400 LINE",
"126 1400 LINE",
"126 0 LINE"
);
}
);
width = 600;
},
{
anchors = (
{
name = bottom;
position = "{500, 0}";
},
{
name = ogonek;
position = "{900, 10}";
},
{
name = top;
position = "{500, 1400}";
},
{
name = topleft;
position = "{20, 1400}";
}
);
layerId = "BE68D89F-AB3F-4BDF-B332-ED50D7C47704";
paths = (
{
closed = 1;
nodes = (
"531 0 LINE",
"531 1400 LINE",
"465 1400 LINE",
"465 0 LINE"
);
}
);
width = 1000;
},
{
anchors = (
{
name = bottom;
position = "{500, 0}";
},
{
name = ogonek;
position = "{900, 10}";
},
{
name = top;
position = "{500, 1400}";
},
{
name = topleft;
position = "{20, 1400}";
}
);
layerId = "5521DC30-183F-421A-91F3-644B5E24AFE6";
paths = (
{
closed = 1;
nodes = (
"686 0 LINE",
"686 1400 LINE",
"312 1400 LINE",
"312 0 LINE"
);
}
);
width = 1000;
},
{
anchors = (
{
name = bottom;
position = "{900, 0}";
},
{
name = ogonek;
position = "{1620, 10}";
},
{
name = top;
position = "{900, 1400}";
},
{
name = topleft;
position = "{20, 1400}";
}
);
layerId = "E338D14E-1DA5-418D-88BC-8956EEA80AB9";
paths = (
{
closed = 1;
nodes = (
"938 0 LINE",
"938 1400 LINE",
"866 1400 LINE",
"866 0 LINE"
);
}
);
width = 1800;
},
{
anchors = (
{
name = bottom;
position = "{900, 0}";
},
{
name = ogonek;
position = "{1620, 10}";
},
{
name = top;
position = "{900, 1400}";
},
{
name = topleft;
position = "{20, 1400}";
}
);
layerId = "16EBFD8D-F4C1-4BAA-8DD7-EBE82D779ED1";
paths = (
{
closed = 1;
nodes = (
"1104 0 LINE",
"1104 1400 LINE",
"690 1400 LINE",
"690 0 LINE"
);
}
);
width = 1800;
}
);
leftKerningGroup = H;
rightKerningGroup = H;
},
{
glyphname = J;
lastChange = "2020-04-14 01:37:28 +0000";
layers = (
{
anchors = (
{
name = bottom;
position = "{680, 0}";
},
{
name = top;
position = "{988, 1400}";
}
);
layerId = "5521DC30-183F-421A-91F3-644B5E24AFE6";
paths = (
{
closed = 1;
nodes = (
"930 -22 OFFCURVE",
"1160 118 OFFCURVE",
"1160 532 CURVE SMOOTH",
"1160 1400 LINE",
"288 1400 LINE",
"288 1130 LINE",
"786 1130 LINE",
"786 568 LINE SMOOTH",
"786 326 OFFCURVE",
"708 262 OFFCURVE",
"616 262 CURVE SMOOTH",
"526 262 OFFCURVE",
"446 326 OFFCURVE",
"446 568 CURVE",
"70 568 LINE",
"70 118 OFFCURVE",
"306 -22 OFFCURVE",
"616 -22 CURVE SMOOTH"
);
}
);
width = 1300;
},
{
anchors = (
{
name = bottom;
position = "{650, 0}";
},
{
name = top;
position = "{950, 1400}";
}
);
layerId = "BE68D89F-AB3F-4BDF-B332-ED50D7C47704";
paths = (
{
closed = 1;
nodes = (
"828 -22 OFFCURVE",
"982 134 OFFCURVE",
"982 548 CURVE SMOOTH",
"982 1400 LINE",
"336 1400 LINE",
"336 1336 LINE",
"916 1336 LINE",
"916 552 LINE SMOOTH",
"916 202 OFFCURVE",
"810 44 OFFCURVE",
"594 44 CURVE SMOOTH",
"380 44 OFFCURVE",
"270 202 OFFCURVE",
"270 552 CURVE",
"204 552 LINE",
"204 134 OFFCURVE",
"362 -22 OFFCURVE",
"594 -22 CURVE SMOOTH"
);
}
);
width = 1300;
},
{
anchors = (
{
name = bottom;
position = "{482, 0}";
},
{
name = top;
position = "{682, 1400}";
}
);
layerId = "2E286313-D5BF-4FB4-A4B7-BD9BC13B574E";
paths = (
{
closed = 1;
nodes = (
"616 -22 OFFCURVE",
"710 164 OFFCURVE",
"710 572 CURVE",
"710 1400 LINE",
"304 1400 LINE",
"304 1336 LINE",
"644 1336 LINE",
"644 550 LINE SMOOTH",
"644 202 OFFCURVE",
"580 44 OFFCURVE",
"432 44 CURVE SMOOTH",
"282 44 OFFCURVE",
"218 188 OFFCURVE",
"218 552 CURVE",
"152 552 LINE",
"152 144 OFFCURVE",
"250 -22 OFFCURVE",
"432 -22 CURVE SMOOTH"
);
}
);
width = 900;
},
{
anchors = (
{
name = bottom;
position = "{1100, 0}";
},
{
name = top;
position = "{1705, 1400}";
}
);
layerId = "E338D14E-1DA5-418D-88BC-8956EEA80AB9";
paths = (
{
closed = 1;
nodes = (
"1474 -22 OFFCURVE",
"1748 144 OFFCURVE",
"1748 598 CURVE",
"1748 1400 LINE",
"500 1400 LINE",
"500 1336 LINE",
"1667 1336 LINE",
"1667 548 LINE SMOOTH",
"1667 200 OFFCURVE",
"1438 44 OFFCURVE",
"1034 44 CURVE SMOOTH",
"624 44 OFFCURVE",
"392 208 OFFCURVE",
"392 552 CURVE",
"324 552 LINE",
"324 138 OFFCURVE",
"598 -22 OFFCURVE",
"1034 -22 CURVE SMOOTH"
);
}
);
width = 2200;
},
{
anchors = (
{
name = bottom;
position = "{522, 0}";
},
{
name = top;
position = "{669, 1400}";
}
);
layerId = "5D8A6BC1-E275-4777-AF98-AB9B3DC0EDC1";
paths = (
{
closed = 1;
nodes = (
"710 -22 OFFCURVE",
"833 179 OFFCURVE",
"833 533 CURVE SMOOTH",
"833 1400 LINE",
"196 1400 LINE",
"196 1153 LINE",
"495 1153 LINE",
"495 566 LINE SMOOTH",
"495 365 OFFCURVE",
"489 249 OFFCURVE",
"440 249 CURVE SMOOTH",
"394 249 OFFCURVE",
"385 365 OFFCURVE",
"385 566 CURVE",
"46 566 LINE",
"46 170 OFFCURVE",
"170 -22 OFFCURVE",
"440 -22 CURVE SMOOTH"
);
}
);
width = 900;
},
{
anchors = (
{
name = bottom;
position = "{975, 0}";
},
{
name = top;
position = "{1579, 1400}";
}
);
layerId = "16EBFD8D-F4C1-4BAA-8DD7-EBE82D779ED1";
paths = (
{
closed = 1;
nodes = (
"1372 -22 OFFCURVE",
"1788 143 OFFCURVE",
"1788 533 CURVE SMOOTH",
"1788 1400 LINE",
"500 1400 LINE",
"500 1107 LINE",
"1377 1107 LINE",
"1377 570 LINE SMOOTH",
"1377 358 OFFCURVE",
"1187 287 OFFCURVE",
"957 287 CURVE SMOOTH",
"734 287 OFFCURVE",
"541 357 OFFCURVE",
"541 570 CURVE",
"126 570 LINE",
"126 144 OFFCURVE",
"540 -22 OFFCURVE",
"957 -22 CURVE SMOOTH"
);
}
);
width = 2200;
}
);
leftKerningGroup = J;
rightKerningGroup = J;
unicode = 004A;
},
{
glyphname = K;
lastChange = "2020-04-13 20:26:54 +0000";
layers = (
{
anchors = (
{
name = bottom;
position = "{672, 0}";
},
{
name = top;
position = "{672, 1400}";
}
);
layerId = "5521DC30-183F-421A-91F3-644B5E24AFE6";
paths = (
{
closed = 1;
nodes = (
"480 0 LINE",
"480 584 LINE",
"628 584 LINE",
"869 0 LINE",
"1276 0 LINE",
"880 782 LINE",
"880 656 LINE",
"1262 1400 LINE",
"858 1400 LINE",
"626 852 LINE",
"480 852 LINE",
"480 1400 LINE",
"106 1400 LINE",
"106 0 LINE"
);
}
);
width = 1300;
},
{
anchors = (
{
name = bottom;
position = "{600, 0}";
},
{
name = top;
position = "{600, 1400}";
}
);
layerId = "BE68D89F-AB3F-4BDF-B332-ED50D7C47704";
paths = (
{
closed = 1;
nodes = (
"332 0 LINE",
"332 686 LINE",
"578 686 LINE",
"966 0 LINE",
"1040 0 LINE",
"618 744 LINE",
"618 692 LINE",
"1006 1400 LINE",
"933 1400 LINE",
"581 750 LINE",
"332 750 LINE",
"332 1400 LINE",
"266 1400 LINE",
"266 0 LINE"
);
}
);
width = 1300;
},
{
anchors = (
{
name = bottom;
position = "{460, 0}";
},
{
name = top;
position = "{460, 1400}";
}
);
layerId = "2E286313-D5BF-4FB4-A4B7-BD9BC13B574E";
paths = (
{
closed = 1;
nodes = (
"332 0 LINE",
"332 686 LINE",
"408 686 LINE",
"646 0 LINE",
"714 0 LINE",
"452 746 LINE",
"452 690 LINE",
"700 1400 LINE",
"632 1400 LINE",
"408 750 LINE",
"332 750 LINE",
"332 1400 LINE",
"266 1400 LINE",
"266 0 LINE"
);
}
);
width = 900;
},
{
anchors = (
{
name = bottom;
position = "{1120, 0}";
},
{
name = top;
position = "{1120, 1400}";
}
);
layerId = "E338D14E-1DA5-418D-88BC-8956EEA80AB9";
paths = (
{
closed = 1;
nodes = (
"512 0 LINE",
"512 686 LINE",
"1102 686 LINE",
"1797 0 LINE",
"1896 0 LINE",
"1160 734 LINE",
"1157 704 LINE",
"1838 1400 LINE",
"1743 1400 LINE",
"1104 750 LINE",
"512 750 LINE",
"512 1400 LINE",
"436 1400 LINE",
"436 0 LINE"
);
}
);
width = 2200;
},
{
anchors = (
{
name = bottom;
position = "{448, 0}";
},
{
name = top;
position = "{448, 1400}";
}
);
layerId = "5D8A6BC1-E275-4777-AF98-AB9B3DC0EDC1";
paths = (
{
closed = 1;
nodes = (
"414 0 LINE",
"414 584 LINE",
"418 584 LINE",
"502 0 LINE",
"906 0 LINE",
"682 806 LINE",
"682 634 LINE",
"898 1400 LINE",
"494 1400 LINE",
"418 852 LINE",
"414 852 LINE",
"414 1400 LINE",
"40 1400 LINE",
"40 0 LINE"
);
}
);
width = 900;
},
{
anchors = (
{
name = bottom;
position = "{1100, 0}";
},
{
name = top;
position = "{1100, 1400}";
}
);
layerId = "16EBFD8D-F4C1-4BAA-8DD7-EBE82D779ED1";
paths = (
{
closed = 1;
nodes = (
"592 0 LINE",
"592 569 LINE",
"1043 569 LINE",
"1631 0 LINE",
"2076 0 LINE",
"1317 738 LINE",
"1317 704 LINE",
"2050 1400 LINE",
"1606 1400 LINE",
"1037 867 LINE",
"592 867 LINE",
"592 1400 LINE",
"188 1400 LINE",
"188 0 LINE"
);
}
);
width = 2200;
}
);
leftKerningGroup = H;
rightKerningGroup = K;
unicode = 004B;
},
{
glyphname = L;
lastChange = "2020-04-13 16:20:01 +0000";
layers = (
{
anchors = (
{
name = bottom;
position = "{504, 0}";
},
{
name = center;
position = "{292, 710}";
},
{
name = top;
position = "{512, 1400}";
},
{
name = topright;
position = "{780, 1400}";
}
);
layerId = "5521DC30-183F-421A-91F3-644B5E24AFE6";
paths = (
{
closed = 1;
nodes = (
"944 0 LINE",
"944 270 LINE",
"482 270 LINE",
"482 1400 LINE",
"106 1400 LINE",
"106 0 LINE"
);
}
);
width = 1000;
},
{
anchors = (
{
name = bottom;
position = "{520, 0}";
},
{
name = center;
position = "{196, 666}";
},
{
name = top;
position = "{420, 1400}";
},
{
name = topright;
position = "{770, 1400}";
}
);
layerId = "BE68D89F-AB3F-4BDF-B332-ED50D7C47704";
paths = (
{
closed = 1;
nodes = (
"854 0 LINE",
"854 64 LINE",
"252 64 LINE",
"252 1400 LINE",
"186 1400 LINE",
"186 0 LINE"
);
}
);
width = 1000;
},
{
anchors = (
{
name = bottom;
position = "{310, 0}";
},
{
name = center;
position = "{166, 666}";
},
{
name = top;
position = "{310, 1400}";
},
{
name = topright;
position = "{660, 1400}";
}
);
layerId = "2E286313-D5BF-4FB4-A4B7-BD9BC13B574E";
paths = (
{
closed = 1;
nodes = (
"494 0 LINE",
"494 64 LINE",
"202 64 LINE",
"202 1400 LINE",
"136 1400 LINE",
"136 0 LINE"
);
}
);
width = 600;
},
{
anchors = (
{
name = bottom;
position = "{971, 0}";
},
{
name = center;
position = "{418, 666}";
},
{
name = top;
position = "{890, 1400}";
},
{
name = topright;
position = "{1502, 1400}";
}
);
layerId = "E338D14E-1DA5-418D-88BC-8956EEA80AB9";
paths = (
{
closed = 1;
nodes = (
"1570 0 LINE",
"1570 64 LINE",
"428 64 LINE",
"428 1400 LINE",
"352 1400 LINE",
"352 0 LINE"
);
}
);
width = 1800;
},
{
anchors = (
{
name = bottom;
position = "{307, 0}";
},
{
name = center;
position = "{214, 710}";
},
{
name = top;
position = "{328, 1400}";
},
{
name = topright;
position = "{524, 1400}";
}
);
layerId = "5D8A6BC1-E275-4777-AF98-AB9B3DC0EDC1";
paths = (
{
closed = 1;
nodes = (
"597 0 LINE",
"597 270 LINE",
"393 270 LINE",
"393 1400 LINE",
"19 1400 LINE",
"19 0 LINE"
);
}
);
width = 600;
},
{
anchors = (
{
name = bottom;
position = "{917, 0}";
},
{
name = center;
position = "{478, 710}";
},
{
name = top;
position = "{910, 1400}";
},
{
name = topright;
position = "{1322, 1400}";
}
);
layerId = "16EBFD8D-F4C1-4BAA-8DD7-EBE82D779ED1";
paths = (
{
closed = 1;
nodes = (
"1538 0 LINE",
"1538 290 LINE",
"690 290 LINE",
"690 1400 LINE",
"290 1400 LINE",
"290 0 LINE"
);
}
);
width = 1800;
}
);
leftKerningGroup = H;
rightKerningGroup = L;
unicode = 004C;
},
{
glyphname = Lslash;
lastChange = "2020-04-14 01:04:27 +0000";
layers = (
{
components = (
{
name = L;
transform = "{1, 0, 0, 1, 6, 0}";
}
);
layerId = "5521DC30-183F-421A-91F3-644B5E24AFE6";
paths = (
{
closed = 1;
nodes = (
"682 806 LINE",
"682 1144 LINE",
"-34 570 LINE",
"-34 234 LINE"
);
}
);
width = 1000;
},
{
components = (
{
name = L;
transform = "{1, 0, 0, 1, 20, 0}";
}
);
layerId = "BE68D89F-AB3F-4BDF-B332-ED50D7C47704";
paths = (
{
closed = 1;
nodes = (
"508 920 LINE",
"508 1002 LINE",
"4 496 LINE",
"4 416 LINE"
);
}
);
width = 1000;
},
{
components = (
{
name = L;
transform = "{1, 0, 0, 1, 36, 0}";
}
);
layerId = "2E286313-D5BF-4FB4-A4B7-BD9BC13B574E";
paths = (
{
closed = 1;
nodes = (
"403 813 LINE",
"403 895 LINE",
"6 496 LINE",
"6 416 LINE"
);
}
);
width = 600;
},
{
components = (
{
name = L;
transform = "{1, 0, 0, 1, -7, 0}";
}
);
layerId = "E338D14E-1DA5-418D-88BC-8956EEA80AB9";
paths = (
{
closed = 1;
nodes = (
"831 918 LINE",
"831 1002 LINE",
"-5 496 LINE",
"-5 414 LINE"
);
}
);
width = 1800;
},
{
components = (
{
alignment = -1;
name = L;
transform = "{1, 0, 0, 1, 1, 0}";
}
);
layerId = "5D8A6BC1-E275-4777-AF98-AB9B3DC0EDC1";
paths = (
{
closed = 1;
nodes = (
"465 691 LINE",
"465 1049 LINE",
"-39 643 LINE",
"-39 287 LINE"
);
}
);
width = 600;
},
{
components = (
{
alignment = -1;
name = L;
transform = "{1, 0, 0, 1, 5, 0}";
}
);
layerId = "16EBFD8D-F4C1-4BAA-8DD7-EBE82D779ED1";
paths = (
{
closed = 1;
nodes = (
"1061 847 LINE",
"1061 1194 LINE",
"46 560 LINE",
"46 215 LINE"
);
}
);
width = 1800;
}
);
leftKerningGroup = H;
widthMetricsKey = L;
rightKerningGroup = L;
unicode = 0141;
},
{
glyphname = M;
lastChange = "2020-04-13 20:27:09 +0000";
layers = (
{
anchors = (
{
name = bottom;
position = "{904, 0}";
},
{
name = top;
position = "{600, 1400}";
}
);
layerId = "5521DC30-183F-421A-91F3-644B5E24AFE6";
paths = (
{
closed = 1;
nodes = (
"1052 204 LINE",
"1306 1094 LINE",
"1300 1400 LINE",
"1102 1400 LINE",
"918 671 LINE",
"838 204 LINE"
);
},
{
closed = 1;
nodes = (
"498 0 LINE",
"558 1400 LINE",
"214 1400 LINE",
"116 0 LINE"
);
},
{
closed = 1;
nodes = (
"958 204 LINE",
"888 671 LINE",
"696 1400 LINE",
"498 1400 LINE",
"492 1094 LINE",
"748 204 LINE"
);
},
{
closed = 1;
nodes = (
"1682 0 LINE",
"1584 1400 LINE",
"1240 1400 LINE",
"1300 0 LINE"
);
}
);
width = 1800;
},
{
anchors = (
{
name = bottom;
position = "{600, 0}";
},
{
name = top;
position = "{600, 1400}";
}
);
layerId = "BE68D89F-AB3F-4BDF-B332-ED50D7C47704";
paths = (
{
closed = 1;
nodes = (
"940 80 LINE",
"1348 1320 LINE",
"1358 1400 LINE",
"1306 1400 LINE",
"918 216 LINE",
"876 80 LINE"
);
},
{
closed = 1;
nodes = (
"290 0 LINE",
"462 1400 LINE",
"398 1400 LINE",
"220 0 LINE"
);
},
{
closed = 1;
nodes = (
"918 80 LINE",
"876 216 LINE",
"490 1400 LINE",
"442 1400 LINE",
"448 1320 LINE",
"854 80 LINE"
);
},
{
closed = 1;
nodes = (
"1576 0 LINE",
"1398 1400 LINE",
"1334 1400 LINE",
"1506 0 LINE"
);
}
);
width = 1800;
},
{
anchors = (
{
name = bottom;
position = "{696, 0}";
},
{
name = top;
position = "{514, 1400}";
}
);
layerId = "2E286313-D5BF-4FB4-A4B7-BD9BC13B574E";
paths = (
{
closed = 1;
nodes = (
"746 140 LINE",
"1033 1344 LINE",
"1032 1400 LINE",
"973 1400 LINE",
"702 209 LINE",
"676 140 LINE"
);
},
{
closed = 1;
nodes = (
"266 0 LINE",
"380 1400 LINE",
"316 1400 LINE",
"198 0 LINE"
);
},
{
closed = 1;
nodes = (
"732 140 LINE",
"704 209 LINE",
"435 1400 LINE",
"376 1400 LINE",
"375 1344 LINE",
"660 140 LINE"
);
},
{
closed = 1;
nodes = (
"1210 0 LINE",
"1092 1400 LINE",
"1028 1400 LINE",
"1142 0 LINE"
);
}
);
width = 1400;
},
{
anchors = (
{
name = bottom;
position = "{1278, 0}";
},
{
name = top;
position = "{1290, 1400}";
}
);
layerId = "E338D14E-1DA5-418D-88BC-8956EEA80AB9";
paths = (
{
closed = 1;
nodes = (
"1346 80 LINE",
"1978 1323 LINE",
"1998 1400 LINE",
"1937 1400 LINE",
"1302 148 LINE",
"1278 80 LINE"
);
},
{
closed = 1;
nodes = (
"351 0 LINE",
"640 1400 LINE",
"570 1400 LINE",
"272 0 LINE"
);
},
{
closed = 1;
nodes = (
"1316 80 LINE",
"1292 148 LINE",
"663 1400 LINE",
"610 1400 LINE",
"622 1323 LINE",
"1248 80 LINE"
);
},
{
closed = 1;
nodes = (
"2330 0 LINE",
"2028 1400 LINE",
"1962 1400 LINE",
"2251 0 LINE"
);
}
);
width = 2600;
},
{
anchors = (
{
name = bottom;
position = "{796, 0}";
},
{
name = top;
position = "{408, 1400}";
}
);
layerId = "5D8A6BC1-E275-4777-AF98-AB9B3DC0EDC1";
paths = (
{
closed = 1;
nodes = (
"856 230 LINE",
"990 1100 LINE",
"994 1400 LINE",
"792 1400 LINE",
"712 776 LINE",
"658 230 LINE"
);
},
{
closed = 1;
nodes = (
"434 0 LINE",
"472 1400 LINE",
"132 1400 LINE",
"54 0 LINE"
);
},
{
closed = 1;
nodes = (
"744 230 LINE",
"696 776 LINE",
"610 1400 LINE",
"404 1400 LINE",
"414 1100 LINE",
"548 230 LINE"
);
},
{
closed = 1;
nodes = (
"1348 0 LINE",
"1270 1400 LINE",
"928 1400 LINE",
"968 0 LINE"
);
}
);
width = 1400;
},
{
anchors = (
{
name = bottom;
position = "{1289, 0}";
},
{
name = top;
position = "{1306, 1400}";
}
);
layerId = "16EBFD8D-F4C1-4BAA-8DD7-EBE82D779ED1";
paths = (
{
closed = 1;
nodes = (
"1549 142 LINE",
"1948 1112 LINE",
"1932 1400 LINE",
"1702 1400 LINE",
"1320 451 LINE",
"1188 142 LINE"
);
},
{
closed = 1;
nodes = (
"606 0 LINE",
"710 1400 LINE",
"328 1400 LINE",
"186 0 LINE"
);
},
{
closed = 1;
nodes = (
"1396 142 LINE",
"1282 451 LINE",
"888 1400 LINE",
"666 1400 LINE",
"638 1112 LINE",
"1043 142 LINE"
);
},
{
closed = 1;
nodes = (
"2404 0 LINE",
"2262 1400 LINE",
"1884 1400 LINE",
"1984 0 LINE"
);
}
);
width = 2600;
}
);
leftKerningGroup = M;
rightKerningGroup = M;
unicode = 004D;
},
{
glyphname = N;
lastChange = "2020-04-13 20:40:37 +0000";
layers = (
{
anchors = (
{
name = bottom;
position = "{640, 0}";
},
{
name = top;
position = "{650, 1400}";
}
);
layerId = "5521DC30-183F-421A-91F3-644B5E24AFE6";
paths = (
{
closed = 1;
nodes = (
"462 0 LINE",
"462 1112 LINE",
"450 1112 LINE",
"654 0 LINE",
"1214 0 LINE",
"1214 1400 LINE",
"840 1400 LINE",
"840 254 LINE",
"852 254 LINE",
"652 1400 LINE",
"88 1400 LINE",
"88 0 LINE"
);
}
);
width = 1300;
},
{
anchors = (
{
name = bottom;
position = "{640, 0}";
},
{
name = top;
position = "{640, 1400}";
}
);
layerId = "BE68D89F-AB3F-4BDF-B332-ED50D7C47704";
paths = (
{
closed = 1;
nodes = (
"328 0 LINE",
"328 1314 LINE",
"324 1314 LINE",
"926 0 LINE",
"1022 0 LINE",
"1022 1400 LINE",
"956 1400 LINE",
"956 82 LINE",
"960 82 LINE",
"358 1400 LINE",
"262 1400 LINE",
"262 0 LINE"
);
}
);
width = 1300;
},
{
anchors = (
{
name = bottom;
position = "{436, 0}";
},
{
name = top;
position = "{436, 1400}";
}
);
layerId = "2E286313-D5BF-4FB4-A4B7-BD9BC13B574E";
paths = (
{
closed = 1;
nodes = (
"226 0 LINE",
"226 1314 LINE",
"214 1312 LINE",
"643 0 LINE",
"740 0 LINE",
"740 1400 LINE",
"674 1400 LINE",
"674 86 LINE",
"686 88 LINE",
"252 1400 LINE",
"160 1400 LINE",
"160 0 LINE"
);
}
);
width = 900;
},
{
anchors = (
{
name = bottom;
position = "{1081, 1}";
},
{
name = top;
position = "{1081, 1401}";
}
);
layerId = "E338D14E-1DA5-418D-88BC-8956EEA80AB9";
paths = (
{
closed = 1;
nodes = (
"427 1 LINE",
"427 1330 LINE",
"405 1330 LINE",
"1734 1 LINE",
"1823 1 LINE",
"1823 1401 LINE",
"1747 1401 LINE",
"1747 70 LINE",
"1769 70 LINE",
"440 1401 LINE",
"351 1401 LINE",
"351 1 LINE"
);
}
);
width = 2200;
},
{
anchors = (
{
name = bottom;
position = "{448, 0}";
},
{
name = top;
position = "{450, 1400}";
}
);
layerId = "5D8A6BC1-E275-4777-AF98-AB9B3DC0EDC1";
paths = (
{
closed = 1;
nodes = (
"379 0 LINE",
"389 947 LINE",
"317 941 LINE",
"524 0 LINE",
"862 0 LINE",
"862 1400 LINE",
"523 1400 LINE",
"513 427 LINE",
"587 431 LINE",
"372 1400 LINE",
"40 1400 LINE",
"40 0 LINE"
);
}
);
width = 900;
},
{
anchors = (
{
name = bottom;
position = "{1053, 0}";
},
{
name = top;
position = "{1053, 1400}";
}
);
layerId = "16EBFD8D-F4C1-4BAA-8DD7-EBE82D779ED1";
paths = (
{
closed = 1;
nodes = (
"582 0 LINE",
"582 1099 LINE",
"573 1099 LINE",
"1272 0 LINE",
"1923 0 LINE",
"1923 1400 LINE",
"1512 1400 LINE",
"1512 301 LINE",
"1516 301 LINE",
"815 1400 LINE",
"171 1400 LINE",
"171 0 LINE"
);
}
);
width = 2200;
}
);
leftKerningGroup = H;
widthMetricsKey = H;
rightKerningGroup = H;
unicode = 004E;
},
{
glyphname = Eng;
lastChange = "2020-04-13 15:57:57 +0000";
layers = (
{
layerId = "5521DC30-183F-421A-91F3-644B5E24AFE6";
paths = (
{
closed = 1;
nodes = (
"944 -384 OFFCURVE",
"1156 -288 OFFCURVE",
"1156 -26 CURVE SMOOTH",
"1156 1400 LINE",
"782 1400 LINE",
"782 780 LINE",
"454 1400 LINE",
"88 1400 LINE",
"88 0 LINE",
"462 0 LINE",
"462 710 LINE",
"838 0 LINE",
"838 -40 OFFCURVE",
"796 -86 OFFCURVE",
"698 -86 CURVE SMOOTH",
"616 -86 OFFCURVE",
"522 -74 OFFCURVE",
"490 -62 CURVE",
"412 -358 LINE",
"460 -370 OFFCURVE",
"608 -384 OFFCURVE",
"712 -384 CURVE SMOOTH"
);
}
);
width = 1300;
},
{
layerId = "BE68D89F-AB3F-4BDF-B332-ED50D7C47704";
paths = (
{
closed = 1;
nodes = (
"872 -384 OFFCURVE",
"982 -250 OFFCURVE",
"982 -14 CURVE SMOOTH",
"982 1400 LINE",
"916 1400 LINE",
"916 148 LINE",
"314 1400 LINE",
"222 1400 LINE",
"222 0 LINE",
"288 0 LINE",
"288 1304 LINE",
"916 0 LINE",
"916 -272 OFFCURVE",
"802 -318 OFFCURVE",
"626 -318 CURVE SMOOTH",
"544 -318 OFFCURVE",
"442 -298 OFFCURVE",
"410 -290 CURVE",
"392 -356 LINE",
"440 -368 OFFCURVE",
"536 -384 OFFCURVE",
"640 -384 CURVE SMOOTH"
);
}
);
width = 1300;
},
{
layerId = "2E286313-D5BF-4FB4-A4B7-BD9BC13B574E";
paths = (
{
closed = 1;
nodes = (
"658 -384 OFFCURVE",
"740 -250 OFFCURVE",
"740 -14 CURVE SMOOTH",
"740 1400 LINE",
"674 1400 LINE",
"674 200 LINE",
"246 1400 LINE",
"160 1400 LINE",
"160 0 LINE",
"226 0 LINE",
"226 1254 LINE",
"674 0 LINE",
"674 -272 OFFCURVE",
"606 -318 OFFCURVE",
"474 -318 CURVE SMOOTH",
"412 -318 OFFCURVE",
"336 -298 OFFCURVE",
"312 -290 CURVE",
"298 -356 LINE",
"334 -368 OFFCURVE",
"406 -384 OFFCURVE",
"484 -384 CURVE SMOOTH"
);
}
);
width = 900;
},
{
layerId = "E338D14E-1DA5-418D-88BC-8956EEA80AB9";
paths = (
{
closed = 1;
nodes = (
"1498 -384 OFFCURVE",
"1708 -306 OFFCURVE",
"1708 -14 CURVE SMOOTH",
"1708 1400 LINE",
"1644 1400 LINE",
"1644 102 LINE",
"514 1400 LINE",
"438 1400 LINE",
"438 0 LINE",
"504 0 LINE",
"504 1316 LINE",
"1644 0 LINE",
"1644 -272 OFFCURVE",
"1438 -318 OFFCURVE",
"1262 -318 CURVE SMOOTH",
"1140 -318 OFFCURVE",
"928 -278 OFFCURVE",
"896 -270 CURVE",
"878 -336 LINE",
"926 -348 OFFCURVE",
"1122 -384 OFFCURVE",
"1266 -384 CURVE SMOOTH"
);
}
);
width = 2200;
},
{
layerId = "5D8A6BC1-E275-4777-AF98-AB9B3DC0EDC1";
paths = (
{
closed = 1;
nodes = (
"695 -384 OFFCURVE",
"859 -271 OFFCURVE",
"859 -25 CURVE SMOOTH",
"859 1400 LINE",
"518 1400 LINE",
"518 747 LINE",
"374 1400 LINE",
"41 1400 LINE",
"41 0 LINE",
"382 0 LINE",
"382 734 LINE",
"567 0 LINE",
"567 -66 OFFCURVE",
"558 -112 OFFCURVE",
"479 -112 CURVE SMOOTH",
"419 -112 OFFCURVE",
"364 -105 OFFCURVE",
"335 -91 CURVE",
"266 -363 LINE",
"307 -375 OFFCURVE",
"413 -384 OFFCURVE",
"493 -384 CURVE SMOOTH"
);
}
);
width = 900;
},
{
layerId = "16EBFD8D-F4C1-4BAA-8DD7-EBE82D779ED1";
paths = (
{
closed = 1;
nodes = (
"1558 -384 OFFCURVE",
"1855 -288 OFFCURVE",
"1855 61 CURVE SMOOTH",
"1855 1400 LINE",
"1450 1400 LINE",
"1450 486 LINE",
"923 1400 LINE",
"320 1400 LINE",
"320 0 LINE",
"724 0 LINE",
"724 1031 LINE",
"1346 0 LINE",
"1346 -14 OFFCURVE",
"1310 -60 OFFCURVE",
"1186 -60 CURVE SMOOTH",
"1066 -60 OFFCURVE",
"914 -38 OFFCURVE",
"871 -30 CURVE",
"782 -347 LINE",
"844 -359 OFFCURVE",
"1114 -384 OFFCURVE",
"1268 -384 CURVE SMOOTH"
);
}
);
width = 2200;
}
);
leftKerningGroup = Eng;
widthMetricsKey = N;
rightKerningGroup = Eng;
unicode = 014A;
},
{
glyphname = O;
lastChange = "2020-04-14 01:35:53 +0000";
layers = (
{
anchors = (
{
name = bottom;
position = "{634, 0}";
},
{
name = center;
position = "{642, 700}";
},
{
name = ogonek;
position = "{620, -4}";
},
{
name = top;
position = "{640, 1400}";
},
{
name = topleft;
position = "{40, 1400}";
},
{
name = topright;
position = "{893, 1221}";
}
);
layerId = "5521DC30-183F-421A-91F3-644B5E24AFE6";
paths = (
{
closed = 1;
nodes = (
"940 -22 OFFCURVE",
"1232 146 OFFCURVE",
"1232 696 CURVE SMOOTH",
"1232 1244 OFFCURVE",
"940 1412 OFFCURVE",
"646 1412 CURVE SMOOTH",
"350 1412 OFFCURVE",
"58 1244 OFFCURVE",
"58 696 CURVE SMOOTH",
"58 146 OFFCURVE",
"350 -22 OFFCURVE",
"646 -22 CURVE SMOOTH"
);
},
{
closed = 1;
nodes = (
"532 252 OFFCURVE",
"436 376 OFFCURVE",
"436 696 CURVE SMOOTH",
"436 1014 OFFCURVE",
"532 1138 OFFCURVE",
"646 1138 CURVE SMOOTH",
"758 1138 OFFCURVE",
"854 1014 OFFCURVE",
"854 696 CURVE SMOOTH",
"854 376 OFFCURVE",
"758 252 OFFCURVE",
"646 252 CURVE SMOOTH"
);
}
);
width = 1300;
},
{
anchors = (
{
name = bottom;
position = "{642, 0}";
},
{
name = center;
position = "{650, 700}";
},
{
name = ogonek;
position = "{670, -4}";
},
{
name = top;
position = "{650, 1400}";
},
{
name = topleft;
position = "{90, 1400}";
},
{
name = topright;
position = "{944, 1221}";
}
);
layerId = "BE68D89F-AB3F-4BDF-B332-ED50D7C47704";
paths = (
{
closed = 1;
nodes = (
"882 -22 OFFCURVE",
"1098 140 OFFCURVE",
"1098 696 CURVE SMOOTH",
"1098 1250 OFFCURVE",
"882 1412 OFFCURVE",
"650 1412 CURVE SMOOTH",
"416 1412 OFFCURVE",
"200 1250 OFFCURVE",
"200 696 CURVE SMOOTH",
"200 140 OFFCURVE",
"416 -22 OFFCURVE",
"650 -22 CURVE SMOOTH"
);
},
{
closed = 1;
nodes = (
"444 44 OFFCURVE",
"270 198 OFFCURVE",
"270 696 CURVE SMOOTH",
"270 1192 OFFCURVE",
"444 1346 OFFCURVE",
"650 1346 CURVE SMOOTH",
"854 1346 OFFCURVE",
"1028 1192 OFFCURVE",
"1028 696 CURVE SMOOTH",
"1028 198 OFFCURVE",
"854 44 OFFCURVE",
"650 44 CURVE SMOOTH"
);
}
);
width = 1300;
},
{
anchors = (
{
name = bottom;
position = "{452, 0}";
},
{
name = center;
position = "{452, 696}";
},
{
name = ogonek;
position = "{474, 0}";
},
{
name = top;
position = "{456, 1400}";
},
{
name = topleft;
position = "{116, 1400}";
},
{
name = topright;
position = "{657, 1221}";
}
);
layerId = "2E286313-D5BF-4FB4-A4B7-BD9BC13B574E";
paths = (
{
closed = 1;
nodes = (
"604 -22 OFFCURVE",
"752 100 OFFCURVE",
"752 696 CURVE SMOOTH",
"752 1290 OFFCURVE",
"604 1412 OFFCURVE",
"452 1412 CURVE SMOOTH",
"298 1412 OFFCURVE",
"150 1290 OFFCURVE",
"150 696 CURVE SMOOTH",
"150 100 OFFCURVE",
"298 -22 OFFCURVE",
"452 -22 CURVE SMOOTH"
);
},
{
closed = 1;
nodes = (
"350 44 OFFCURVE",
"218 138 OFFCURVE",
"218 696 CURVE SMOOTH",
"218 1252 OFFCURVE",
"350 1346 OFFCURVE",
"452 1346 CURVE SMOOTH",
"552 1346 OFFCURVE",
"684 1252 OFFCURVE",
"684 696 CURVE SMOOTH",
"684 138 OFFCURVE",
"552 44 OFFCURVE",
"452 44 CURVE SMOOTH"
);
}
);
width = 900;
},
{
anchors = (
{
name = bottom;
position = "{1076, 0}";
},
{
name = center;
position = "{1090, 700}";
},
{
name = ogonek;
position = "{1126, -4}";
},
{
name = top;
position = "{1090, 1400}";
},
{
name = topleft;
position = "{110, 1400}";
},
{
name = topright;
position = "{1705, 1221}";
}
);
layerId = "E338D14E-1DA5-418D-88BC-8956EEA80AB9";
paths = (
{
closed = 1;
nodes = (
"1458 -22 OFFCURVE",
"1946 120 OFFCURVE",
"1946 696 CURVE SMOOTH",
"1946 1270 OFFCURVE",
"1458 1412 OFFCURVE",
"1092 1412 CURVE SMOOTH",
"722 1412 OFFCURVE",
"234 1270 OFFCURVE",
"234 696 CURVE SMOOTH",
"234 120 OFFCURVE",
"722 -22 OFFCURVE",
"1092 -22 CURVE SMOOTH"
);
},
{
closed = 1;
nodes = (
"752 44 OFFCURVE",
"310 178 OFFCURVE",
"310 696 CURVE SMOOTH",
"310 1212 OFFCURVE",
"752 1346 OFFCURVE",
"1092 1346 CURVE SMOOTH",
"1428 1346 OFFCURVE",
"1870 1212 OFFCURVE",
"1870 696 CURVE SMOOTH",
"1870 178 OFFCURVE",
"1428 44 OFFCURVE",
"1092 44 CURVE SMOOTH"
);
}
);
width = 2200;
},
{
anchors = (
{
name = bottom;
position = "{445, 0}";
},
{
name = center;
position = "{451, 696}";
},
{
name = ogonek;
position = "{428, -2}";
},
{
name = top;
position = "{447, 1400}";
},
{
name = topleft;
position = "{68, 1400}";
},
{
name = topright;
position = "{657, 1221}";
}
);
layerId = "5D8A6BC1-E275-4777-AF98-AB9B3DC0EDC1";
paths = (
{
closed = 1;
nodes = (
"664 -22 OFFCURVE",
"843 130 OFFCURVE",
"843 696 CURVE SMOOTH",
"843 1260 OFFCURVE",
"664 1412 OFFCURVE",
"451 1412 CURVE SMOOTH",
"235 1412 OFFCURVE",
"58 1260 OFFCURVE",
"58 696 CURVE SMOOTH",
"58 130 OFFCURVE",
"235 -22 OFFCURVE",
"451 -22 CURVE SMOOTH"
);
},
{
closed = 1;
nodes = (
"418 249 OFFCURVE",
"398 330 OFFCURVE",
"398 696 CURVE SMOOTH",
"398 1060 OFFCURVE",
"418 1141 OFFCURVE",
"451 1141 CURVE SMOOTH",
"481 1141 OFFCURVE",
"503 1060 OFFCURVE",
"503 696 CURVE SMOOTH",
"503 330 OFFCURVE",
"481 249 OFFCURVE",
"451 249 CURVE SMOOTH"
);
}
);
width = 900;
},
{
anchors = (
{
name = bottom;
position = "{1074, 0}";
},
{
name = center;
position = "{1096, 700}";
},
{
name = ogonek;
position = "{1071, -8}";
},
{
name = top;
position = "{1088, 1400}";
},
{
name = topleft;
position = "{50, 1400}";
},
{
name = topright;
position = "{1769, 1221}";
}
);
layerId = "16EBFD8D-F4C1-4BAA-8DD7-EBE82D779ED1";
paths = (
{
closed = 1;
nodes = (
"1533 -22 OFFCURVE",
"2060 153 OFFCURVE",
"2060 696 CURVE SMOOTH",
"2060 1237 OFFCURVE",
"1533 1412 OFFCURVE",
"1099 1412 CURVE SMOOTH",
"662 1412 OFFCURVE",
"132 1236 OFFCURVE",
"132 696 CURVE SMOOTH",
"132 154 OFFCURVE",
"662 -22 OFFCURVE",
"1099 -22 CURVE SMOOTH"
);
},
{
closed = 1;
nodes = (
"855 275 OFFCURVE",
"553 365 OFFCURVE",
"553 696 CURVE SMOOTH",
"553 1025 OFFCURVE",
"855 1115 OFFCURVE",
"1099 1115 CURVE SMOOTH",
"1341 1115 OFFCURVE",
"1639 1025 OFFCURVE",
"1639 696 CURVE SMOOTH",
"1639 365 OFFCURVE",
"1341 275 OFFCURVE",
"1099 275 CURVE SMOOTH"
);
}
);
width = 2200;
}
);
leftKerningGroup = O;
rightKerningGroup = O;
unicode = 004F;
},
{
glyphname = OE;
lastChange = "2020-04-14 01:04:27 +0000";
layers = (
{
components = (
{
alignment = -1;
name = O;
transform = "{1, 0, 0, 1, -24, 0}";
}
);
layerId = "5521DC30-183F-421A-91F3-644B5E24AFE6";
paths = (
{
closed = 1;
nodes = (
"1760 0 LINE",
"1760 270 LINE",
"1206 270 LINE",
"1206 554 LINE",
"1672 554 LINE",
"1672 822 LINE",
"1206 822 LINE",
"1206 1130 LINE",
"1760 1130 LINE",
"1760 1400 LINE",
"832 1400 LINE",
"832 0 LINE"
);
}
);
width = 1800;
},
{
components = (
{
alignment = -1;
name = O;
transform = "{1, 0, 0, 1, -40, 0}";
}
);
layerId = "BE68D89F-AB3F-4BDF-B332-ED50D7C47704";
paths = (
{
closed = 1;
nodes = (
"1686 0 LINE",
"1686 64 LINE",
"1054 64 LINE",
"1054 656 LINE",
"1578 656 LINE",
"1578 720 LINE",
"1054 720 LINE",
"1054 1336 LINE",
"1686 1336 LINE",
"1686 1400 LINE",
"988 1400 LINE",
"988 0 LINE"
);
}
);
width = 1800;
},
{
components = (
{
alignment = -1;
name = O;
transform = "{1, 0, 0, 1, 34, 0}";
}
);
layerId = "2E286313-D5BF-4FB4-A4B7-BD9BC13B574E";
paths = (
{
closed = 1;
nodes = (
"1134 0 LINE",
"1134 64 LINE",
"792 64 LINE",
"792 656 LINE",
"1086 656 LINE",
"1086 720 LINE",
"792 720 LINE",
"792 1336 LINE",
"1134 1336 LINE",
"1134 1400 LINE",
"726 1400 LINE",
"726 0 LINE"
);
}
);
width = 1400;
},
{
components = (
{
alignment = -1;
name = O;
transform = "{1, 0, 0, 1, -188, 0}";
}
);
layerId = "E338D14E-1DA5-418D-88BC-8956EEA80AB9";
paths = (
{
closed = 1;
nodes = (
"2554 0 LINE",
"2554 64 LINE",
"1755 64 LINE",
"1755 656 LINE",
"2484 656 LINE",
"2484 720 LINE",
"1755 720 LINE",
"1755 1336 LINE",
"2554 1336 LINE",
"2554 1400 LINE",
"1685 1400 LINE",
"1685 0 LINE"
);
}
);
width = 2600;
},
{
components = (
{
alignment = -1;
name = O;
transform = "{1, 0, 0, 1, 46, 0}";
}
);
layerId = "5D8A6BC1-E275-4777-AF98-AB9B3DC0EDC1";
paths = (
{
closed = 1;
nodes = (
"1268 0 LINE",
"1268 270 LINE",
"906 270 LINE",
"906 554 LINE",
"1196 554 LINE",
"1196 822 LINE",
"906 822 LINE",
"906 1130 LINE",
"1268 1130 LINE",
"1268 1400 LINE",
"534 1400 LINE",
"534 0 LINE"
);
}
);
width = 1400;
},
{
components = (
{
alignment = -1;
name = O;
transform = "{1, 0, 0, 1, -164, 0}";
}
);
layerId = "16EBFD8D-F4C1-4BAA-8DD7-EBE82D779ED1";
paths = (
{
closed = 1;
nodes = (
"2744 0 LINE",
"2744 270 LINE",
"1886 270 LINE",
"1886 554 LINE",
"2624 554 LINE",
"2624 822 LINE",
"1886 822 LINE",
"1886 1130 LINE",
"2744 1130 LINE",
"2744 1400 LINE",
"1508 1400 LINE",
"1508 0 LINE"
);
}
);
width = 2600;
}
);
leftKerningGroup = O;
rightKerningGroup = E;
unicode = 0152;
},
{
color = 4;
glyphname = OE.ss01;
lastChange = "2020-04-13 20:18:14 +0000";
layers = (
{
anchors = (
{
name = bottom;
position = "{530, 0}";
},
{
name = center;
position = "{496, 700}";
},
{
name = ogonek;
position = "{516, -4}";
},
{
name = top;
position = "{536, 1400}";
},
{
name = topleft;
position = "{-64, 1400}";
},
{
name = topright;
position = "{1056, 1400}";
}
);
layerId = "5521DC30-183F-421A-91F3-644B5E24AFE6";
paths = (
{
closed = 1;
nodes = (
"776 -22 OFFCURVE",
"1028 146 OFFCURVE",
"1028 696 CURVE SMOOTH",
"1028 1244 OFFCURVE",
"786 1420 OFFCURVE",
"522 1420 CURVE SMOOTH",
"266 1420 OFFCURVE",
"14 1244 OFFCURVE",
"14 696 CURVE SMOOTH",
"14 146 OFFCURVE",
"266 -22 OFFCURVE",
"522 -22 CURVE SMOOTH"
);
},
{
closed = 1;
nodes = (
"418 252 OFFCURVE",
"392 376 OFFCURVE",
"392 696 CURVE SMOOTH",
"392 1014 OFFCURVE",
"418 1138 OFFCURVE",
"522 1138 CURVE SMOOTH",
"624 1138 OFFCURVE",
"650 1014 OFFCURVE",
"650 696 CURVE SMOOTH",
"650 376 OFFCURVE",
"624 252 OFFCURVE",
"522 252 CURVE SMOOTH"
);
},
{
closed = 1;
nodes = (
"1260 0 LINE",
"1260 270 LINE",
"1026 270 LINE",
"1026 554 LINE",
"1212 554 LINE",
"1212 822 LINE",
"1026 822 LINE",
"1026 1130 LINE",
"1260 1130 LINE",
"1260 1400 LINE",
"652 1400 LINE",
"652 0 LINE"
);
}
);
width = 1300;
},
{
anchors = (
{
name = bottom;
position = "{432, 0}";
},
{
name = center;
position = "{440, 700}";
},
{
name = ogonek;
position = "{460, -4}";
},
{
name = top;
position = "{440, 1400}";
},
{
name = topleft;
position = "{-120, 1400}";
},
{
name = topright;
position = "{1000, 1400}";
}
);
layerId = "BE68D89F-AB3F-4BDF-B332-ED50D7C47704";
paths = (
{
closed = 1;
nodes = (
"632 -22 OFFCURVE",
"788 140 OFFCURVE",
"788 696 CURVE SMOOTH",
"788 1250 OFFCURVE",
"632 1412 OFFCURVE",
"440 1412 CURVE SMOOTH",
"246 1412 OFFCURVE",
"90 1250 OFFCURVE",
"90 696 CURVE SMOOTH",
"90 140 OFFCURVE",
"246 -22 OFFCURVE",
"440 -22 CURVE SMOOTH"
);
},
{
closed = 1;
nodes = (
"274 44 OFFCURVE",
"160 198 OFFCURVE",
"160 696 CURVE SMOOTH",
"160 1192 OFFCURVE",
"274 1346 OFFCURVE",
"440 1346 CURVE SMOOTH",
"604 1346 OFFCURVE",
"718 1192 OFFCURVE",
"718 696 CURVE SMOOTH",
"718 198 OFFCURVE",
"604 44 OFFCURVE",
"440 44 CURVE SMOOTH"
);
},
{
closed = 1;
nodes = (
"1246 0 LINE",
"1246 64 LINE",
"784 64 LINE",
"784 656 LINE",
"1198 656 LINE",
"1198 720 LINE",
"784 720 LINE",
"784 1336 LINE",
"1246 1336 LINE",
"1246 1400 LINE",
"718 1400 LINE",
"718 0 LINE"
);
}
);
width = 1300;
},
{
anchors = (
{
name = bottom;
position = "{278, 0}";
},
{
name = center;
position = "{300, 700}";
},
{
name = ogonek;
position = "{300, 0}";
},
{
name = top;
position = "{282, 1400}";
},
{
name = topleft;
position = "{-58, 1400}";
},
{
name = topright;
position = "{640, 1400}";
}
);
layerId = "2E286313-D5BF-4FB4-A4B7-BD9BC13B574E";
paths = (
{
closed = 1;
nodes = (
"450 -22 OFFCURVE",
"598 100 OFFCURVE",
"598 696 CURVE SMOOTH",
"598 1290 OFFCURVE",
"450 1412 OFFCURVE",
"318 1412 CURVE SMOOTH",
"184 1412 OFFCURVE",
"56 1290 OFFCURVE",
"56 696 CURVE SMOOTH",
"56 100 OFFCURVE",
"184 -22 OFFCURVE",
"318 -22 CURVE SMOOTH"
);
},
{
closed = 1;
nodes = (
"236 44 OFFCURVE",
"124 138 OFFCURVE",
"124 696 CURVE SMOOTH",
"124 1252 OFFCURVE",
"236 1346 OFFCURVE",
"318 1346 CURVE SMOOTH",
"398 1346 OFFCURVE",
"530 1252 OFFCURVE",
"530 696 CURVE SMOOTH",
"530 138 OFFCURVE",
"398 44 OFFCURVE",
"318 44 CURVE SMOOTH"
);
},
{
closed = 1;
nodes = (
"864 0 LINE",
"864 64 LINE",
"602 64 LINE",
"602 656 LINE",
"856 656 LINE",
"856 720 LINE",
"602 720 LINE",
"602 1336 LINE",
"864 1336 LINE",
"864 1400 LINE",
"536 1400 LINE",
"536 0 LINE"
);
}
);
width = 900;
},
{
anchors = (
{
name = bottom;
position = "{848, 0}";
},
{
name = center;
position = "{862, 700}";
},
{
name = ogonek;
position = "{898, -4}";
},
{
name = top;
position = "{862, 1400}";
},
{
name = topleft;
position = "{-118, 1400}";
},
{
name = topright;
position = "{1842, 1400}";
}
);
layerId = "E338D14E-1DA5-418D-88BC-8956EEA80AB9";
paths = (
{
closed = 1;
nodes = (
"990 -22 OFFCURVE",
"1358 120 OFFCURVE",
"1358 696 CURVE SMOOTH",
"1358 1270 OFFCURVE",
"990 1412 OFFCURVE",
"684 1412 CURVE SMOOTH",
"374 1412 OFFCURVE",
"6 1270 OFFCURVE",
"6 696 CURVE SMOOTH",
"6 120 OFFCURVE",
"374 -22 OFFCURVE",
"684 -22 CURVE SMOOTH"
);
},
{
closed = 1;
nodes = (
"404 44 OFFCURVE",
"82 178 OFFCURVE",
"82 696 CURVE SMOOTH",
"82 1212 OFFCURVE",
"404 1346 OFFCURVE",
"684 1346 CURVE SMOOTH",
"960 1346 OFFCURVE",
"1282 1212 OFFCURVE",
"1282 696 CURVE SMOOTH",
"1282 178 OFFCURVE",
"960 44 OFFCURVE",
"684 44 CURVE SMOOTH"
);
},
{
closed = 1;
nodes = (
"2134 0 LINE",
"2134 64 LINE",
"1364 64 LINE",
"1364 656 LINE",
"2064 656 LINE",
"2064 720 LINE",
"1364 720 LINE",
"1364 1336 LINE",
"2134 1336 LINE",
"2134 1400 LINE",
"1294 1400 LINE",
"1294 0 LINE"
);
}
);
width = 2200;
},
{
anchors = (
{
name = bottom;
position = "{470, 0}";
},
{
name = center;
position = "{446, 700}";
},
{
name = ogonek;
position = "{453, -2}";
},
{
name = top;
position = "{472, 1400}";
},
{
name = topleft;
position = "{93, 1400}";
},
{
name = topright;
position = "{791, 1400}";
}
);
layerId = "5D8A6BC1-E275-4777-AF98-AB9B3DC0EDC1";
paths = (
{
closed = 1;
nodes = (
"567 -22 OFFCURVE",
"740 130 OFFCURVE",
"740 696 CURVE SMOOTH",
"740 1260 OFFCURVE",
"567 1412 OFFCURVE",
"356 1412 CURVE SMOOTH",
"142 1412 OFFCURVE",
"-27 1260 OFFCURVE",
"-27 696 CURVE SMOOTH",
"-27 130 OFFCURVE",
"142 -22 OFFCURVE",
"356 -22 CURVE SMOOTH"
);
},
{
closed = 1;
nodes = (
"329 229 OFFCURVE",
"313 329 OFFCURVE",
"313 696 CURVE SMOOTH",
"313 1061 OFFCURVE",
"329 1161 OFFCURVE",
"356 1161 CURVE SMOOTH",
"381 1161 OFFCURVE",
"401 1055 OFFCURVE",
"401 696 CURVE SMOOTH",
"401 335 OFFCURVE",
"381 229 OFFCURVE",
"356 229 CURVE SMOOTH"
);
},
{
closed = 1;
nodes = (
"895 0 LINE",
"895 247 LINE",
"737 247 LINE",
"737 565 LINE",
"865 565 LINE",
"865 811 LINE",
"737 811 LINE",
"737 1153 LINE",
"895 1153 LINE",
"895 1400 LINE",
"400 1400 LINE",
"400 0 LINE"
);
}
);
width = 901;
},
{
anchors = (
{
name = bottom;
position = "{541, 0}";
},
{
name = center;
position = "{492, 700}";
},
{
name = ogonek;
position = "{537, -8}";
},
{
name = top;
position = "{555, 1400}";
},
{
name = topleft;
position = "{96, 1400}";
},
{
name = topright;
position = "{1481, 1400}";
}
);
layerId = "16EBFD8D-F4C1-4BAA-8DD7-EBE82D779ED1";
paths = (
{
closed = 1;
nodes = (
"1149 -22 OFFCURVE",
"1558 120 OFFCURVE",
"1558 696 CURVE SMOOTH",
"1558 1270 OFFCURVE",
"1149 1412 OFFCURVE",
"831 1412 CURVE SMOOTH",
"510 1412 OFFCURVE",
"97 1270 OFFCURVE",
"97 696 CURVE SMOOTH",
"97 120 OFFCURVE",
"510 -22 OFFCURVE",
"831 -22 CURVE SMOOTH"
);
},
{
closed = 1;
nodes = (
"638 275 OFFCURVE",
"518 387 OFFCURVE",
"518 696 CURVE SMOOTH",
"518 1003 OFFCURVE",
"638 1115 OFFCURVE",
"831 1115 CURVE SMOOTH",
"1022 1115 OFFCURVE",
"1137 1002 OFFCURVE",
"1137 696 CURVE SMOOTH",
"1137 388 OFFCURVE",
"1022 275 OFFCURVE",
"831 275 CURVE SMOOTH"
);
},
{
closed = 1;
nodes = (
"2083 0 LINE",
"2083 293 LINE",
"1560 293 LINE",
"1560 543 LINE",
"2001 543 LINE",
"2001 833 LINE",
"1560 833 LINE",
"1560 1107 LINE",
"2083 1107 LINE",
"2083 1400 LINE",
"1147 1400 LINE",
"1147 0 LINE"
);
}
);
width = 2200;
}
);
leftKerningGroup = O;
rightKerningGroup = E;
},
{
glyphname = P;
lastChange = "2020-04-13 20:41:19 +0000";
layers = (
{
anchors = (
{
name = bottom;
position = "{550, 0}";
},
{
name = top;
position = "{550, 1400}";
}
);
layerId = "5521DC30-183F-421A-91F3-644B5E24AFE6";
paths = (
{
closed = 1;
nodes = (
"530 0 LINE",
"530 462 LINE",
"674 462 LINE SMOOTH",
"842 462 OFFCURVE",
"1206 503 OFFCURVE",
"1206 933 CURVE SMOOTH",
"1206 1363 OFFCURVE",
"842 1400 OFFCURVE",
"674 1400 CURVE SMOOTH",
"154 1400 LINE",
"154 0 LINE"
);
},
{
closed = 1;
nodes = (
"530 1130 LINE",
"650 1130 LINE SMOOTH",
"760 1130 OFFCURVE",
"826 1088 OFFCURVE",
"826 932 CURVE SMOOTH",
"826 776 OFFCURVE",
"760 732 OFFCURVE",
"650 732 CURVE SMOOTH",
"530 732 LINE"
);
}
);
width = 1300;
},
{
anchors = (
{
name = bottom;
position = "{600, 0}";
},
{
name = top;
position = "{600, 1400}";
}
);
layerId = "BE68D89F-AB3F-4BDF-B332-ED50D7C47704";
paths = (
{
closed = 1;
nodes = (
"368 0 LINE",
"368 500 LINE",
"674 500 LINE SMOOTH",
"842 500 OFFCURVE",
"1060 566 OFFCURVE",
"1060 958 CURVE SMOOTH",
"1060 1350 OFFCURVE",
"842 1400 OFFCURVE",
"674 1400 CURVE SMOOTH",
"302 1400 LINE",
"302 0 LINE"
);
},
{
closed = 1;
nodes = (
"368 1336 LINE",
"670 1336 LINE SMOOTH",
"800 1336 OFFCURVE",
"992 1326 OFFCURVE",
"992 958 CURVE SMOOTH",
"992 590 OFFCURVE",
"800 564 OFFCURVE",
"670 564 CURVE SMOOTH",
"368 564 LINE"
);
}
);
width = 1300;
},
{
anchors = (
{
name = bottom;
position = "{224, 0}";
},
{
name = top;
position = "{224, 1400}";
}
);
layerId = "2E286313-D5BF-4FB4-A4B7-BD9BC13B574E";
paths = (
{
closed = 1;
nodes = (
"268 0 LINE",
"268 500 LINE",
"438 500 LINE SMOOTH",
"580 500 OFFCURVE",
"724 556 OFFCURVE",
"724 958 CURVE SMOOTH",
"724 1360 OFFCURVE",
"580 1400 OFFCURVE",
"438 1400 CURVE SMOOTH",
"198 1400 LINE",
"198 0 LINE"
);
},
{
closed = 1;
nodes = (
"268 1336 LINE",
"442 1336 LINE SMOOTH",
"544 1336 OFFCURVE",
"652 1316 OFFCURVE",
"652 958 CURVE SMOOTH",
"652 600 OFFCURVE",
"544 564 OFFCURVE",
"442 564 CURVE SMOOTH",
"268 564 LINE"
);
}
);
width = 900;
},
{
anchors = (
{
name = bottom;
position = "{1030, 0}";
},
{
name = top;
position = "{1030, 1400}";
}
);
layerId = "E338D14E-1DA5-418D-88BC-8956EEA80AB9";
paths = (
{
closed = 1;
nodes = (
"534 0 LINE",
"534 500 LINE",
"1188 500 LINE SMOOTH",
"1512 500 OFFCURVE",
"1832 586 OFFCURVE",
"1832 958 CURVE SMOOTH",
"1832 1330 OFFCURVE",
"1512 1400 OFFCURVE",
"1188 1400 CURVE SMOOTH",
"458 1400 LINE",
"458 0 LINE"
);
},
{
closed = 1;
nodes = (
"534 1336 LINE",
"1182 1336 LINE SMOOTH",
"1480 1336 OFFCURVE",
"1756 1296 OFFCURVE",
"1756 958 CURVE SMOOTH",
"1756 620 OFFCURVE",
"1480 564 OFFCURVE",
"1182 564 CURVE SMOOTH",
"534 564 LINE"
);
}
);
width = 2200;
},
{
anchors = (
{
name = bottom;
position = "{275, 0}";
},
{
name = top;
position = "{275, 1400}";
}
);
layerId = "5D8A6BC1-E275-4777-AF98-AB9B3DC0EDC1";
paths = (
{
closed = 1;
nodes = (
"415 0 LINE",
"415 446 LINE",
"439 446 LINE SMOOTH",
"540 446 OFFCURVE",
"840 483 OFFCURVE",
"840 944 CURVE SMOOTH",
"840 1390 OFFCURVE",
"527 1400 OFFCURVE",
"439 1400 CURVE SMOOTH",
"73 1400 LINE",
"73 0 LINE"
);
},
{
closed = 1;
nodes = (
"415 1133 LINE",
"432 1133 LINE SMOOTH",
"463 1133 OFFCURVE",
"502 1118 OFFCURVE",
"502 924 CURVE SMOOTH",
"502 730 OFFCURVE",
"463 713 OFFCURVE",
"432 713 CURVE SMOOTH",
"415 713 LINE"
);
}
);
width = 900;
},
{
anchors = (
{
name = bottom;
position = "{1106, 0}";
},
{
name = top;
position = "{1106, 1400}";
}
);
layerId = "16EBFD8D-F4C1-4BAA-8DD7-EBE82D779ED1";
paths = (
{
closed = 1;
nodes = (
"757 0 LINE",
"757 458 LINE",
"1150 458 LINE SMOOTH",
"1343 458 OFFCURVE",
"1928 458 OFFCURVE",
"1928 928 CURVE SMOOTH",
"1928 1400 OFFCURVE",
"1341 1400 OFFCURVE",
"1150 1400 CURVE SMOOTH",
"347 1400 LINE",
"347 0 LINE"
);
},
{
closed = 1;
nodes = (
"757 1107 LINE",
"1124 1107 LINE SMOOTH",
"1326 1107 OFFCURVE",
"1496 1080 OFFCURVE",
"1496 928 CURVE SMOOTH",
"1496 775 OFFCURVE",
"1323 751 OFFCURVE",
"1124 751 CURVE SMOOTH",
"757 751 LINE"
);
}
);
width = 2200;
}
);
leftKerningGroup = H;
rightKerningGroup = P;
unicode = 0050;
},
{
glyphname = Thorn;
lastChange = "2020-04-13 15:57:54 +0000";
layers = (
{
anchors = (
{
name = bottom;
position = "{600, 0}";
},
{
name = top;
position = "{600, 1400}";
}
);
layerId = "5521DC30-183F-421A-91F3-644B5E24AFE6";
paths = (
{
closed = 1;
nodes = (
"508 0 LINE",
"508 256 LINE",
"654 256 LINE SMOOTH",
"822 256 OFFCURVE",
"1148 292 OFFCURVE",
"1148 734 CURVE SMOOTH",
"1148 1156 OFFCURVE",
"822 1176 OFFCURVE",
"654 1176 CURVE SMOOTH",
"508 1176 LINE",
"508 1400 LINE",
"134 1400 LINE",
"134 0 LINE"
);
},
{
closed = 1;
nodes = (
"508 906 LINE",
"628 906 LINE SMOOTH",
"708 906 OFFCURVE",
"772 896 OFFCURVE",
"772 734 CURVE SMOOTH",
"772 552 OFFCURVE",
"708 526 OFFCURVE",
"628 526 CURVE SMOOTH",
"508 526 LINE"
);
}
);
width = 1300;
},
{
anchors = (
{
name = bottom;
position = "{600, 0}";
},
{
name = top;
position = "{600, 1400}";
}
);
layerId = "BE68D89F-AB3F-4BDF-B332-ED50D7C47704";
paths = (
{
closed = 1;
nodes = (
"368 0 LINE",
"368 256 LINE",
"604 256 LINE SMOOTH",
"772 256 OFFCURVE",
"1040 292 OFFCURVE",
"1040 734 CURVE SMOOTH",
"1040 1156 OFFCURVE",
"772 1176 OFFCURVE",
"604 1176 CURVE SMOOTH",
"368 1176 LINE",
"368 1400 LINE",
"302 1400 LINE",
"302 0 LINE"
);
},
{
closed = 1;
nodes = (
"368 1112 LINE",
"630 1112 LINE SMOOTH",
"760 1112 OFFCURVE",
"972 1102 OFFCURVE",
"972 734 CURVE SMOOTH",
"972 346 OFFCURVE",
"760 320 OFFCURVE",
"630 320 CURVE SMOOTH",
"368 320 LINE"
);
}
);
width = 1300;
},
{
anchors = (
{
name = bottom;
position = "{428, 0}";
},
{
name = top;
position = "{428, 1400}";
}
);
layerId = "2E286313-D5BF-4FB4-A4B7-BD9BC13B574E";
paths = (
{
closed = 1;
nodes = (
"244 0 LINE",
"244 256 LINE",
"412 256 LINE SMOOTH",
"538 256 OFFCURVE",
"726 292 OFFCURVE",
"726 734 CURVE SMOOTH",
"726 1156 OFFCURVE",
"538 1176 OFFCURVE",
"412 1176 CURVE SMOOTH",
"244 1176 LINE",
"244 1400 LINE",
"174 1400 LINE",
"174 0 LINE"
);
},
{
closed = 1;
nodes = (
"244 1112 LINE",
"430 1112 LINE SMOOTH",
"528 1112 OFFCURVE",
"656 1102 OFFCURVE",
"656 734 CURVE SMOOTH",
"656 346 OFFCURVE",
"528 320 OFFCURVE",
"430 320 CURVE SMOOTH",
"244 320 LINE"
);
}
);
width = 900;
},
{
anchors = (
{
name = bottom;
position = "{1050, 0}";
},
{
name = top;
position = "{1050, 1400}";
}
);
layerId = "E338D14E-1DA5-418D-88BC-8956EEA80AB9";
paths = (
{
closed = 1;
nodes = (
"534 0 LINE",
"534 256 LINE",
"1028 256 LINE SMOOTH",
"1292 256 OFFCURVE",
"1678 292 OFFCURVE",
"1678 734 CURVE SMOOTH",
"1678 1156 OFFCURVE",
"1292 1176 OFFCURVE",
"1028 1176 CURVE SMOOTH",
"534 1176 LINE",
"534 1400 LINE",
"468 1400 LINE",
"468 0 LINE"
);
},
{
closed = 1;
nodes = (
"534 1112 LINE",
"1032 1112 LINE SMOOTH",
"1260 1112 OFFCURVE",
"1602 1102 OFFCURVE",
"1602 734 CURVE SMOOTH",
"1602 346 OFFCURVE",
"1260 320 OFFCURVE",
"1032 320 CURVE SMOOTH",
"534 320 LINE"
);
}
);
width = 2200;
},
{
anchors = (
{
name = bottom;
position = "{419, 0}";
},
{
name = top;
position = "{419, 1400}";
}
);
layerId = "5D8A6BC1-E275-4777-AF98-AB9B3DC0EDC1";
paths = (
{
closed = 1;
nodes = (
"406 0 LINE",
"406 256 LINE",
"442 256 LINE SMOOTH",
"546 256 OFFCURVE",
"838 284 OFFCURVE",
"838 725 CURVE SMOOTH",
"838 1176 OFFCURVE",
"527 1176 OFFCURVE",
"442 1176 CURVE SMOOTH",
"406 1176 LINE",
"406 1400 LINE",
"64 1400 LINE",
"64 0 LINE"
);
},
{
closed = 1;
nodes = (
"406 929 LINE",
"436 929 LINE SMOOTH",
"472 929 OFFCURVE",
"496 920 OFFCURVE",
"496 725 CURVE SMOOTH",
"496 510 OFFCURVE",
"472 503 OFFCURVE",
"436 503 CURVE SMOOTH",
"406 503 LINE"
);
}
);
width = 900;
},
{
anchors = (
{
name = bottom;
position = "{1052, 0}";
},
{
name = top;
position = "{1052, 1400}";
}
);
layerId = "16EBFD8D-F4C1-4BAA-8DD7-EBE82D779ED1";
paths = (
{
closed = 1;
nodes = (
"785 0 LINE",
"785 256 LINE",
"1148 256 LINE SMOOTH",
"1398 256 OFFCURVE",
"1845 280 OFFCURVE",
"1845 734 CURVE SMOOTH",
"1845 1167 OFFCURVE",
"1398 1176 OFFCURVE",
"1148 1176 CURVE SMOOTH",
"785 1176 LINE",
"785 1400 LINE",
"381 1400 LINE",
"381 0 LINE"
);
},
{
closed = 1;
nodes = (
"785 883 LINE",
"1125 883 LINE SMOOTH",
"1309 883 OFFCURVE",
"1435 883 OFFCURVE",
"1435 734 CURVE SMOOTH",
"1435 555 OFFCURVE",
"1294 549 OFFCURVE",
"1125 549 CURVE SMOOTH",
"785 549 LINE"
);
}
);
width = 2200;
}
);
leftKerningGroup = H;
rightKerningGroup = Thorn;
unicode = 00DE;
},
{
glyphname = Q;
lastChange = "2020-04-14 01:04:27 +0000";
layers = (
{
anchors = (
{
name = bottom;
position = "{650, 0}";
},
{
name = top;
position = "{650, 1400}";
}
);
components = (
{
name = O;
}
);
layerId = "5521DC30-183F-421A-91F3-644B5E24AFE6";
paths = (
{
closed = 1;
nodes = (
"1144 -360 LINE",
"1144 -96 LINE",
"764 -96 LINE",
"794 -126 LINE",
"794 0 LINE",
"510 0 LINE",
"510 -360 LINE"
);
}
);
width = 1300;
},
{
anchors = (
{
name = bottom;
position = "{600, 0}";
},
{
name = top;
position = "{600, 1400}";
}
);
components = (
{
name = O;
}
);
layerId = "BE68D89F-AB3F-4BDF-B332-ED50D7C47704";
paths = (
{
closed = 1;
nodes = (
"1032 -298 LINE",
"1032 -234 LINE",
"652 -234 LINE",
"682 -264 LINE",
"682 0 LINE",
"618 0 LINE",
"618 -298 LINE"
);
}
);
width = 1300;
},
{
anchors = (
{
name = bottom;
position = "{600, 0}";
},
{
name = top;
position = "{600, 1400}";
}
);
components = (
{
name = O;
transform = "{1, 0, 0, 1, -2, 0}";
}
);
layerId = "2E286313-D5BF-4FB4-A4B7-BD9BC13B574E";
paths = (
{
closed = 1;
nodes = (
"718 -288 LINE",
"718 -224 LINE",
"454 -224 LINE",
"484 -254 LINE",
"484 0 LINE",
"420 0 LINE",
"420 -288 LINE"
);
}
);
width = 900;
},
{
anchors = (
{
name = bottom;
position = "{1050, 0}";
},
{
name = top;
position = "{1050, 1400}";
}
);
components = (
{
name = O;
}
);
layerId = "E338D14E-1DA5-418D-88BC-8956EEA80AB9";
paths = (
{
closed = 1;
nodes = (
"1932 -298 LINE",
"1932 -234 LINE",
"1092 -234 LINE",
"1122 -264 LINE",
"1122 0 LINE",
"1058 0 LINE",
"1058 -298 LINE"
);
}
);
width = 2200;
},
{
anchors = (
{
name = bottom;
position = "{488, 0}";
},
{
name = top;
position = "{526, 1400}";
}
);
components = (
{
alignment = -1;
name = O;
}
);
layerId = "5D8A6BC1-E275-4777-AF98-AB9B3DC0EDC1";
paths = (
{
closed = 1;
nodes = (
"778 -320 LINE",
"778 -86 LINE",
"556 -86 LINE",
"576 -116 LINE",
"576 40 LINE",
"332 40 LINE",
"332 -320 LINE"
);
}
);
width = 900;
},
{
anchors = (
{
name = bottom;
position = "{1035, 0}";
},
{
name = top;
position = "{898, 1400}";
}
);
components = (
{
alignment = -1;
name = O;
}
);
layerId = "16EBFD8D-F4C1-4BAA-8DD7-EBE82D779ED1";
paths = (
{
closed = 1;
nodes = (
"1923 -390 LINE",
"1923 -116 LINE",
"1207 -116 LINE",
"1257 -126 LINE",
"1257 79 LINE",
"923 79 LINE",
"923 -390 LINE"
);
}
);
width = 2200;
}
);
leftKerningGroup = O;
rightKerningGroup = O;
unicode = 0051;
},
{
glyphname = R;
lastChange = "2020-04-13 20:41:55 +0000";
layers = (
{
anchors = (
{
name = bottom;
position = "{661, 0}";
},
{
name = top;
position = "{653, 1400}";
}
);
layerId = "5521DC30-183F-421A-91F3-644B5E24AFE6";
paths = (
{
closed = 1;
nodes = (
"500 0 LINE",
"500 538 LINE",
"682 538 LINE SMOOTH",
"830 538 OFFCURVE",
"1198 572 OFFCURVE",
"1198 980 CURVE SMOOTH",
"1198 1356 OFFCURVE",
"870 1400 OFFCURVE",
"702 1400 CURVE SMOOTH",
"126 1400 LINE",
"126 0 LINE"
);
},
{
closed = 1;
nodes = (
"1202 0 LINE",
"999 682 LINE",
"653 644 LINE",
"806 0 LINE"
);
},
{
closed = 1;
nodes = (
"500 1130 LINE",
"630 1130 LINE SMOOTH",
"768 1130 OFFCURVE",
"826 1096 OFFCURVE",
"826 969 CURVE SMOOTH",
"826 849 OFFCURVE",
"768 806 OFFCURVE",
"630 806 CURVE SMOOTH",
"500 806 LINE"
);
}
);
width = 1300;
},
{
anchors = (
{
name = bottom;
position = "{600, 0}";
},
{
name = top;
position = "{600, 1400}";
}
);
layerId = "BE68D89F-AB3F-4BDF-B332-ED50D7C47704";
paths = (
{
closed = 1;
nodes = (
"310 0 LINE",
"310 680 LINE",
"686 680 LINE SMOOTH",
"834 680 OFFCURVE",
"1002 750 OFFCURVE",
"1002 1048 CURVE SMOOTH",
"1002 1366 OFFCURVE",
"830 1400 OFFCURVE",
"672 1400 CURVE SMOOTH",
"244 1400 LINE",
"244 0 LINE"
);
},
{
closed = 1;
nodes = (
"968 0 LINE",
"762 714 LINE",
"689 706 LINE",
"895 0 LINE"
);
},
{
closed = 1;
nodes = (
"310 1336 LINE",
"692 1336 LINE SMOOTH",
"822 1336 OFFCURVE",
"934 1276 OFFCURVE",
"934 1048 CURVE SMOOTH",
"934 828 OFFCURVE",
"832 744 OFFCURVE",
"702 744 CURVE SMOOTH",
"310 744 LINE"
);
}
);
width = 1300;
},
{
anchors = (
{
name = bottom;
position = "{450, 0}";
},
{
name = top;
position = "{432, 1400}";
}
);
layerId = "2E286313-D5BF-4FB4-A4B7-BD9BC13B574E";
paths = (
{
closed = 1;
nodes = (
"262 0 LINE",
"262 640 LINE",
"518 640 LINE SMOOTH",
"604 640 OFFCURVE",
"724 754 OFFCURVE",
"724 1028 CURVE SMOOTH",
"724 1306 OFFCURVE",
"626 1400 OFFCURVE",
"458 1400 CURVE SMOOTH",
"196 1400 LINE",
"196 0 LINE"
);
},
{
closed = 1;
nodes = (
"718 0 LINE",
"576 706 LINE",
"522 666 LINE",
"646 0 LINE"
);
},
{
closed = 1;
nodes = (
"262 1336 LINE",
"462 1336 LINE SMOOTH",
"592 1336 OFFCURVE",
"656 1226 OFFCURVE",
"656 1028 CURVE SMOOTH",
"656 828 OFFCURVE",
"598 704 OFFCURVE",
"468 704 CURVE SMOOTH",
"262 704 LINE"
);
}
);
width = 900;
},
{
anchors = (
{
name = bottom;
position = "{1000, 0}";
},
{
name = top;
position = "{1000, 1400}";
}
);
layerId = "E338D14E-1DA5-418D-88BC-8956EEA80AB9";
paths = (
{
closed = 1;
nodes = (
"450 0 LINE",
"450 640 LINE",
"1288 640 LINE SMOOTH",
"1604 640 OFFCURVE",
"1814 760 OFFCURVE",
"1814 1028 CURVE SMOOTH",
"1814 1316 OFFCURVE",
"1600 1400 OFFCURVE",
"1250 1400 CURVE SMOOTH",
"374 1400 LINE",
"374 0 LINE"
);
},
{
closed = 1;
nodes = (
"1821 0 LINE",
"1368 670 LINE",
"1285 666 LINE",
"1733 0 LINE"
);
},
{
closed = 1;
nodes = (
"450 1336 LINE",
"1274 1336 LINE SMOOTH",
"1582 1336 OFFCURVE",
"1738 1256 OFFCURVE",
"1738 1028 CURVE SMOOTH",
"1738 798 OFFCURVE",
"1581 704 OFFCURVE",
"1292 704 CURVE SMOOTH",
"450 704 LINE"
);
}
);
width = 2200;
},
{
anchors = (
{
name = bottom;
position = "{461, 0}";
},
{
name = top;
position = "{449, 1400}";
}
);
layerId = "5D8A6BC1-E275-4777-AF98-AB9B3DC0EDC1";
paths = (
{
closed = 1;
nodes = (
"411 0 LINE",
"411 528 LINE",
"490 528 LINE SMOOTH",
"585 528 OFFCURVE",
"838 614 OFFCURVE",
"838 974 CURVE SMOOTH",
"838 1291 OFFCURVE",
"653 1400 OFFCURVE",
"510 1400 CURVE SMOOTH",
"72 1400 LINE",
"72 0 LINE"
);
},
{
closed = 1;
nodes = (
"848 0 LINE",
"732 697 LINE",
"449 615 LINE",
"510 0 LINE"
);
},
{
closed = 1;
nodes = (
"411 1133 LINE",
"433 1133 LINE SMOOTH",
"468 1133 OFFCURVE",
"498 1086 OFFCURVE",
"498 970 CURVE SMOOTH",
"498 825 OFFCURVE",
"469 789 OFFCURVE",
"433 789 CURVE SMOOTH",
"411 789 LINE"
);
}
);
width = 900;
},
{
anchors = (
{
name = bottom;
position = "{1053, 0}";
},
{
name = top;
position = "{1053, 1400}";
}
);
layerId = "16EBFD8D-F4C1-4BAA-8DD7-EBE82D779ED1";
paths = (
{
closed = 1;
nodes = (
"695 0 LINE",
"695 455 LINE",
"1314 455 LINE SMOOTH",
"1539 455 OFFCURVE",
"1932 510 OFFCURVE",
"1932 949 CURVE SMOOTH",
"1932 1356 OFFCURVE",
"1527 1400 OFFCURVE",
"1319 1400 CURVE SMOOTH",
"287 1400 LINE",
"287 0 LINE"
);
},
{
closed = 1;
nodes = (
"1918 0 LINE",
"1540 652 LINE",
"1090 653 LINE",
"1434 0 LINE"
);
},
{
closed = 1;
nodes = (
"695 1107 LINE",
"1216 1107 LINE SMOOTH",
"1358 1107 OFFCURVE",
"1497 1084 OFFCURVE",
"1497 929 CURVE SMOOTH",
"1497 774 OFFCURVE",
"1347 753 OFFCURVE",
"1214 753 CURVE SMOOTH",
"695 753 LINE"
);
}
);
width = 2200;
}
);
leftKerningGroup = H;
rightKerningGroup = R;
unicode = 0052;
},
{
glyphname = S;
lastChange = "2020-04-30 14:50:16 +0000";
layers = (
{
anchors = (
{
name = bottom;
position = "{628, -2}";
},
{
name = top;
position = "{646, 1400}";
}
);
layerId = "5521DC30-183F-421A-91F3-644B5E24AFE6";
paths = (
{
closed = 1;
nodes = (
"908 -22 OFFCURVE",
"1220 70 OFFCURVE",
"1220 394 CURVE SMOOTH",
"1220 691 OFFCURVE",
"922 793 OFFCURVE",
"710 862 CURVE SMOOTH",
"568 908 OFFCURVE",
"476 959 OFFCURVE",
"476 1027 CURVE SMOOTH",
"476 1102 OFFCURVE",
"558 1132 OFFCURVE",
"654 1132 CURVE SMOOTH",
"758 1132 OFFCURVE",
"823 1068 OFFCURVE",
"856 968 CURVE",
"1196 1118 LINE",
"1148 1287 OFFCURVE",
"930 1412 OFFCURVE",
"658 1412 CURVE SMOOTH",
"392 1412 OFFCURVE",
"86 1312 OFFCURVE",
"86 1026 CURVE SMOOTH",
"86 750 OFFCURVE",
"337 641 OFFCURVE",
"582 556 CURVE SMOOTH",
"732 504 OFFCURVE",
"838 458 OFFCURVE",
"838 380 CURVE SMOOTH",
"838 296 OFFCURVE",
"756 258 OFFCURVE",
"650 258 CURVE SMOOTH",
"534 258 OFFCURVE",
"448 344 OFFCURVE",
"412 446 CURVE",
"56 290 LINE",
"130 90 OFFCURVE",
"374 -22 OFFCURVE",
"640 -22 CURVE SMOOTH"
);
}
);
width = 1300;
},
{
anchors = (
{
name = bottom;
position = "{662, 0}";
},
{
name = top;
position = "{650, 1400}";
}
);
layerId = "BE68D89F-AB3F-4BDF-B332-ED50D7C47704";
paths = (
{
closed = 1;
nodes = (
"932 -22 OFFCURVE",
"1114 122 OFFCURVE",
"1114 370 CURVE SMOOTH",
"1114 616 OFFCURVE",
"904 692 OFFCURVE",
"656 764 CURVE SMOOTH",
"462 820 OFFCURVE",
"296 889 OFFCURVE",
"296 1082 CURVE SMOOTH",
"296 1252 OFFCURVE",
"491 1346 OFFCURVE",
"673 1346 CURVE SMOOTH",
"841 1346 OFFCURVE",
"960 1284 OFFCURVE",
"1022 1154 CURVE",
"1088 1188 LINE",
"1016 1332 OFFCURVE",
"862 1412 OFFCURVE",
"674 1412 CURVE SMOOTH",
"452 1412 OFFCURVE",
"226 1296 OFFCURVE",
"226 1080 CURVE SMOOTH",
"226 860 OFFCURVE",
"393 765 OFFCURVE",
"637 696 CURVE SMOOTH",
"829 642 OFFCURVE",
"1044 569 OFFCURVE",
"1044 366 CURVE SMOOTH",
"1044 172 OFFCURVE",
"898 44 OFFCURVE",
"662 44 CURVE SMOOTH",
"476 44 OFFCURVE",
"336 106 OFFCURVE",
"262 244 CURVE",
"190 208 LINE",
"276 54 OFFCURVE",
"444 -22 OFFCURVE",
"662 -22 CURVE SMOOTH"
);
}
);
width = 1300;
},
{
anchors = (
{
name = bottom;
position = "{448, 0}";
},
{
name = top;
position = "{460, 1400}";
}
);
layerId = "2E286313-D5BF-4FB4-A4B7-BD9BC13B574E";
paths = (
{
closed = 1;
nodes = (
"604 -22 OFFCURVE",
"756 74 OFFCURVE",
"756 290 CURVE SMOOTH",
"756 532 OFFCURVE",
"622 632 OFFCURVE",
"452 754 CURVE SMOOTH",
"301 863 OFFCURVE",
"236 950 OFFCURVE",
"236 1110 CURVE SMOOTH",
"236 1242 OFFCURVE",
"326 1346 OFFCURVE",
"450 1346 CURVE SMOOTH",
"602 1346 OFFCURVE",
"660 1216 OFFCURVE",
"676 1096 CURVE",
"742 1122 LINE",
"722 1256 OFFCURVE",
"626 1412 OFFCURVE",
"450 1412 CURVE SMOOTH",
"284 1412 OFFCURVE",
"168 1274 OFFCURVE",
"168 1106 CURVE SMOOTH",
"168 930 OFFCURVE",
"262 808 OFFCURVE",
"423 692 CURVE SMOOTH",
"609 558 OFFCURVE",
"686 474 OFFCURVE",
"686 286 CURVE SMOOTH",
"686 154 OFFCURVE",
"608 44 OFFCURVE",
"448 44 CURVE SMOOTH",
"296 44 OFFCURVE",
"236 168 OFFCURVE",
"212 262 CURVE",
"144 228 LINE",
"178 118 OFFCURVE",
"268 -22 OFFCURVE",
"448 -22 CURVE SMOOTH"
);
}
);
width = 900;
},
{
anchors = (
{
name = bottom;
position = "{1108, 0}";
},
{
name = top;
position = "{1086, 1400}";
}
);
layerId = "E338D14E-1DA5-418D-88BC-8956EEA80AB9";
paths = (
{
closed = 1;
nodes = (
"1594 -22 OFFCURVE",
"1898 106 OFFCURVE",
"1898 337 CURVE SMOOTH",
"1898 560 OFFCURVE",
"1595 655 OFFCURVE",
"1093 742 CURVE SMOOTH",
"735 804 OFFCURVE",
"462 880 OFFCURVE",
"462 1056 CURVE SMOOTH",
"462 1250 OFFCURVE",
"794 1346 OFFCURVE",
"1130 1346 CURVE SMOOTH",
"1466 1346 OFFCURVE",
"1690 1250 OFFCURVE",
"1798 1176 CURVE",
"1848 1232 LINE",
"1722 1320 OFFCURVE",
"1494 1412 OFFCURVE",
"1130 1412 CURVE SMOOTH",
"706 1412 OFFCURVE",
"382 1285 OFFCURVE",
"382 1058 CURVE SMOOTH",
"382 835 OFFCURVE",
"643 756 OFFCURVE",
"1081 676 CURVE SMOOTH",
"1563 588 OFFCURVE",
"1818 516 OFFCURVE",
"1818 334 CURVE SMOOTH",
"1818 150 OFFCURVE",
"1536 44 OFFCURVE",
"1088 44 CURVE SMOOTH",
"722 44 OFFCURVE",
"458 160 OFFCURVE",
"352 244 CURVE",
"302 188 LINE",
"420 106 OFFCURVE",
"674 -22 OFFCURVE",
"1088 -22 CURVE SMOOTH"
);
}
);
width = 2200;
},
{
anchors = (
{
name = bottom;
position = "{438, -2}";
},
{
name = top;
position = "{467, 1400}";
}
);
layerId = "5D8A6BC1-E275-4777-AF98-AB9B3DC0EDC1";
paths = (
{
closed = 1;
nodes = (
"687 -22 OFFCURVE",
"865 108 OFFCURVE",
"865 346 CURVE SMOOTH",
"865 582 OFFCURVE",
"698 710 OFFCURVE",
"554 820 CURVE SMOOTH",
"441 906 OFFCURVE",
"375 976 OFFCURVE",
"375 1047 CURVE SMOOTH",
"375 1104 OFFCURVE",
"398 1146 OFFCURVE",
"446 1146 CURVE SMOOTH",
"507 1146 OFFCURVE",
"542 1023 OFFCURVE",
"551 938 CURVE",
"855 1066 LINE",
"826 1251 OFFCURVE",
"691 1412 OFFCURVE",
"453 1412 CURVE SMOOTH",
"214 1412 OFFCURVE",
"32 1289 OFFCURVE",
"32 1040 CURVE SMOOTH",
"32 804 OFFCURVE",
"226 644 OFFCURVE",
"348 554 CURVE SMOOTH",
"440 486 OFFCURVE",
"518 407 OFFCURVE",
"518 337 CURVE SMOOTH",
"518 278 OFFCURVE",
"498 244 OFFCURVE",
"454 244 CURVE SMOOTH",
"396 244 OFFCURVE",
"350 369 OFFCURVE",
"342 450 CURVE",
"36 319 LINE",
"68 107 OFFCURVE",
"213 -22 OFFCURVE",
"456 -22 CURVE SMOOTH"
);
}
);
width = 900;
},
{
anchors = (
{
name = bottom;
position = "{1056, -2}";
},
{
name = top;
position = "{1048, 1400}";
}
);
layerId = "16EBFD8D-F4C1-4BAA-8DD7-EBE82D779ED1";
paths = (
{
closed = 1;
nodes = (
"1457 -22 OFFCURVE",
"1989 71 OFFCURVE",
"1989 440 CURVE SMOOTH",
"1989 784 OFFCURVE",
"1501 834 OFFCURVE",
"1152 854 CURVE SMOOTH",
"834 872 OFFCURVE",
"700 915 OFFCURVE",
"700 990 CURVE SMOOTH",
"700 1070 OFFCURVE",
"902 1108 OFFCURVE",
"1114 1108 CURVE SMOOTH",
"1342 1108 OFFCURVE",
"1531 1057 OFFCURVE",
"1630 1020 CURVE",
"1879 1305 LINE",
"1735 1350 OFFCURVE",
"1435 1412 OFFCURVE",
"1146 1412 CURVE SMOOTH",
"736 1412 OFFCURVE",
"255 1317 OFFCURVE",
"255 990 CURVE SMOOTH",
"255 678 OFFCURVE",
"636 568 OFFCURVE",
"1005 549 CURVE SMOOTH",
"1355 531 OFFCURVE",
"1543 491 OFFCURVE",
"1543 410 CURVE SMOOTH",
"1543 328 OFFCURVE",
"1329 282 OFFCURVE",
"1069 282 CURVE SMOOTH",
"791 282 OFFCURVE",
"561 349 OFFCURVE",
"463 400 CURVE",
"206 111 LINE",
"363 52 OFFCURVE",
"697 -22 OFFCURVE",
"1046 -22 CURVE SMOOTH"
);
}
);
width = 2200;
}
);
leftKerningGroup = S;
rightKerningGroup = S;
unicode = 0053;
},
{
glyphname = Germandbls;
lastChange = "2020-04-13 20:50:11 +0000";
layers = (
{
layerId = "BE68D89F-AB3F-4BDF-B332-ED50D7C47704";
paths = (
{
closed = 1;
nodes = (
"878 -22 OFFCURVE",
"1088 120 OFFCURVE",
"1088 418 CURVE SMOOTH",
"1088 744 OFFCURVE",
"842 836 OFFCURVE",
"655 836 CURVE",
"1007 1335 LINE",
"1007 1400 LINE",
"534 1400 LINE",
"318 1400 OFFCURVE",
"210 1282 OFFCURVE",
"210 1054 CURVE SMOOTH",
"210 0 LINE",
"276 0 LINE",
"276 1042 LINE SMOOTH",
"276 1274 OFFCURVE",
"366 1334 OFFCURVE",
"534 1334 CURVE",
"926 1334 LINE",
"573 827 LINE",
"616 774 LINE",
"817 774 OFFCURVE",
"1016 718 OFFCURVE",
"1016 418 CURVE SMOOTH",
"1016 128 OFFCURVE",
"816 44 OFFCURVE",
"656 44 CURVE SMOOTH",
"522 44 OFFCURVE",
"450 66 OFFCURVE",
"414 80 CURVE",
"386 14 LINE",
"436 -4 OFFCURVE",
"518 -22 OFFCURVE",
"656 -22 CURVE SMOOTH"
);
}
);
width = 1300;
},
{
layerId = "5521DC30-183F-421A-91F3-644B5E24AFE6";
paths = (
{
closed = 1;
nodes = (
"958 -22 OFFCURVE",
"1236 83 OFFCURVE",
"1236 431 CURVE SMOOTH",
"1236 694 OFFCURVE",
"1050 796 OFFCURVE",
"911 796 CURVE",
"1166 1135 LINE",
"1166 1400 LINE",
"644 1400 LINE",
"368 1400 OFFCURVE",
"70 1284 OFFCURVE",
"70 928 CURVE SMOOTH",
"70 0 LINE",
"444 0 LINE",
"444 896 LINE SMOOTH",
"444 1045 OFFCURVE",
"520 1120 OFFCURVE",
"618 1120 CURVE",
"784 1120 LINE",
"535 774 LINE",
"693 589 LINE",
"809 589 OFFCURVE",
"888 532 OFFCURVE",
"888 433 CURVE SMOOTH",
"888 335 OFFCURVE",
"816 276 OFFCURVE",
"696 276 CURVE SMOOTH",
"648 276 OFFCURVE",
"594 280 OFFCURVE",
"552 292 CURVE",
"516 0 LINE",
"564 -14 OFFCURVE",
"636 -22 OFFCURVE",
"696 -22 CURVE SMOOTH"
);
}
);
width = 1300;
},
{
layerId = "2E286313-D5BF-4FB4-A4B7-BD9BC13B574E";
paths = (
{
closed = 1;
nodes = (
"642 -22 OFFCURVE",
"778 120 OFFCURVE",
"778 418 CURVE SMOOTH",
"778 744 OFFCURVE",
"632 836 OFFCURVE",
"445 836 CURVE",
"727 1335 LINE",
"727 1400 LINE",
"464 1400 LINE",
"248 1400 OFFCURVE",
"140 1282 OFFCURVE",
"140 1054 CURVE SMOOTH",
"140 0 LINE",
"206 0 LINE",
"206 1042 LINE SMOOTH",
"206 1274 OFFCURVE",
"296 1334 OFFCURVE",
"464 1334 CURVE",
"646 1334 LINE",
"363 827 LINE",
"406 774 LINE",
"607 774 OFFCURVE",
"706 718 OFFCURVE",
"706 418 CURVE SMOOTH",
"706 128 OFFCURVE",
"586 44 OFFCURVE",
"466 44 CURVE SMOOTH",
"382 44 OFFCURVE",
"337 63 OFFCURVE",
"304 80 CURVE",
"276 14 LINE",
"316 -6 OFFCURVE",
"378 -22 OFFCURVE",
"466 -22 CURVE SMOOTH"
);
}
);
width = 900;
},
{
layerId = "5D8A6BC1-E275-4777-AF98-AB9B3DC0EDC1";
paths = (
{
closed = 1;
nodes = (
"686 -13 OFFCURVE",
"880 88 OFFCURVE",
"880 430 CURVE SMOOTH",
"880 700 OFFCURVE",
"743 801 OFFCURVE",
"669 801 CURVE",
"850 1158 LINE",
"850 1400 LINE",
"361 1400 LINE",
"159 1400 OFFCURVE",
"42 1259 OFFCURVE",
"42 1040 CURVE SMOOTH",
"42 0 LINE",
"342 0 LINE",
"342 1001 LINE SMOOTH",
"342 1092 OFFCURVE",
"363 1144 OFFCURVE",
"451 1144 CURVE",
"552 1144 LINE",
"391 782 LINE",
"457 604 LINE",
"533 604 OFFCURVE",
"586 553 OFFCURVE",
"586 431 CURVE SMOOTH",
"586 329 OFFCURVE",
"539 250 OFFCURVE",
"469 250 CURVE SMOOTH",
"434 250 OFFCURVE",
"420 256 OFFCURVE",
"399 268 CURVE",
"396 2 LINE",
"406 -4 OFFCURVE",
"449 -13 OFFCURVE",
"498 -13 CURVE SMOOTH"
);
}
);
width = 900;
},
{
layerId = "E338D14E-1DA5-418D-88BC-8956EEA80AB9";
paths = (
{
closed = 1;
nodes = (
"1391 -22 OFFCURVE",
"1786 100 OFFCURVE",
"1786 418 CURVE SMOOTH",
"1786 764 OFFCURVE",
"1306 838 OFFCURVE",
"914 838 CURVE",
"1629 1335 LINE",
"1629 1400 LINE",
"534 1400 LINE",
"318 1400 OFFCURVE",
"205 1282 OFFCURVE",
"205 1054 CURVE SMOOTH",
"205 0 LINE",
"276 0 LINE",
"276 1042 LINE SMOOTH",
"276 1274 OFFCURVE",
"366 1334 OFFCURVE",
"534 1334 CURVE",
"1508 1334 LINE",
"801 842 LINE",
"854 774 LINE",
"1260 774 OFFCURVE",
"1704 718 OFFCURVE",
"1704 418 CURVE SMOOTH",
"1704 128 OFFCURVE",
"1329 44 OFFCURVE",
"964 44 CURVE SMOOTH",
"693 44 OFFCURVE",
"538 98 OFFCURVE",
"502 112 CURVE",
"472 44 LINE",
"522 26 OFFCURVE",
"689 -22 OFFCURVE",
"964 -22 CURVE SMOOTH"
);
}
);
width = 2200;
},
{
layerId = "16EBFD8D-F4C1-4BAA-8DD7-EBE82D779ED1";
paths = (
{
closed = 1;
nodes = (
"1584 -44 OFFCURVE",
"1937 104 OFFCURVE",
"1937 432 CURVE SMOOTH",
"1937 708 OFFCURVE",
"1641 814 OFFCURVE",
"1355 814 CURVE",
"1782 1113 LINE",
"1782 1400 LINE",
"806 1400 LINE",
"390 1400 OFFCURVE",
"144 1203 OFFCURVE",
"144 789 CURVE SMOOTH",
"144 0 LINE",
"556 0 LINE",
"556 722 LINE SMOOTH",
"556 976 OFFCURVE",
"721 1096 OFFCURVE",
"915 1096 CURVE",
"1239 1096 LINE",
"838 829 LINE",
"1081 582 LINE",
"1286 582 OFFCURVE",
"1512 548 OFFCURVE",
"1512 436 CURVE SMOOTH",
"1512 315 OFFCURVE",
"1386 291 OFFCURVE",
"1169 291 CURVE SMOOTH",
"1102 291 OFFCURVE",
"965 300 OFFCURVE",
"892 323 CURVE",
"753 -5 LINE",
"894 -41 OFFCURVE",
"1109 -44 OFFCURVE",
"1180 -44 CURVE SMOOTH"
);
}
);
width = 2200;
}
);
leftKerningGroup = H;
rightKerningGroup = S;
unicode = 1E9E;
},
{
glyphname = Schwa;
lastChange = "2020-04-13 15:57:54 +0000";
layers = (
{
anchors = (
{
name = bottom;
position = "{460, 400}";
},
{
name = ogonek;
position = "{446, 1400}";
},
{
name = top;
position = "{440, 1400}";
}
);
layerId = "2E286313-D5BF-4FB4-A4B7-BD9BC13B574E";
paths = (
{
closed = 1;
nodes = (
"622 -25 OFFCURVE",
"742 199 OFFCURVE",
"742 715 CURVE SMOOTH",
"742 1227 OFFCURVE",
"620 1412 OFFCURVE",
"452 1412 CURVE SMOOTH",
"288 1412 OFFCURVE",
"212 1248 OFFCURVE",
"192 1196 CURVE",
"254 1162 LINE",
"268 1210 OFFCURVE",
"312 1346 OFFCURVE",
"452 1346 CURVE SMOOTH",
"590 1346 OFFCURVE",
"674 1175 OFFCURVE",
"674 715 CURVE SMOOTH",
"674 251 OFFCURVE",
"580 41 OFFCURVE",
"450 41 CURVE SMOOTH",
"303 41 OFFCURVE",
"245 310 OFFCURVE",
"245 659 CURVE SMOOTH",
"245 665 OFFCURVE",
"245 672 OFFCURVE",
"245 675 CURVE",
"700 675 LINE",
"700 739 LINE",
"180 739 LINE",
"179 715 OFFCURVE",
"178 686 OFFCURVE",
"178 660 CURVE SMOOTH",
"178 247 OFFCURVE",
"272 -25 OFFCURVE",
"446 -25 CURVE SMOOTH"
);
}
);
width = 900;
},
{
anchors = (
{
name = bottom;
position = "{444, 400}";
},
{
name = ogonek;
position = "{432, 1382}";
},
{
name = top;
position = "{415, 1400}";
}
);
layerId = "5D8A6BC1-E275-4777-AF98-AB9B3DC0EDC1";
paths = (
{
closed = 1;
nodes = (
"692 -22 OFFCURVE",
"839 182 OFFCURVE",
"839 699 CURVE SMOOTH",
"839 1216 OFFCURVE",
"674 1413 OFFCURVE",
"439 1413 CURVE SMOOTH",
"232 1413 OFFCURVE",
"133 1293 OFFCURVE",
"99 1200 CURVE",
"356 1060 LINE",
"365 1096 OFFCURVE",
"391 1168 OFFCURVE",
"433 1168 CURVE SMOOTH",
"484 1168 OFFCURVE",
"510 1080 OFFCURVE",
"510 703 CURVE SMOOTH",
"510 315 OFFCURVE",
"490 221 OFFCURVE",
"435 221 CURVE SMOOTH",
"383 221 OFFCURVE",
"367 325 OFFCURVE",
"367 592 CURVE SMOOTH",
"367 596 OFFCURVE",
"367 599 OFFCURVE",
"367 602 CURVE",
"578 602 LINE",
"578 814 LINE",
"77 814 LINE",
"72 793 OFFCURVE",
"67 728 OFFCURVE",
"67 638 CURVE SMOOTH",
"67 160 OFFCURVE",
"225 -22 OFFCURVE",
"434 -22 CURVE SMOOTH"
);
}
);
width = 900;
},
{
anchors = (
{
name = bottom;
position = "{630, 400}";
},
{
name = ogonek;
position = "{610, 1400}";
},
{
name = top;
position = "{630, 1400}";
}
);
layerId = "BE68D89F-AB3F-4BDF-B332-ED50D7C47704";
paths = (
{
closed = 1;
nodes = (
"866 -24 OFFCURVE",
"1100 131 OFFCURVE",
"1100 697 CURVE SMOOTH",
"1100 1259 OFFCURVE",
"871 1412 OFFCURVE",
"646 1412 CURVE SMOOTH",
"408 1412 OFFCURVE",
"276 1258 OFFCURVE",
"240 1176 CURVE",
"310 1138 LINE",
"338 1216 OFFCURVE",
"440 1346 OFFCURVE",
"646 1346 CURVE SMOOTH",
"859 1346 OFFCURVE",
"1026 1187 OFFCURVE",
"1026 697 CURVE SMOOTH",
"1026 183 OFFCURVE",
"838 42 OFFCURVE",
"648 42 CURVE SMOOTH",
"434 42 OFFCURVE",
"301 227 OFFCURVE",
"301 642 CURVE SMOOTH",
"301 654 OFFCURVE",
"301 655 OFFCURVE",
"301 667 CURVE",
"1062 667 LINE",
"1062 731 LINE",
"227 731 LINE",
"225 714 OFFCURVE",
"224 684 OFFCURVE",
"224 666 CURVE SMOOTH",
"224 190 OFFCURVE",
"394 -24 OFFCURVE",
"646 -24 CURVE SMOOTH"
);
}
);
width = 1300;
},
{
anchors = (
{
name = bottom;
position = "{628, 400}";
},
{
name = ogonek;
position = "{608, 1380}";
},
{
name = top;
position = "{606, 1400}";
}
);
layerId = "5521DC30-183F-421A-91F3-644B5E24AFE6";
paths = (
{
closed = 1;
nodes = (
"950 -26 OFFCURVE",
"1170 164 OFFCURVE",
"1170 696 CURVE SMOOTH",
"1170 1230 OFFCURVE",
"938 1412 OFFCURVE",
"646 1412 CURVE SMOOTH",
"424 1412 OFFCURVE",
"252 1326 OFFCURVE",
"164 1180 CURVE",
"456 1030 LINE",
"478 1088 OFFCURVE",
"542 1146 OFFCURVE",
"632 1144 CURVE SMOOTH",
"758 1141 OFFCURVE",
"812 1062 OFFCURVE",
"812 702 CURVE SMOOTH",
"812 326 OFFCURVE",
"754 240 OFFCURVE",
"634 240 CURVE SMOOTH",
"536 240 OFFCURVE",
"474 302 OFFCURVE",
"474 580 CURVE SMOOTH",
"474 581 OFFCURVE",
"474 583 OFFCURVE",
"474 584 CURVE",
"888 584 LINE",
"888 816 LINE",
"138 816 LINE",
"133 775 OFFCURVE",
"130 717 OFFCURVE",
"130 681 CURVE SMOOTH",
"130 136 OFFCURVE",
"355 -26 OFFCURVE",
"646 -26 CURVE SMOOTH"
);
}
);
width = 1300;
},
{
anchors = (
{
name = bottom;
position = "{1084, 400}";
},
{
name = ogonek;
position = "{1050, 1400}";
},
{
name = top;
position = "{1084, 1400}";
}
);
layerId = "E338D14E-1DA5-418D-88BC-8956EEA80AB9";
paths = (
{
closed = 1;
nodes = (
"1486 -20 OFFCURVE",
"1820 148 OFFCURVE",
"1820 692 CURVE SMOOTH",
"1820 1234 OFFCURVE",
"1508 1412 OFFCURVE",
"1092 1412 CURVE SMOOTH",
"730 1412 OFFCURVE",
"498 1260 OFFCURVE",
"418 1156 CURVE",
"480 1102 LINE",
"546 1202 OFFCURVE",
"746 1346 OFFCURVE",
"1092 1346 CURVE SMOOTH",
"1506 1346 OFFCURVE",
"1744 1170 OFFCURVE",
"1744 700 CURVE SMOOTH",
"1744 186 OFFCURVE",
"1454 46 OFFCURVE",
"1088 46 CURVE SMOOTH",
"733 46 OFFCURVE",
"484 235 OFFCURVE",
"484 662 CURVE SMOOTH",
"484 665 OFFCURVE",
"484 667 OFFCURVE",
"484 670 CURVE",
"1756 670 LINE",
"1756 734 LINE",
"402 734 LINE",
"401 724 OFFCURVE",
"401 703 OFFCURVE",
"401 693 CURVE SMOOTH",
"401 194 OFFCURVE",
"693 -20 OFFCURVE",
"1088 -20 CURVE SMOOTH"
);
}
);
width = 2200;
},
{
anchors = (
{
name = bottom;
position = "{1102, 400}";
},
{
name = ogonek;
position = "{1065, 1378}";
},
{
name = top;
position = "{1095, 1400}";
}
);
layerId = "16EBFD8D-F4C1-4BAA-8DD7-EBE82D779ED1";
paths = (
{
closed = 1;
nodes = (
"1545 -28 OFFCURVE",
"1918 125 OFFCURVE",
"1918 686 CURVE SMOOTH",
"1918 1255 OFFCURVE",
"1512 1412 OFFCURVE",
"1150 1412 CURVE SMOOTH",
"918 1412 OFFCURVE",
"621 1370 OFFCURVE",
"418 1194 CURVE",
"769 997 LINE",
"816 1058 OFFCURVE",
"951 1121 OFFCURVE",
"1149 1121 CURVE SMOOTH",
"1433 1121 OFFCURVE",
"1537 1031 OFFCURVE",
"1537 697 CURVE SMOOTH",
"1537 336 OFFCURVE",
"1408 261 OFFCURVE",
"1151 261 CURVE SMOOTH",
"932 261 OFFCURVE",
"787 326 OFFCURVE",
"787 563 CURVE SMOOTH",
"787 566 OFFCURVE",
"787 544 OFFCURVE",
"787 547 CURVE",
"1625 547 LINE",
"1625 802 LINE",
"384 802 LINE",
"383 783 OFFCURVE",
"382 763 OFFCURVE",
"382 741 CURVE SMOOTH",
"382 116 OFFCURVE",
"744 -28 OFFCURVE",
"1150 -28 CURVE SMOOTH"
);
}
);
width = 2200;
}
);
leftKerningGroup = O;
rightKerningGroup = O;
unicode = 018F;
},
{
glyphname = T;
lastChange = "2020-04-13 20:43:35 +0000";
layers = (
{
anchors = (
{
name = bottom;
position = "{648, 0}";
},
{
name = center;
position = "{648, 700}";
},
{
name = top;
position = "{648, 1400}";
}
);
layerId = "5521DC30-183F-421A-91F3-644B5E24AFE6";
paths = (
{
closed = 1;
nodes = (
"832 0 LINE",
"832 1130 LINE",
"1190 1130 LINE",
"1190 1400 LINE",
"102 1400 LINE",
"102 1130 LINE",
"458 1130 LINE",
"458 0 LINE"
);
}
);
width = 1300;
},
{
anchors = (
{
name = bottom;
position = "{621, 0}";
},
{
name = center;
position = "{632, 700}";
},
{
name = top;
position = "{632, 1400}";
}
);
layerId = "BE68D89F-AB3F-4BDF-B332-ED50D7C47704";
paths = (
{
closed = 1;
nodes = (
"662 0 LINE",
"662 1336 LINE",
"1142 1336 LINE",
"1142 1400 LINE",
"118 1400 LINE",
"118 1336 LINE",
"596 1336 LINE",
"596 0 LINE"
);
}
);
width = 1300;
},
{
anchors = (
{
name = bottom;
position = "{444, 0}";
},
{
name = center;
position = "{454, 700}";
},
{
name = top;
position = "{454, 1400}";
}
);
layerId = "2E286313-D5BF-4FB4-A4B7-BD9BC13B574E";
paths = (
{
closed = 1;
nodes = (
"484 0 LINE",
"484 1336 LINE",
"794 1336 LINE",
"794 1400 LINE",
"108 1400 LINE",
"108 1336 LINE",
"418 1336 LINE",
"418 0 LINE"
);
}
);
width = 900;
},
{
anchors = (
{
name = bottom;
position = "{1072, 0}";
},
{
name = center;
position = "{1080, 700}";
},
{
name = top;
position = "{1080, 1400}";
}
);
layerId = "E338D14E-1DA5-418D-88BC-8956EEA80AB9";
paths = (
{
closed = 1;
nodes = (
"1114 0 LINE",
"1114 1336 LINE",
"1934 1336 LINE",
"1934 1400 LINE",
"218 1400 LINE",
"218 1336 LINE",
"1038 1336 LINE",
"1038 0 LINE"
);
}
);
width = 2200;
},
{
anchors = (
{
name = bottom;
position = "{442, 0}";
},
{
name = center;
position = "{452, 700}";
},
{
name = top;
position = "{452, 1400}";
}
);
layerId = "5D8A6BC1-E275-4777-AF98-AB9B3DC0EDC1";
paths = (
{
closed = 1;
nodes = (
"619 0 LINE",
"619 1130 LINE",
"854 1130 LINE",
"854 1400 LINE",
"44 1400 LINE",
"44 1130 LINE",
"279 1130 LINE",
"279 0 LINE"
);
}
);
width = 900;
},
{
anchors = (
{
name = bottom;
position = "{1080, 0}";
},
{
name = center;
position = "{1080, 700}";
},
{
name = top;
position = "{1080, 1400}";
}
);
layerId = "16EBFD8D-F4C1-4BAA-8DD7-EBE82D779ED1";
paths = (
{
closed = 1;
nodes = (
"1279 0 LINE",
"1279 1110 LINE",
"1942 1110 LINE",
"1942 1400 LINE",
"218 1400 LINE",
"218 1110 LINE",
"875 1110 LINE",
"875 0 LINE"
);
}
);
width = 2200;
}
);
leftKerningGroup = T;
rightKerningGroup = T;
unicode = 0054;
},
{
glyphname = U;
lastChange = "2020-04-14 01:37:19 +0000";
layers = (
{
anchors = (
{
name = bottom;
position = "{650, 0}";
},
{
name = ogonek;
position = "{656, 0}";
},
{
name = top;
position = "{650, 1400}";
},
{
name = topright;
position = "{1057, 1221}";
}
);
layerId = "5521DC30-183F-421A-91F3-644B5E24AFE6";
paths = (
{
closed = 1;
nodes = (
"944 -22 OFFCURVE",
"1196 108 OFFCURVE",
"1196 512 CURVE SMOOTH",
"1196 1400 LINE",
"822 1400 LINE",
"822 528 LINE SMOOTH",
"822 326 OFFCURVE",
"764 262 OFFCURVE",
"652 262 CURVE SMOOTH",
"540 262 OFFCURVE",
"480 326 OFFCURVE",
"480 528 CURVE SMOOTH",
"480 1400 LINE",
"106 1400 LINE",
"106 512 LINE SMOOTH",
"106 108 OFFCURVE",
"362 -22 OFFCURVE",
"652 -22 CURVE SMOOTH"
);
}
);
width = 1300;
},
{
anchors = (
{
name = bottom;
position = "{650, 0}";
},
{
name = ogonek;
position = "{756, 0}";
},
{
name = top;
position = "{650, 1400}";
},
{
name = topright;
position = "{1060, 1221}";
}
);
layerId = "BE68D89F-AB3F-4BDF-B332-ED50D7C47704";
paths = (
{
closed = 1;
nodes = (
"906 -22 OFFCURVE",
"1100 154 OFFCURVE",
"1100 568 CURVE SMOOTH",
"1100 1400 LINE",
"1034 1400 LINE",
"1034 572 LINE SMOOTH",
"1034 222 OFFCURVE",
"888 44 OFFCURVE",
"652 44 CURVE SMOOTH",
"418 44 OFFCURVE",
"268 222 OFFCURVE",
"268 572 CURVE SMOOTH",
"268 1400 LINE",
"202 1400 LINE",
"202 568 LINE SMOOTH",
"202 154 OFFCURVE",
"400 -22 OFFCURVE",
"652 -22 CURVE SMOOTH"
);
}
);
width = 1300;
},
{
anchors = (
{
name = bottom;
position = "{450, 0}";
},
{
name = ogonek;
position = "{504, 0}";
},
{
name = top;
position = "{450, 1400}";
},
{
name = topright;
position = "{695, 1221}";
}
);
layerId = "2E286313-D5BF-4FB4-A4B7-BD9BC13B574E";
paths = (
{
closed = 1;
nodes = (
"602 -22 OFFCURVE",
"730 84 OFFCURVE",
"730 412 CURVE SMOOTH",
"730 1400 LINE",
"664 1400 LINE",
"664 416 LINE SMOOTH",
"664 114 OFFCURVE",
"564 44 OFFCURVE",
"450 44 CURVE SMOOTH",
"336 44 OFFCURVE",
"238 114 OFFCURVE",
"238 416 CURVE SMOOTH",
"238 1400 LINE",
"172 1400 LINE",
"172 412 LINE SMOOTH",
"172 84 OFFCURVE",
"298 -22 OFFCURVE",
"450 -22 CURVE SMOOTH"
);
}
);
width = 900;
},
{
anchors = (
{
name = bottom;
position = "{1096, 0}";
},
{
name = ogonek;
position = "{1282, 0}";
},
{
name = top;
position = "{1096, 1400}";
},
{
name = topright;
position = "{1848, 1221}";
}
);
layerId = "E338D14E-1DA5-418D-88BC-8956EEA80AB9";
paths = (
{
closed = 1;
nodes = (
"1540 -22 OFFCURVE",
"1880 144 OFFCURVE",
"1880 598 CURVE SMOOTH",
"1880 1400 LINE",
"1804 1400 LINE",
"1804 572 LINE SMOOTH",
"1804 208 OFFCURVE",
"1512 44 OFFCURVE",
"1100 44 CURVE SMOOTH",
"690 44 OFFCURVE",
"392 208 OFFCURVE",
"392 572 CURVE SMOOTH",
"392 1400 LINE",
"316 1400 LINE",
"316 598 LINE SMOOTH",
"316 144 OFFCURVE",
"664 -22 OFFCURVE",
"1100 -22 CURVE SMOOTH"
);
}
);
width = 2200;
},
{
anchors = (
{
name = bottom;
position = "{450, 0}";
},
{
name = ogonek;
position = "{449, 0}";
},
{
name = top;
position = "{450, 1400}";
},
{
name = topright;
position = "{745, 1221}";
}
);
layerId = "5D8A6BC1-E275-4777-AF98-AB9B3DC0EDC1";
paths = (
{
closed = 1;
nodes = (
"682 -22 OFFCURVE",
"834 109 OFFCURVE",
"834 430 CURVE SMOOTH",
"834 1400 LINE",
"497 1400 LINE",
"497 435 LINE SMOOTH",
"497 322 OFFCURVE",
"488 247 OFFCURVE",
"450 247 CURVE SMOOTH",
"413 247 OFFCURVE",
"405 322 OFFCURVE",
"405 435 CURVE SMOOTH",
"405 1400 LINE",
"67 1400 LINE",
"67 430 LINE SMOOTH",
"67 109 OFFCURVE",
"217 -22 OFFCURVE",
"450 -22 CURVE SMOOTH"
);
}
);
width = 900;
},
{
anchors = (
{
name = bottom;
position = "{1107, 0}";
},
{
name = ogonek;
position = "{1224, 11}";
},
{
name = top;
position = "{1107, 1400}";
},
{
name = topright;
position = "{1900, 1221}";
}
);
layerId = "16EBFD8D-F4C1-4BAA-8DD7-EBE82D779ED1";
paths = (
{
closed = 1;
nodes = (
"1560 -22 OFFCURVE",
"2000 124 OFFCURVE",
"2000 614 CURVE SMOOTH",
"2000 1400 LINE",
"1588 1400 LINE",
"1588 628 LINE SMOOTH",
"1588 359 OFFCURVE",
"1409 287 OFFCURVE",
"1113 287 CURVE SMOOTH",
"817 287 OFFCURVE",
"628 359 OFFCURVE",
"628 628 CURVE SMOOTH",
"628 1400 LINE",
"216 1400 LINE",
"216 614 LINE SMOOTH",
"216 124 OFFCURVE",
"673 -22 OFFCURVE",
"1113 -22 CURVE SMOOTH"
);
}
);
width = 2200;
}
);
leftKerningGroup = U;
rightKerningGroup = U;
unicode = 0055;
},
{
glyphname = V;
lastChange = "2020-04-13 20:43:59 +0000";
layers = (
{
anchors = (
{
name = bottom;
position = "{636, 0}";
},
{
name = top;
position = "{636, 1400}";
}
);
layerId = "5521DC30-183F-421A-91F3-644B5E24AFE6";
paths = (
{
closed = 1;
nodes = (
"962 0 LINE",
"1256 1400 LINE",
"876 1400 LINE",
"672 270 LINE",
"618 270 LINE",
"412 1400 LINE",
"34 1400 LINE",
"326 0 LINE"
);
}
);
width = 1300;
},
{
anchors = (
{
name = bottom;
position = "{624, 0}";
},
{
name = top;
position = "{624, 1400}";
}
);
layerId = "BE68D89F-AB3F-4BDF-B332-ED50D7C47704";
paths = (
{
closed = 1;
nodes = (
"744 0 LINE",
"1058 1400 LINE",
"989 1400 LINE",
"688 64 LINE",
"564 64 LINE",
"263 1400 LINE",
"194 1400 LINE",
"508 0 LINE"
);
}
);
width = 1300;
},
{
anchors = (
{
name = bottom;
position = "{434, 0}";
},
{
name = top;
position = "{434, 1400}";
}
);
layerId = "2E286313-D5BF-4FB4-A4B7-BD9BC13B574E";
paths = (
{
closed = 1;
nodes = (
"499 0 LINE",
"731 1400 LINE",
"664 1400 LINE",
"443 64 LINE",
"439 64 LINE",
"236 1400 LINE",
"169 1400 LINE",
"381 0 LINE"
);
}
);
width = 900;
},
{
anchors = (
{
name = bottom;
position = "{1068, 0}";
},
{
name = top;
position = "{1068, 1400}";
}
);
layerId = "E338D14E-1DA5-418D-88BC-8956EEA80AB9";
paths = (
{
closed = 1;
nodes = (
"1188 0 LINE",
"1822 1400 LINE",
"1738 1400 LINE",
"1134 64 LINE",
"988 64 LINE",
"384 1400 LINE",
"300 1400 LINE",
"934 0 LINE"
);
}
);
width = 2200;
},
{
anchors = (
{
name = bottom;
position = "{432, 0}";
},
{
name = top;
position = "{432, 1400}";
}
);
layerId = "5D8A6BC1-E275-4777-AF98-AB9B3DC0EDC1";
paths = (
{
closed = 1;
nodes = (
"742 0 LINE",
"894 1400 LINE",
"518 1400 LINE",
"450 260 LINE",
"442 260 LINE",
"382 1400 LINE",
"6 1400 LINE",
"150 0 LINE"
);
}
);
width = 900;
},
{
anchors = (
{
name = bottom;
position = "{1044, 0}";
},
{
name = top;
position = "{1044, 1400}";
}
);
layerId = "16EBFD8D-F4C1-4BAA-8DD7-EBE82D779ED1";
paths = (
{
closed = 1;
nodes = (
"1392 0 LINE",
"1980 1400 LINE",
"1552 1400 LINE",
"1101 290 LINE",
"969 290 LINE",
"518 1400 LINE",
"90 1400 LINE",
"678 0 LINE"
);
}
);
width = 2200;
}
);
leftKerningGroup = V;
rightKerningGroup = V;
unicode = 0056;
},
{
glyphname = W;
lastChange = "2020-04-13 20:44:17 +0000";
layers = (
{
anchors = (
{
name = bottom;
position = "{548, 0}";
},
{
name = top;
position = "{888, 1400}";
}
);
layerId = "5521DC30-183F-421A-91F3-644B5E24AFE6";
paths = (
{
closed = 1;
nodes = (
"1510 0 LINE",
"1718 1400 LINE",
"1324 1400 LINE",
"1234 232 LINE",
"1190 0 LINE"
);
},
{
closed = 1;
nodes = (
"568 0 LINE",
"534 232 LINE",
"450 1400 LINE",
"56 1400 LINE",
"262 0 LINE"
);
},
{
closed = 1;
nodes = (
"740 0 LINE",
"902 904 LINE",
"932 1394 LINE",
"730 1394 LINE",
"490 220 LINE",
"544 0 LINE"
);
},
{
closed = 1;
nodes = (
"1214 0 LINE",
"1278 220 LINE",
"1042 1394 LINE",
"842 1394 LINE",
"882 904 LINE",
"1032 0 LINE"
);
}
);
width = 1800;
},
{
anchors = (
{
name = bottom;
position = "{882, 0}";
},
{
name = top;
position = "{882, 1400}";
}
);
layerId = "BE68D89F-AB3F-4BDF-B332-ED50D7C47704";
paths = (
{
closed = 1;
nodes = (
"1338 0 LINE",
"1622 1400 LINE",
"1552 1400 LINE",
"1286 78 LINE",
"1280 0 LINE"
);
},
{
closed = 1;
nodes = (
"496 0 LINE",
"488 78 LINE",
"224 1400 LINE",
"154 1400 LINE",
"438 0 LINE"
);
},
{
closed = 1;
nodes = (
"532 0 LINE",
"884 1298 LINE",
"902 1384 LINE",
"844 1384 LINE",
"488 76 LINE",
"472 0 LINE"
);
},
{
closed = 1;
nodes = (
"1304 0 LINE",
"1288 76 LINE",
"932 1384 LINE",
"874 1384 LINE",
"892 1298 LINE",
"1244 0 LINE"
);
}
);
width = 1800;
},
{
anchors = (
{
name = bottom;
position = "{702, 0}";
},
{
name = top;
position = "{702, 1400}";
}
);
layerId = "2E286313-D5BF-4FB4-A4B7-BD9BC13B574E";
paths = (
{
closed = 1;
nodes = (
"996 0 LINE",
"1208 1400 LINE",
"1140 1400 LINE",
"942 78 LINE",
"938 0 LINE"
);
},
{
closed = 1;
nodes = (
"454 0 LINE",
"448 78 LINE",
"252 1400 LINE",
"184 1400 LINE",
"396 0 LINE"
);
},
{
closed = 1;
nodes = (
"490 0 LINE",
"708 1316 LINE",
"706 1364 LINE",
"654 1364 LINE",
"441 78 LINE",
"438 0 LINE"
);
},
{
closed = 1;
nodes = (
"954 0 LINE",
"951 78 LINE",
"738 1364 LINE",
"686 1364 LINE",
"684 1316 LINE",
"902 0 LINE"
);
}
);
width = 1400;
},
{
anchors = (
{
name = bottom;
position = "{1336, 0}";
},
{
name = top;
position = "{1336, 1400}";
}
);
layerId = "E338D14E-1DA5-418D-88BC-8956EEA80AB9";
paths = (
{
closed = 1;
nodes = (
"1974 0 LINE",
"2408 1400 LINE",
"2322 1400 LINE",
"1914 66 LINE",
"1898 0 LINE"
);
},
{
closed = 1;
nodes = (
"772 0 LINE",
"760 56 LINE",
"350 1400 LINE",
"264 1400 LINE",
"696 0 LINE"
);
},
{
closed = 1;
nodes = (
"816 0 LINE",
"1336 1314 LINE",
"1360 1384 LINE",
"1280 1384 LINE",
"760 56 LINE",
"738 0 LINE"
);
},
{
closed = 1;
nodes = (
"1934 0 LINE",
"1914 66 LINE",
"1394 1384 LINE",
"1316 1384 LINE",
"1340 1314 LINE",
"1858 0 LINE"
);
}
);
width = 2600;
},
{
anchors = (
{
name = bottom;
position = "{356, 0}";
},
{
name = top;
position = "{696, 1400}";
}
);
layerId = "5D8A6BC1-E275-4777-AF98-AB9B3DC0EDC1";
paths = (
{
closed = 1;
nodes = (
"1216 0 LINE",
"1342 1400 LINE",
"952 1400 LINE",
"940 236 LINE",
"900 0 LINE"
);
},
{
closed = 1;
nodes = (
"466 0 LINE",
"436 238 LINE",
"430 1400 LINE",
"40 1400 LINE",
"166 0 LINE"
);
},
{
closed = 1;
nodes = (
"616 0 LINE",
"716 842 LINE",
"730 1318 LINE",
"564 1318 LINE",
"378 228 LINE",
"448 0 LINE"
);
},
{
closed = 1;
nodes = (
"918 0 LINE",
"998 224 LINE",
"816 1318 LINE",
"650 1318 LINE",
"674 842 LINE",
"764 0 LINE"
);
}
);
width = 1400;
},
{
anchors = (
{
name = bottom;
position = "{932, 0}";
},
{
name = top;
position = "{1272, 1400}";
}
);
layerId = "16EBFD8D-F4C1-4BAA-8DD7-EBE82D779ED1";
paths = (
{
closed = 1;
nodes = (
"2194 0 LINE",
"2530 1400 LINE",
"2098 1400 LINE",
"1878 250 LINE",
"1836 0 LINE"
);
},
{
closed = 1;
nodes = (
"732 0 LINE",
"690 250 LINE",
"470 1400 LINE",
"38 1400 LINE",
"374 0 LINE"
);
},
{
closed = 1;
nodes = (
"1008 0 LINE",
"1294 1018 LINE",
"1336 1400 LINE",
"1042 1400 LINE",
"704 254 LINE",
"656 0 LINE"
);
},
{
closed = 1;
nodes = (
"1912 0 LINE",
"1864 254 LINE",
"1526 1400 LINE",
"1232 1400 LINE",
"1274 1018 LINE",
"1560 0 LINE"
);
}
);
width = 2600;
}
);
leftKerningGroup = V;
rightKerningGroup = V;
unicode = 0057;
},
{
glyphname = X;
lastChange = "2020-04-13 20:44:34 +0000";
layers = (
{
anchors = (
{
name = bottom;
position = "{640, 0}";
},
{
name = top;
position = "{640, 1400}";
}
);
layerId = "5521DC30-183F-421A-91F3-644B5E24AFE6";
paths = (
{
closed = 1;
nodes = (
"426 0 LINE",
"603 558 LINE",
"681 558 LINE",
"856 0 LINE",
"1262 0 LINE",
"1006 690 LINE",
"1262 1400 LINE",
"856 1400 LINE",
"695 826 LINE",
"587 826 LINE",
"426 1400 LINE",
"20 1400 LINE",
"276 690 LINE",
"20 0 LINE"
);
}
);
width = 1300;
},
{
anchors = (
{
name = bottom;
position = "{640, 0}";
},
{
name = top;
position = "{640, 1400}";
}
);
layerId = "BE68D89F-AB3F-4BDF-B332-ED50D7C47704";
paths = (
{
closed = 1;
nodes = (
"280 0 LINE",
"597 660 LINE",
"677 660 LINE",
"1014 0 LINE",
"1094 0 LINE",
"738 689 LINE",
"1094 1400 LINE",
"1014 1400 LINE",
"678 724 LINE",
"596 724 LINE",
"280 1400 LINE",
"200 1400 LINE",
"537 689 LINE",
"200 0 LINE"
);
}
);
width = 1300;
},
{
anchors = (
{
name = bottom;
position = "{438, 0}";
},
{
name = top;
position = "{438, 1400}";
}
);
layerId = "2E286313-D5BF-4FB4-A4B7-BD9BC13B574E";
paths = (
{
closed = 1;
nodes = (
"256 0 LINE",
"439 660 LINE",
"461 660 LINE",
"644 0 LINE",
"714 0 LINE",
"522 688 LINE",
"714 1400 LINE",
"644 1400 LINE",
"464 724 LINE",
"436 724 LINE",
"256 1400 LINE",
"186 1400 LINE",
"378 688 LINE",
"186 0 LINE"
);
}
);
width = 900;
},
{
anchors = (
{
name = bottom;
position = "{1050, 0}";
},
{
name = top;
position = "{1050, 1400}";
}
);
layerId = "E338D14E-1DA5-418D-88BC-8956EEA80AB9";
paths = (
{
closed = 1;
nodes = (
"364 0 LINE",
"869 660 LINE",
"1227 660 LINE",
"1734 0 LINE",
"1828 0 LINE",
"1300 690 LINE",
"1828 1400 LINE",
"1734 1400 LINE",
"1234 724 LINE",
"864 724 LINE",
"364 1400 LINE",
"270 1400 LINE",
"798 690 LINE",
"270 0 LINE"
);
}
);
width = 2200;
},
{
anchors = (
{
name = bottom;
position = "{446, 0}";
},
{
name = top;
position = "{446, 1400}";
}
);
layerId = "5D8A6BC1-E275-4777-AF98-AB9B3DC0EDC1";
paths = (
{
closed = 1;
nodes = (
"392 0 LINE",
"447 558 LINE",
"458 558 LINE",
"510 0 LINE",
"898 0 LINE",
"775 684 LINE",
"898 1400 LINE",
"510 1400 LINE",
"457 826 LINE",
"447 826 LINE",
"392 1400 LINE",
"4 1400 LINE",
"129 684 LINE",
"4 0 LINE"
);
}
);
width = 900;
},
{
anchors = (
{
name = bottom;
position = "{1090, 0}";
},
{
name = top;
position = "{1090, 1400}";
}
);
layerId = "16EBFD8D-F4C1-4BAA-8DD7-EBE82D779ED1";
paths = (
{
closed = 1;
nodes = (
"588 0 LINE",
"985 548 LINE",
"1213 548 LINE",
"1608 0 LINE",
"2054 0 LINE",
"1548 690 LINE",
"2054 1400 LINE",
"1608 1400 LINE",
"1227 836 LINE",
"969 836 LINE",
"588 1400 LINE",
"142 1400 LINE",
"648 690 LINE",
"142 0 LINE"
);
}
);
width = 2200;
}
);
leftKerningGroup = X;
rightKerningGroup = X;
unicode = 0058;
},
{
glyphname = Y;
lastChange = "2020-04-13 20:12:28 +0000";
layers = (
{
anchors = (
{
name = bottom;
position = "{638, 0}";
},
{
name = top;
position = "{638, 1400}";
},
{
name = topleft;
position = "{60, 1400}";
}
);
layerId = "5521DC30-183F-421A-91F3-644B5E24AFE6";
paths = (
{
closed = 1;
nodes = (
"828 0 LINE",
"828 524 LINE",
"1238 1400 LINE",
"854 1400 LINE",
"640 854 LINE",
"426 1400 LINE",
"42 1400 LINE",
"454 524 LINE",
"454 0 LINE"
);
}
);
width = 1300;
},
{
anchors = (
{
name = bottom;
position = "{640, 0}";
},
{
name = top;
position = "{640, 1400}";
},
{
name = topleft;
position = "{80, 1400}";
}
);
layerId = "BE68D89F-AB3F-4BDF-B332-ED50D7C47704";
paths = (
{
closed = 1;
nodes = (
"674 0 LINE",
"674 574 LINE",
"1094 1400 LINE",
"1020 1400 LINE",
"641 644 LINE",
"260 1400 LINE",
"186 1400 LINE",
"608 574 LINE",
"608 0 LINE"
);
}
);
width = 1300;
},
{
anchors = (
{
name = bottom;
position = "{451, 0}";
},
{
name = top;
position = "{450, 1400}";
},
{
name = topleft;
position = "{36, 1400}";
}
);
layerId = "2E286313-D5BF-4FB4-A4B7-BD9BC13B574E";
paths = (
{
closed = 1;
nodes = (
"484 0 LINE",
"484 564 LINE",
"740 1400 LINE",
"676 1400 LINE",
"451 664 LINE",
"224 1400 LINE",
"160 1400 LINE",
"418 564 LINE",
"418 0 LINE"
);
}
);
width = 900;
},
{
anchors = (
{
name = bottom;
position = "{1080, 0}";
},
{
name = top;
position = "{1080, 1400}";
},
{
name = topleft;
position = "{100, 1400}";
}
);
layerId = "E338D14E-1DA5-418D-88BC-8956EEA80AB9";
paths = (
{
closed = 1;
nodes = (
"1122 0 LINE",
"1122 576 LINE",
"1824 1400 LINE",
"1730 1400 LINE",
"1082 640 LINE",
"430 1400 LINE",
"336 1400 LINE",
"1042 576 LINE",
"1042 0 LINE"
);
}
);
width = 2200;
},
{
anchors = (
{
name = bottom;
position = "{446, 0}";
},
{
name = top;
position = "{450, 1400}";
},
{
name = topleft;
position = "{72, 1400}";
}
);
layerId = "5D8A6BC1-E275-4777-AF98-AB9B3DC0EDC1";
paths = (
{
closed = 1;
nodes = (
"636 0 LINE",
"636 490 LINE",
"904 1400 LINE",
"530 1400 LINE",
"449 868 LINE",
"370 1400 LINE",
"-4 1400 LINE",
"266 490 LINE",
"266 0 LINE"
);
}
);
width = 900;
},
{
anchors = (
{
name = bottom;
position = "{1092, 0}";
},
{
name = top;
position = "{1090, 1400}";
},
{
name = topleft;
position = "{166, 1400}";
}
);
layerId = "16EBFD8D-F4C1-4BAA-8DD7-EBE82D779ED1";
paths = (
{
closed = 1;
nodes = (
"1292 0 LINE",
"1292 582 LINE",
"1996 1400 LINE",
"1552 1400 LINE",
"1092 844 LINE",
"628 1400 LINE",
"184 1400 LINE",
"890 582 LINE",
"890 0 LINE"
);
}
);
width = 2200;
}
);
leftKerningGroup = Y;
rightKerningGroup = Y;
unicode = 0059;
},
{
glyphname = Z;
lastChange = "2020-04-13 20:44:44 +0000";
layers = (
{
anchors = (
{
name = bottom;
position = "{630, 0}";
},
{
name = top;
position = "{630, 1400}";
}
);
layerId = "5521DC30-183F-421A-91F3-644B5E24AFE6";
paths = (
{
closed = 1;
nodes = (
"1102 0 LINE",
"1102 270 LINE",
"530 270 LINE",
"1082 1130 LINE",
"1082 1400 LINE",
"190 1400 LINE",
"190 1130 LINE",
"722 1130 LINE",
"174 270 LINE",
"174 0 LINE"
);
}
);
width = 1300;
},
{
anchors = (
{
name = bottom;
position = "{620, 0}";
},
{
name = top;
position = "{620, 1400}";
}
);
layerId = "BE68D89F-AB3F-4BDF-B332-ED50D7C47704";
paths = (
{
closed = 1;
nodes = (
"1068 0 LINE",
"1068 64 LINE",
"312 64 LINE",
"1054 1336 LINE",
"1054 1400 LINE",
"250 1400 LINE",
"250 1336 LINE",
"978 1336 LINE",
"234 64 LINE",
"234 0 LINE"
);
}
);
width = 1300;
},
{
anchors = (
{
name = bottom;
position = "{454, 0}";
},
{
name = top;
position = "{454, 1400}";
}
);
layerId = "2E286313-D5BF-4FB4-A4B7-BD9BC13B574E";
paths = (
{
closed = 1;
nodes = (
"702 0 LINE",
"702 64 LINE",
"252 64 LINE",
"688 1336 LINE",
"688 1400 LINE",
"204 1400 LINE",
"204 1336 LINE",
"624 1336 LINE",
"188 64 LINE",
"188 0 LINE"
);
}
);
width = 900;
},
{
anchors = (
{
name = bottom;
position = "{1060, 0}";
},
{
name = top;
position = "{1060, 1400}";
}
);
layerId = "E338D14E-1DA5-418D-88BC-8956EEA80AB9";
paths = (
{
closed = 1;
nodes = (
"1880 0 LINE",
"1880 64 LINE",
"418 64 LINE",
"1848 1336 LINE",
"1848 1400 LINE",
"336 1400 LINE",
"336 1336 LINE",
"1746 1336 LINE",
"308 64 LINE",
"308 0 LINE"
);
}
);
width = 2200;
},
{
anchors = (
{
name = bottom;
position = "{438, 0}";
},
{
name = top;
position = "{438, 1400}";
}
);
layerId = "5D8A6BC1-E275-4777-AF98-AB9B3DC0EDC1";
paths = (
{
closed = 1;
nodes = (
"748 0 LINE",
"748 290 LINE",
"475 290 LINE",
"722 1110 LINE",
"722 1400 LINE",
"146 1400 LINE",
"146 1110 LINE",
"376 1110 LINE",
"134 290 LINE",
"134 0 LINE"
);
}
);
width = 900;
},
{
anchors = (
{
name = bottom;
position = "{1044, 0}";
},
{
name = top;
position = "{1044, 1400}";
}
);
layerId = "16EBFD8D-F4C1-4BAA-8DD7-EBE82D779ED1";
paths = (
{
closed = 1;
nodes = (
"1840 0 LINE",
"1840 290 LINE",
"770 290 LINE",
"1832 1110 LINE",
"1832 1400 LINE",
"308 1400 LINE",
"308 1110 LINE",
"1342 1110 LINE",
"284 290 LINE",
"284 0 LINE"
);
}
);
width = 2200;
}
);
leftKerningGroup = Z;
rightKerningGroup = Z;
unicode = 005A;
},
{
glyphname = a;
lastChange = "2020-04-14 16:34:13 +0000";
layers = (
{
anchors = (
{
name = bottom;
position = "{620, 0}";
},
{
name = ogonek;
position = "{1060, 20}";
},
{
name = top;
position = "{620, 1000}";
}
);
layerId = "5521DC30-183F-421A-91F3-644B5E24AFE6";
paths = (
{
closed = 1;
nodes = (
"680 -22 OFFCURVE",
"797 67 OFFCURVE",
"825 131 CURVE",
"850 0 LINE",
"1258 0 LINE",
"1258 270 LINE",
"1126 270 LINE",
"1126 674 LINE SMOOTH",
"1126 896 OFFCURVE",
"890 1024 OFFCURVE",
"618 1024 CURVE SMOOTH",
"424 1024 OFFCURVE",
"218 976 OFFCURVE",
"140 944 CURVE",
"282 684 LINE",
"344 708 OFFCURVE",
"460 742 OFFCURVE",
"590 742 CURVE SMOOTH",
"694 742 OFFCURVE",
"764 708 OFFCURVE",
"764 642 CURVE SMOOTH",
"764 582 LINE",
"747 610 OFFCURVE",
"662 656 OFFCURVE",
"512 656 CURVE SMOOTH",
"316 656 OFFCURVE",
"100 562 OFFCURVE",
"100 325 CURVE SMOOTH",
"100 103 OFFCURVE",
"274 -22 OFFCURVE",
"490 -22 CURVE SMOOTH"
);
},
{
closed = 1;
nodes = (
"512 246 OFFCURVE",
"464 283 OFFCURVE",
"464 345 CURVE SMOOTH",
"464 407 OFFCURVE",
"514 442 OFFCURVE",
"612 442 CURVE SMOOTH",
"686 442 OFFCURVE",
"750 404 OFFCURVE",
"764 388 CURVE",
"764 306 LINE",
"748 286 OFFCURVE",
"682 246 OFFCURVE",
"608 246 CURVE SMOOTH"
);
}
);
width = 1300;
},
{
anchors = (
{
name = bottom;
position = "{640, 0}";
},
{
name = ogonek;
position = "{1120, 20}";
},
{
name = top;
position = "{640, 1000}";
}
);
layerId = "BE68D89F-AB3F-4BDF-B332-ED50D7C47704";
paths = (
{
closed = 1;
nodes = (
"764 -22 OFFCURVE",
"880 73 OFFCURVE",
"928 127 CURVE",
"928 0 LINE",
"1182 0 LINE",
"1182 64 LINE",
"994 64 LINE",
"994 762 LINE SMOOTH",
"994 944 OFFCURVE",
"810 1024 OFFCURVE",
"632 1024 CURVE SMOOTH",
"454 1024 OFFCURVE",
"320 960 OFFCURVE",
"254 920 CURVE",
"294 860 LINE",
"344 896 OFFCURVE",
"488 960 OFFCURVE",
"618 960 CURVE SMOOTH",
"774 960 OFFCURVE",
"928 904 OFFCURVE",
"928 746 CURVE SMOOTH",
"928 588 LINE",
"876 618 OFFCURVE",
"752 658 OFFCURVE",
"620 658 CURVE SMOOTH",
"344 658 OFFCURVE",
"200 512 OFFCURVE",
"200 322 CURVE SMOOTH",
"200 114 OFFCURVE",
"328 -22 OFFCURVE",
"578 -22 CURVE SMOOTH"
);
},
{
closed = 1;
nodes = (
"366 42 OFFCURVE",
"268 146 OFFCURVE",
"268 322 CURVE SMOOTH",
"268 480 OFFCURVE",
"386 594 OFFCURVE",
"622 594 CURVE SMOOTH",
"728 594 OFFCURVE",
"868 558 OFFCURVE",
"928 524 CURVE",
"928 208 LINE",
"880 154 OFFCURVE",
"766 42 OFFCURVE",
"580 42 CURVE SMOOTH"
);
}
);
width = 1300;
},
{
anchors = (
{
name = bottom;
position = "{426, 0}";
},
{
name = ogonek;
position = "{746, 20}";
},
{
name = top;
position = "{426, 1000}";
}
);
layerId = "2E286313-D5BF-4FB4-A4B7-BD9BC13B574E";
paths = (
{
closed = 1;
nodes = (
"514 -22 OFFCURVE",
"584 66 OFFCURVE",
"596 106 CURVE",
"596 0 LINE",
"808 0 LINE",
"808 64 LINE",
"666 64 LINE",
"666 762 LINE SMOOTH",
"666 944 OFFCURVE",
"558 1024 OFFCURVE",
"424 1024 CURVE SMOOTH",
"292 1024 OFFCURVE",
"206 960 OFFCURVE",
"158 920 CURVE",
"208 866 LINE",
"236 894 OFFCURVE",
"316 960 OFFCURVE",
"414 960 CURVE SMOOTH",
"532 960 OFFCURVE",
"596 904 OFFCURVE",
"596 746 CURVE SMOOTH",
"596 615 LINE",
"572 638 OFFCURVE",
"510 672 OFFCURVE",
"414 672 CURVE SMOOTH",
"240 672 OFFCURVE",
"134 538 OFFCURVE",
"134 340 CURVE SMOOTH",
"134 142 OFFCURVE",
"214 -22 OFFCURVE",
"376 -22 CURVE SMOOTH"
);
},
{
closed = 1;
nodes = (
"256 42 OFFCURVE",
"204 166 OFFCURVE",
"204 340 CURVE SMOOTH",
"204 514 OFFCURVE",
"286 608 OFFCURVE",
"414 608 CURVE SMOOTH",
"502 608 OFFCURVE",
"562 572 OFFCURVE",
"596 546 CURVE",
"596 212 LINE",
"582 174 OFFCURVE",
"522 42 OFFCURVE",
"388 42 CURVE SMOOTH"
);
}
);
width = 900;
},
{
anchors = (
{
name = bottom;
position = "{1048, 0}";
},
{
name = ogonek;
position = "{1870, 20}";
},
{
name = top;
position = "{1048, 1000}";
}
);
layerId = "E338D14E-1DA5-418D-88BC-8956EEA80AB9";
paths = (
{
closed = 1;
nodes = (
"1266 -22 OFFCURVE",
"1502 96 OFFCURVE",
"1584 144 CURVE",
"1584 0 LINE",
"1958 0 LINE",
"1958 64 LINE",
"1656 64 LINE",
"1656 682 LINE SMOOTH",
"1656 964 OFFCURVE",
"1320 1024 OFFCURVE",
"1014 1024 CURVE SMOOTH",
"710 1024 OFFCURVE",
"452 952 OFFCURVE",
"386 924 CURVE",
"424 860 LINE",
"474 888 OFFCURVE",
"764 960 OFFCURVE",
"1006 960 CURVE SMOOTH",
"1274 960 OFFCURVE",
"1584 924 OFFCURVE",
"1584 666 CURVE SMOOTH",
"1584 554 LINE",
"1436 596 OFFCURVE",
"1238 638 OFFCURVE",
"1002 638 CURVE SMOOTH",
"544 638 OFFCURVE",
"336 502 OFFCURVE",
"336 308 CURVE SMOOTH",
"336 104 OFFCURVE",
"522 -22 OFFCURVE",
"896 -22 CURVE SMOOTH"
);
},
{
closed = 1;
nodes = (
"612 42 OFFCURVE",
"408 122 OFFCURVE",
"408 308 CURVE SMOOTH",
"408 466 OFFCURVE",
"592 576 OFFCURVE",
"1000 576 CURVE SMOOTH",
"1230 576 OFFCURVE",
"1466 530 OFFCURVE",
"1584 492 CURVE",
"1584 216 LINE",
"1516 174 OFFCURVE",
"1270 42 OFFCURVE",
"924 42 CURVE SMOOTH"
);
}
);
width = 2200;
},
{
anchors = (
{
name = bottom;
position = "{437, 0}";
},
{
name = ogonek;
position = "{705, 20}";
},
{
name = top;
position = "{437, 1000}";
}
);
layerId = "5D8A6BC1-E275-4777-AF98-AB9B3DC0EDC1";
paths = (
{
closed = 1;
nodes = (
"424 -22 OFFCURVE",
"502 57 OFFCURVE",
"517 119 CURVE",
"559 0 LINE",
"877 0 LINE",
"877 247 LINE",
"794 247 LINE",
"794 703 LINE SMOOTH",
"794 896 OFFCURVE",
"641 1024 OFFCURVE",
"433 1024 CURVE SMOOTH",
"270 1024 OFFCURVE",
"98 977 OFFCURVE",
"48 950 CURVE",
"150 712 LINE",
"165 722 OFFCURVE",
"271 767 OFFCURVE",
"368 767 CURVE SMOOTH",
"443 767 OFFCURVE",
"465 738 OFFCURVE",
"465 684 CURVE SMOOTH",
"465 631 LINE",
"455 642 OFFCURVE",
"412 668 OFFCURVE",
"334 668 CURVE SMOOTH",
"184 668 OFFCURVE",
"40 564 OFFCURVE",
"40 339 CURVE SMOOTH",
"40 125 OFFCURVE",
"150 -22 OFFCURVE",
"303 -22 CURVE SMOOTH"
);
},
{
closed = 1;
nodes = (
"391 214 OFFCURVE",
"373 273 OFFCURVE",
"373 354 CURVE SMOOTH",
"373 433 OFFCURVE",
"394 487 OFFCURVE",
"427 487 CURVE SMOOTH",
"446 487 OFFCURVE",
"459 476 OFFCURVE",
"464 469 CURVE",
"464 297 LINE",
"464 280 OFFCURVE",
"451 214 OFFCURVE",
"424 214 CURVE SMOOTH"
);
}
);
width = 900;
},
{
anchors = (
{
name = bottom;
position = "{1044, 0}";
},
{
name = ogonek;
position = "{1770, 20}";
},
{
name = top;
position = "{1044, 1000}";
}
);
layerId = "16EBFD8D-F4C1-4BAA-8DD7-EBE82D779ED1";
paths = (
{
closed = 1;
nodes = (
"1149 -22 OFFCURVE",
"1343 68 OFFCURVE",
"1375 111 CURVE",
"1375 0 LINE",
"2005 0 LINE",
"2005 293 LINE",
"1790 293 LINE",
"1790 604 LINE SMOOTH",
"1790 926 OFFCURVE",
"1319 1024 OFFCURVE",
"953 1024 CURVE SMOOTH",
"661 1024 OFFCURVE",
"378 984 OFFCURVE",
"246 947 CURVE",
"409 656 LINE",
"465 676 OFFCURVE",
"714 727 OFFCURVE",
"906 727 CURVE SMOOTH",
"1134 727 OFFCURVE",
"1375 661 OFFCURVE",
"1375 555 CURVE SMOOTH",
"1375 541 LINE",
"1340 571 OFFCURVE",
"1144 641 OFFCURVE",
"871 641 CURVE SMOOTH",
"550 641 OFFCURVE",
"135 587 OFFCURVE",
"135 314 CURVE SMOOTH",
"135 43 OFFCURVE",
"458 -22 OFFCURVE",
"833 -22 CURVE SMOOTH"
);
},
{
closed = 1;
nodes = (
"773 254 OFFCURVE",
"567 268 OFFCURVE",
"567 319 CURVE SMOOTH",
"567 370 OFFCURVE",
"777 382 OFFCURVE",
"926 382 CURVE SMOOTH",
"1206 382 OFFCURVE",
"1366 326 OFFCURVE",
"1375 320 CURVE",
"1375 312 LINE",
"1366 305 OFFCURVE",
"1199 254 OFFCURVE",
"895 254 CURVE SMOOTH"
);
}
);
width = 2200;
}
);
leftKerningGroup = a;
rightKerningGroup = n;
unicode = 0061;
},
{
color = 4;
glyphname = a.ss01;
lastChange = "2020-04-13 20:49:01 +0000";
layers = (
{
anchors = (
{
name = bottom;
position = "{640, 0}";
},
{
name = ogonek;
position = "{961, 0}";
},
{
name = top;
position = "{640, 1000}";
}
);
layerId = "5521DC30-183F-421A-91F3-644B5E24AFE6";
paths = (
{
closed = 1;
nodes = (
"1160 0 LINE",
"1160 1000 LINE",
"784 1000 LINE",
"784 182 LINE",
"806 0 LINE"
);
},
{
closed = 1;
nodes = (
"774 -22 OFFCURVE",
"866 232 OFFCURVE",
"866 386 CURVE",
"788 422 LINE",
"786 322 OFFCURVE",
"696 262 OFFCURVE",
"630 262 CURVE SMOOTH",
"534 262 OFFCURVE",
"472 366 OFFCURVE",
"472 502 CURVE SMOOTH",
"472 636 OFFCURVE",
"534 738 OFFCURVE",
"628 738 CURVE SMOOTH",
"696 738 OFFCURVE",
"762 702 OFFCURVE",
"788 602 CURVE",
"868 630 LINE",
"868 774 OFFCURVE",
"758 1022 OFFCURVE",
"494 1022 CURVE SMOOTH",
"280 1022 OFFCURVE",
"88 868 OFFCURVE",
"88 502 CURVE SMOOTH",
"88 136 OFFCURVE",
"280 -22 OFFCURVE",
"514 -22 CURVE SMOOTH"
);
}
);
width = 1300;
},
{
anchors = (
{
name = bottom;
position = "{700, 0}";
},
{
name = ogonek;
position = "{986, 0}";
},
{
name = top;
position = "{700, 1000}";
}
);
layerId = "BE68D89F-AB3F-4BDF-B332-ED50D7C47704";
paths = (
{
closed = 1;
nodes = (
"1024 0 LINE",
"1024 1000 LINE",
"958 1000 LINE",
"958 142 LINE",
"958 0 LINE"
);
},
{
closed = 1;
nodes = (
"858 -22 OFFCURVE",
"992 194 OFFCURVE",
"992 398 CURVE",
"958 400 LINE",
"936 234 OFFCURVE",
"812 44 OFFCURVE",
"628 44 CURVE SMOOTH",
"450 44 OFFCURVE",
"292 178 OFFCURVE",
"292 502 CURVE SMOOTH",
"292 832 OFFCURVE",
"432 956 OFFCURVE",
"610 956 CURVE SMOOTH",
"794 956 OFFCURVE",
"932 780 OFFCURVE",
"958 624 CURVE",
"992 624 LINE",
"992 818 OFFCURVE",
"836 1022 OFFCURVE",
"596 1022 CURVE SMOOTH",
"404 1022 OFFCURVE",
"226 868 OFFCURVE",
"226 502 CURVE SMOOTH",
"226 136 OFFCURVE",
"424 -22 OFFCURVE",
"616 -22 CURVE SMOOTH"
);
}
);
width = 1300;
},
{
anchors = (
{
name = bottom;
position = "{444, 0}";
},
{
name = ogonek;
position = "{706, 0}";
},
{
name = top;
position = "{444, 1000}";
}
);
layerId = "2E286313-D5BF-4FB4-A4B7-BD9BC13B574E";
paths = (
{
closed = 1;
nodes = (
"750 0 LINE",
"750 1000 LINE",
"680 1000 LINE",
"680 142 LINE",
"680 0 LINE"
);
},
{
closed = 1;
nodes = (
"634 -22 OFFCURVE",
"726 198 OFFCURVE",
"726 392 CURVE",
"680 396 LINE",
"664 230 OFFCURVE",
"596 44 OFFCURVE",
"458 44 CURVE SMOOTH",
"342 44 OFFCURVE",
"258 178 OFFCURVE",
"258 502 CURVE SMOOTH",
"258 832 OFFCURVE",
"328 956 OFFCURVE",
"446 956 CURVE SMOOTH",
"584 956 OFFCURVE",
"662 774 OFFCURVE",
"680 628 CURVE",
"726 624 LINE",
"726 818 OFFCURVE",
"622 1022 OFFCURVE",
"434 1022 CURVE SMOOTH",
"290 1022 OFFCURVE",
"188 868 OFFCURVE",
"188 502 CURVE SMOOTH",
"188 136 OFFCURVE",
"306 -22 OFFCURVE",
"450 -22 CURVE SMOOTH"
);
}
);
width = 900;
},
{
anchors = (
{
name = bottom;
position = "{1178, 0}";
},
{
name = ogonek;
position = "{1705, 0}";
},
{
name = top;
position = "{1178, 1000}";
}
);
layerId = "E338D14E-1DA5-418D-88BC-8956EEA80AB9";
paths = (
{
closed = 1;
nodes = (
"1754 0 LINE",
"1754 1000 LINE",
"1678 1000 LINE",
"1678 142 LINE",
"1678 0 LINE"
);
},
{
closed = 1;
nodes = (
"1441 -22 OFFCURVE",
"1723 190 OFFCURVE",
"1723 414 CURVE",
"1679 420 LINE",
"1661 234 OFFCURVE",
"1369 44 OFFCURVE",
"1047 44 CURVE SMOOTH",
"681 44 OFFCURVE",
"427 218 OFFCURVE",
"427 502 CURVE SMOOTH",
"427 786 OFFCURVE",
"651 956 OFFCURVE",
"1017 956 CURVE SMOOTH",
"1339 956 OFFCURVE",
"1655 770 OFFCURVE",
"1679 604 CURVE",
"1723 604 LINE",
"1723 824 OFFCURVE",
"1415 1022 OFFCURVE",
"1009 1022 CURVE SMOOTH",
"613 1022 OFFCURVE",
"351 848 OFFCURVE",
"351 502 CURVE SMOOTH",
"351 156 OFFCURVE",
"649 -22 OFFCURVE",
"1045 -22 CURVE SMOOTH"
);
}
);
width = 2200;
},
{
anchors = (
{
name = bottom;
position = "{387, 0}";
},
{
name = ogonek;
position = "{658, 0}";
},
{
name = top;
position = "{387, 1000}";
}
);
layerId = "5D8A6BC1-E275-4777-AF98-AB9B3DC0EDC1";
paths = (
{
closed = 1;
nodes = (
"848 0 LINE",
"848 1000 LINE",
"510 1000 LINE",
"510 178 LINE",
"529 0 LINE"
);
},
{
closed = 1;
nodes = (
"520 -22 OFFCURVE",
"577 237 OFFCURVE",
"577 396 CURVE",
"513 410 LINE",
"508 300 OFFCURVE",
"482 247 OFFCURVE",
"447 247 CURVE SMOOTH",
"409 247 OFFCURVE",
"391 347 OFFCURVE",
"391 502 CURVE SMOOTH",
"391 657 OFFCURVE",
"408 753 OFFCURVE",
"446 753 CURVE SMOOTH",
"482 753 OFFCURVE",
"508 701 OFFCURVE",
"513 596 CURVE",
"579 628 LINE",
"579 776 OFFCURVE",
"514 1022 OFFCURVE",
"324 1022 CURVE SMOOTH",
"176 1022 OFFCURVE",
"53 867 OFFCURVE",
"53 502 CURVE SMOOTH",
"53 136 OFFCURVE",
"173 -22 OFFCURVE",
"338 -22 CURVE SMOOTH"
);
}
);
width = 900;
},
{
anchors = (
{
name = bottom;
position = "{1256, 0}";
},
{
name = ogonek;
position = "{1579, 0}";
},
{
name = top;
position = "{1256, 1000}";
}
);
layerId = "16EBFD8D-F4C1-4BAA-8DD7-EBE82D779ED1";
paths = (
{
closed = 1;
nodes = (
"1859 0 LINE",
"1859 1000 LINE",
"1440 1000 LINE",
"1440 187 LINE",
"1440 0 LINE"
);
},
{
closed = 1;
nodes = (
"1362 -22 OFFCURVE",
"1623 282 OFFCURVE",
"1623 438 CURVE",
"1451 467 LINE",
"1433 381 OFFCURVE",
"1205 287 OFFCURVE",
"1064 287 CURVE SMOOTH",
"850 287 OFFCURVE",
"724 347 OFFCURVE",
"724 504 CURVE SMOOTH",
"724 661 OFFCURVE",
"839 713 OFFCURVE",
"1054 713 CURVE SMOOTH",
"1200 713 OFFCURVE",
"1376 656 OFFCURVE",
"1451 557 CURVE",
"1615 588 LINE",
"1615 746 OFFCURVE",
"1320 1022 OFFCURVE",
"908 1022 CURVE SMOOTH",
"545 1022 OFFCURVE",
"312 833 OFFCURVE",
"312 505 CURVE SMOOTH",
"312 177 OFFCURVE",
"577 -22 OFFCURVE",
"939 -22 CURVE SMOOTH"
);
}
);
width = 2200;
}
);
leftKerningGroup = a;
rightKerningGroup = n;
},
{
glyphname = ae;
lastChange = "2020-04-13 20:17:53 +0000";
layers = (
{
anchors = (
{
name = bottom;
position = "{898, 0}";
},
{
name = ogonek;
position = "{1020, 20}";
},
{
name = top;
position = "{898, 1000}";
}
);
components = (
{
name = e;
transform = "{1, 0, 0, 1, 589, 0}";
}
);
layerId = "5521DC30-183F-421A-91F3-644B5E24AFE6";
paths = (
{
closed = 1;
nodes = (
"860 -22 OFFCURVE",
"1056 206 OFFCURVE",
"1056 334 CURVE",
"1056 674 LINE SMOOTH",
"1056 896 OFFCURVE",
"860 1024 OFFCURVE",
"588 1024 CURVE SMOOTH",
"394 1024 OFFCURVE",
"198 986 OFFCURVE",
"120 954 CURVE",
"242 684 LINE",
"314 708 OFFCURVE",
"420 742 OFFCURVE",
"550 742 CURVE SMOOTH",
"654 742 OFFCURVE",
"724 688 OFFCURVE",
"724 632 CURVE SMOOTH",
"724 596 LINE",
"708 618 OFFCURVE",
"622 656 OFFCURVE",
"512 656 CURVE SMOOTH",
"286 656 OFFCURVE",
"64 546 OFFCURVE",
"64 322 CURVE SMOOTH",
"64 98 OFFCURVE",
"220 -22 OFFCURVE",
"502 -22 CURVE SMOOTH"
);
},
{
closed = 1;
nodes = (
"486 236 OFFCURVE",
"428 276 OFFCURVE",
"428 334 CURVE SMOOTH",
"428 396 OFFCURVE",
"482 442 OFFCURVE",
"578 442 CURVE SMOOTH",
"638 442 OFFCURVE",
"710 420 OFFCURVE",
"724 404 CURVE",
"724 340 LINE",
"724 292 OFFCURVE",
"646 236 OFFCURVE",
"576 236 CURVE SMOOTH"
);
}
);
width = 1800;
},
{
anchors = (
{
name = bottom;
position = "{902, 0}";
},
{
name = ogonek;
position = "{1042, 20}";
},
{
name = top;
position = "{902, 1000}";
}
);
components = (
{
name = e;
transform = "{1, 0, 0, 1, 650, 0}";
}
);
layerId = "BE68D89F-AB3F-4BDF-B332-ED50D7C47704";
paths = (
{
closed = 1;
nodes = (
"764 -22 OFFCURVE",
"916 174 OFFCURVE",
"916 384 CURVE",
"916 762 LINE SMOOTH",
"916 944 OFFCURVE",
"732 1024 OFFCURVE",
"554 1024 CURVE SMOOTH",
"376 1024 OFFCURVE",
"242 960 OFFCURVE",
"176 920 CURVE",
"216 860 LINE",
"266 896 OFFCURVE",
"410 960 OFFCURVE",
"540 960 CURVE SMOOTH",
"696 960 OFFCURVE",
"850 904 OFFCURVE",
"850 746 CURVE SMOOTH",
"850 568 LINE",
"798 598 OFFCURVE",
"694 638 OFFCURVE",
"562 638 CURVE SMOOTH",
"286 638 OFFCURVE",
"122 508 OFFCURVE",
"122 318 CURVE SMOOTH",
"122 130 OFFCURVE",
"250 -22 OFFCURVE",
"500 -22 CURVE SMOOTH"
);
},
{
closed = 1;
nodes = (
"290 42 OFFCURVE",
"190 154 OFFCURVE",
"190 318 CURVE SMOOTH",
"190 480 OFFCURVE",
"324 574 OFFCURVE",
"564 574 CURVE SMOOTH",
"670 574 OFFCURVE",
"790 536 OFFCURVE",
"850 502 CURVE",
"850 400 LINE",
"850 220 OFFCURVE",
"736 42 OFFCURVE",
"512 42 CURVE SMOOTH"
);
}
);
width = 1800;
},
{
anchors = (
{
name = bottom;
position = "{648, 0}";
},
{
name = ogonek;
position = "{748, 20}";
},
{
name = top;
position = "{648, 1000}";
}
);
components = (
{
name = e;
transform = "{1, 0, 0, 1, 442, 0}";
}
);
layerId = "2E286313-D5BF-4FB4-A4B7-BD9BC13B574E";
paths = (
{
closed = 1;
nodes = (
"532 -22 OFFCURVE",
"668 86 OFFCURVE",
"668 320 CURVE",
"668 762 LINE SMOOTH",
"668 944 OFFCURVE",
"540 1024 OFFCURVE",
"406 1024 CURVE SMOOTH",
"274 1024 OFFCURVE",
"188 960 OFFCURVE",
"140 920 CURVE",
"190 866 LINE",
"218 894 OFFCURVE",
"298 960 OFFCURVE",
"396 960 CURVE SMOOTH",
"514 960 OFFCURVE",
"598 904 OFFCURVE",
"598 746 CURVE SMOOTH",
"598 570 LINE",
"560 592 OFFCURVE",
"498 612 OFFCURVE",
"422 612 CURVE SMOOTH",
"214 612 OFFCURVE",
"116 500 OFFCURVE",
"116 302 CURVE SMOOTH",
"116 118 OFFCURVE",
"208 -22 OFFCURVE",
"374 -22 CURVE SMOOTH"
);
},
{
closed = 1;
nodes = (
"248 42 OFFCURVE",
"186 144 OFFCURVE",
"186 302 CURVE SMOOTH",
"186 472 OFFCURVE",
"264 548 OFFCURVE",
"426 548 CURVE SMOOTH",
"494 548 OFFCURVE",
"558 528 OFFCURVE",
"598 500 CURVE",
"598 310 LINE",
"598 96 OFFCURVE",
"480 42 OFFCURVE",
"384 42 CURVE SMOOTH"
);
}
);
width = 1400;
},
{
anchors = (
{
name = bottom;
position = "{1246, 0}";
},
{
name = ogonek;
position = "{1472, 20}";
},
{
name = top;
position = "{1246, 1000}";
}
);
components = (
{
name = e;
transform = "{1, 0, 0, 1, 806, 0}";
}
);
layerId = "E338D14E-1DA5-418D-88BC-8956EEA80AB9";
paths = (
{
closed = 1;
nodes = (
"1074 -22 OFFCURVE",
"1258 212 OFFCURVE",
"1258 388 CURVE",
"1258 682 LINE SMOOTH",
"1258 931 OFFCURVE",
"1029 1024 OFFCURVE",
"656 1024 CURVE SMOOTH",
"352 1024 OFFCURVE",
"134 946 OFFCURVE",
"68 920 CURVE",
"106 860 LINE",
"156 882 OFFCURVE",
"406 960 OFFCURVE",
"648 960 CURVE SMOOTH",
"916 960 OFFCURVE",
"1186 924 OFFCURVE",
"1186 666 CURVE SMOOTH",
"1186 584 LINE",
"1038 616 OFFCURVE",
"906 638 OFFCURVE",
"670 638 CURVE SMOOTH",
"252 638 OFFCURVE",
"38 500 OFFCURVE",
"38 306 CURVE SMOOTH",
"38 82 OFFCURVE",
"230 -22 OFFCURVE",
"564 -22 CURVE SMOOTH"
);
},
{
closed = 1;
nodes = (
"320 42 OFFCURVE",
"110 100 OFFCURVE",
"110 306 CURVE SMOOTH",
"110 464 OFFCURVE",
"300 573 OFFCURVE",
"668 576 CURVE SMOOTH",
"898 578 OFFCURVE",
"1068 550 OFFCURVE",
"1186 522 CURVE",
"1186 410 LINE",
"1186 220 OFFCURVE",
"958 42 OFFCURVE",
"592 42 CURVE SMOOTH"
);
}
);
width = 2600;
},
{
anchors = (
{
name = bottom;
position = "{712, 0}";
},
{
name = ogonek;
position = "{787, 20}";
},
{
name = top;
position = "{712, 1000}";
}
);
components = (
{
name = e;
transform = "{1, 0, 0, 1, 467, 0}";
}
);
layerId = "5D8A6BC1-E275-4777-AF98-AB9B3DC0EDC1";
paths = (
{
closed = 1;
nodes = (
"675 -22 OFFCURVE",
"858 102 OFFCURVE",
"858 412 CURVE",
"858 703 LINE SMOOTH",
"858 896 OFFCURVE",
"676 1024 OFFCURVE",
"468 1024 CURVE SMOOTH",
"330 1024 OFFCURVE",
"176 986 OFFCURVE",
"110 950 CURVE",
"211 712 LINE",
"227 722 OFFCURVE",
"333 767 OFFCURVE",
"430 767 CURVE SMOOTH",
"498 767 OFFCURVE",
"529 726 OFFCURVE",
"529 675 CURVE SMOOTH",
"529 625 LINE",
"520 633 OFFCURVE",
"476 662 OFFCURVE",
"399 662 CURVE SMOOTH",
"262 662 OFFCURVE",
"111 562 OFFCURVE",
"111 343 CURVE SMOOTH",
"111 125 OFFCURVE",
"216 -22 OFFCURVE",
"442 -22 CURVE SMOOTH"
);
},
{
closed = 1;
nodes = (
"456 214 OFFCURVE",
"438 270 OFFCURVE",
"438 350 CURVE SMOOTH",
"438 430 OFFCURVE",
"458 481 OFFCURVE",
"494 481 CURVE SMOOTH",
"511 481 OFFCURVE",
"523 471 OFFCURVE",
"529 463 CURVE",
"529 271 LINE SMOOTH",
"529 235 OFFCURVE",
"512 214 OFFCURVE",
"489 214 CURVE SMOOTH"
);
}
);
width = 1400;
},
{
anchors = (
{
name = bottom;
position = "{1255, 0}";
},
{
name = ogonek;
position = "{1477, 20}";
},
{
name = top;
position = "{1255, 1000}";
}
);
components = (
{
alignment = -1;
name = e;
transform = "{1, 0, 0, 1, 773, 0}";
}
);
layerId = "16EBFD8D-F4C1-4BAA-8DD7-EBE82D779ED1";
paths = (
{
closed = 1;
nodes = (
"1069 -22 OFFCURVE",
"1434 120 OFFCURVE",
"1434 406 CURVE",
"1434 624 LINE SMOOTH",
"1434 946 OFFCURVE",
"1024 1024 OFFCURVE",
"658 1024 CURVE SMOOTH",
"416 1024 OFFCURVE",
"132 994 OFFCURVE",
"-10 957 CURVE",
"153 646 LINE",
"322 705 OFFCURVE",
"478 727 OFFCURVE",
"670 727 CURVE SMOOTH",
"850 727 OFFCURVE",
"1029 681 OFFCURVE",
"1029 575 CURVE SMOOTH",
"1029 521 LINE",
"994 551 OFFCURVE",
"891 631 OFFCURVE",
"618 631 CURVE SMOOTH",
"377 631 OFFCURVE",
"-38 582 OFFCURVE",
"-38 309 CURVE SMOOTH",
"-38 38 OFFCURVE",
"285 -22 OFFCURVE",
"580 -22 CURVE SMOOTH"
);
},
{
closed = 1;
nodes = (
"530 256 OFFCURVE",
"394 257 OFFCURVE",
"394 308 CURVE SMOOTH",
"394 368 OFFCURVE",
"544 370 OFFCURVE",
"683 370 CURVE SMOOTH",
"993 370 OFFCURVE",
"1009 326 OFFCURVE",
"1009 318 CURVE",
"1009 313 LINE",
"1009 306 OFFCURVE",
"946 256 OFFCURVE",
"642 256 CURVE SMOOTH"
);
}
);
width = 2600;
}
);
leftKerningGroup = a;
rightKerningGroup = e;
unicode = 00E6;
},
{
color = 4;
glyphname = ae.ss01;
lastChange = "2020-04-13 20:18:14 +0000";
layers = (
{
anchors = (
{
name = bottom;
position = "{640, 0}";
},
{
name = top;
position = "{640, 1000}";
}
);
layerId = "5521DC30-183F-421A-91F3-644B5E24AFE6";
paths = (
{
closed = 1;
nodes = (
"1032 -22 OFFCURVE",
"1180 68 OFFCURVE",
"1240 234 CURVE",
"1002 352 LINE",
"990 318 OFFCURVE",
"960 236 OFFCURVE",
"906 236 CURVE SMOOTH",
"864 236 OFFCURVE",
"796 276 OFFCURVE",
"796 502 CURVE SMOOTH",
"796 686 OFFCURVE",
"838 758 OFFCURVE",
"908 758 CURVE SMOOTH",
"984 758 OFFCURVE",
"1002 676 OFFCURVE",
"1002 626 CURVE",
"1252 434 LINE",
"1252 774 OFFCURVE",
"1170 1024 OFFCURVE",
"922 1024 CURVE SMOOTH",
"690 1024 OFFCURVE",
"544 882 OFFCURVE",
"544 488 CURVE SMOOTH",
"544 102 OFFCURVE",
"672 -22 OFFCURVE",
"902 -22 CURVE SMOOTH"
);
},
{
closed = 1;
nodes = (
"591 -22 OFFCURVE",
"676 100 OFFCURVE",
"686 192 CURVE",
"592 332 LINE",
"578 286 OFFCURVE",
"537 226 OFFCURVE",
"446 226 CURVE SMOOTH",
"376 226 OFFCURVE",
"326 256 OFFCURVE",
"326 324 CURVE SMOOTH",
"326 380 OFFCURVE",
"376 434 OFFCURVE",
"464 434 CURVE SMOOTH",
"702 434 LINE",
"702 632 LINE",
"486 632 LINE SMOOTH",
"214 632 OFFCURVE",
"36 534 OFFCURVE",
"36 312 CURVE SMOOTH",
"36 84 OFFCURVE",
"200 -22 OFFCURVE",
"398 -22 CURVE SMOOTH"
);
},
{
closed = 1;
nodes = (
"756 658 LINE SMOOTH",
"752 876 OFFCURVE",
"564 1024 OFFCURVE",
"394 1024 CURVE SMOOTH",
"218 1024 OFFCURVE",
"98 952 OFFCURVE",
"18 864 CURVE",
"202 664 LINE",
"252 712 OFFCURVE",
"322 754 OFFCURVE",
"408 754 CURVE SMOOTH",
"476 754 OFFCURVE",
"538 722 OFFCURVE",
"538 630 CURVE SMOOTH",
"538 442 LINE",
"760 444 LINE"
);
},
{
closed = 1;
nodes = (
"1252 434 LINE",
"1098 626 LINE",
"756 626 LINE",
"756 434 LINE"
);
}
);
width = 1300;
},
{
anchors = (
{
name = bottom;
position = "{640, 0}";
},
{
name = top;
position = "{640, 1000}";
}
);
layerId = "BE68D89F-AB3F-4BDF-B332-ED50D7C47704";
paths = (
{
closed = 1;
nodes = (
"1064 -22 OFFCURVE",
"1136 38 OFFCURVE",
"1198 186 CURVE",
"1136 214 LINE",
"1114 144 OFFCURVE",
"1073 44 OFFCURVE",
"946 44 CURVE SMOOTH",
"742 44 OFFCURVE",
"700 224 OFFCURVE",
"700 502 CURVE SMOOTH",
"700 788 OFFCURVE",
"790 958 OFFCURVE",
"936 958 CURVE SMOOTH",
"1084 958 OFFCURVE",
"1110 740 OFFCURVE",
"1110 562 CURVE",
"1183 498 LINE",
"1183 838 OFFCURVE",
"1118 1024 OFFCURVE",
"936 1024 CURVE SMOOTH",
"782 1024 OFFCURVE",
"630 908 OFFCURVE",
"630 514 CURVE SMOOTH",
"630 128 OFFCURVE",
"722 -22 OFFCURVE",
"942 -22 CURVE SMOOTH"
);
},
{
closed = 1;
nodes = (
"596 -22 OFFCURVE",
"683 82 OFFCURVE",
"700 160 CURVE",
"660 218 LINE",
"646 140 OFFCURVE",
"568 42 OFFCURVE",
"428 42 CURVE SMOOTH",
"284 42 OFFCURVE",
"168 116 OFFCURVE",
"168 286 CURVE SMOOTH",
"168 480 OFFCURVE",
"356 498 OFFCURVE",
"498 498 CURVE SMOOTH",
"638 498 LINE",
"638 562 LINE",
"474 562 LINE SMOOTH",
"280 562 OFFCURVE",
"102 508 OFFCURVE",
"102 286 CURVE SMOOTH",
"102 92 OFFCURVE",
"224 -22 OFFCURVE",
"422 -22 CURVE SMOOTH"
);
},
{
closed = 1;
nodes = (
"690 710 LINE",
"690 894 OFFCURVE",
"598 1024 OFFCURVE",
"426 1024 CURVE SMOOTH",
"282 1024 OFFCURVE",
"188 962 OFFCURVE",
"158 936 CURVE",
"210 876 LINE",
"248 910 OFFCURVE",
"304 958 OFFCURVE",
"426 958 CURVE SMOOTH",
"572 958 OFFCURVE",
"630 800 OFFCURVE",
"630 682 CURVE SMOOTH",
"630 514 LINE",
"696 510 LINE"
);
},
{
closed = 1;
nodes = (
"1183 498 LINE",
"1118 562 LINE",
"692 562 LINE",
"692 498 LINE"
);
}
);
width = 1300;
},
{
anchors = (
{
name = bottom;
position = "{424, 0}";
},
{
name = top;
position = "{424, 1000}";
}
);
layerId = "2E286313-D5BF-4FB4-A4B7-BD9BC13B574E";
paths = (
{
closed = 1;
nodes = (
"742 -22 OFFCURVE",
"832 38 OFFCURVE",
"878 186 CURVE",
"812 214 LINE",
"796 154 OFFCURVE",
"758 44 OFFCURVE",
"654 44 CURVE SMOOTH",
"502 44 OFFCURVE",
"480 224 OFFCURVE",
"480 502 CURVE SMOOTH",
"480 788 OFFCURVE",
"542 958 OFFCURVE",
"666 958 CURVE SMOOTH",
"788 958 OFFCURVE",
"810 740 OFFCURVE",
"810 562 CURVE",
"882 498 LINE",
"882 838 OFFCURVE",
"824 1024 OFFCURVE",
"666 1024 CURVE SMOOTH",
"536 1024 OFFCURVE",
"408 908 OFFCURVE",
"408 514 CURVE SMOOTH",
"408 128 OFFCURVE",
"486 -22 OFFCURVE",
"652 -22 CURVE SMOOTH"
);
},
{
closed = 1;
nodes = (
"392 -22 OFFCURVE",
"465 84 OFFCURVE",
"483 164 CURVE",
"433 230 LINE",
"423 132 OFFCURVE",
"370 42 OFFCURVE",
"266 42 CURVE SMOOTH",
"158 42 OFFCURVE",
"84 116 OFFCURVE",
"84 286 CURVE SMOOTH",
"84 480 OFFCURVE",
"212 498 OFFCURVE",
"318 498 CURVE SMOOTH",
"414 498 LINE",
"414 562 LINE",
"300 562 LINE SMOOTH",
"154 562 OFFCURVE",
"16 508 OFFCURVE",
"16 286 CURVE SMOOTH",
"16 92 OFFCURVE",
"112 -22 OFFCURVE",
"262 -22 CURVE SMOOTH"
);
},
{
closed = 1;
nodes = (
"462 710 LINE",
"462 894 OFFCURVE",
"378 1024 OFFCURVE",
"250 1024 CURVE SMOOTH",
"142 1024 OFFCURVE",
"70 962 OFFCURVE",
"48 936 CURVE",
"88 876 LINE",
"116 910 OFFCURVE",
"158 958 OFFCURVE",
"250 958 CURVE SMOOTH",
"358 958 OFFCURVE",
"408 802 OFFCURVE",
"408 682 CURVE SMOOTH",
"408 514 LINE",
"476 510 LINE"
);
},
{
closed = 1;
nodes = (
"882 498 LINE",
"816 562 LINE",
"474 562 LINE",
"474 498 LINE"
);
}
);
width = 900;
},
{
anchors = (
{
name = bottom;
position = "{1070, 0}";
},
{
name = top;
position = "{1070, 1000}";
}
);
layerId = "E338D14E-1DA5-418D-88BC-8956EEA80AB9";
paths = (
{
closed = 1;
nodes = (
"1780 -22 OFFCURVE",
"1942 38 OFFCURVE",
"2030 186 CURVE",
"1953 214 LINE",
"1915 144 OFFCURVE",
"1816 44 OFFCURVE",
"1574 44 CURVE SMOOTH",
"1218 44 OFFCURVE",
"1124 224 OFFCURVE",
"1124 502 CURVE SMOOTH",
"1124 788 OFFCURVE",
"1266 958 OFFCURVE",
"1556 958 CURVE SMOOTH",
"1886 958 OFFCURVE",
"1976 740 OFFCURVE",
"1976 562 CURVE",
"2056 498 LINE",
"2056 813 OFFCURVE",
"1932 1024 OFFCURVE",
"1556 1024 CURVE SMOOTH",
"1252 1024 OFFCURVE",
"1042 868 OFFCURVE",
"1042 514 CURVE SMOOTH",
"1042 168 OFFCURVE",
"1192 -22 OFFCURVE",
"1568 -22 CURVE SMOOTH"
);
},
{
closed = 1;
nodes = (
"885 -22 OFFCURVE",
"1063 111 OFFCURVE",
"1123 212 CURVE",
"1079 282 LINE",
"1061 185 OFFCURVE",
"882 42 OFFCURVE",
"628 42 CURVE SMOOTH",
"416 42 OFFCURVE",
"208 96 OFFCURVE",
"208 286 CURVE SMOOTH",
"208 480 OFFCURVE",
"482 498 OFFCURVE",
"630 498 CURVE SMOOTH",
"1056 498 LINE",
"1056 562 LINE",
"618 562 LINE SMOOTH",
"398 562 OFFCURVE",
"132 508 OFFCURVE",
"132 286 CURVE SMOOTH",
"132 72 OFFCURVE",
"310 -22 OFFCURVE",
"618 -22 CURVE SMOOTH"
);
},
{
closed = 1;
nodes = (
"1112 600 LINE",
"1108 784 OFFCURVE",
"998 1024 OFFCURVE",
"626 1024 CURVE SMOOTH",
"374 1024 OFFCURVE",
"216 922 OFFCURVE",
"180 896 CURVE",
"232 836 LINE",
"282 870 OFFCURVE",
"412 958 OFFCURVE",
"626 958 CURVE SMOOTH",
"960 958 OFFCURVE",
"1042 700 OFFCURVE",
"1042 582 CURVE SMOOTH",
"1042 514 LINE",
"1116 510 LINE"
);
},
{
closed = 1;
nodes = (
"2056 498 LINE",
"1990 562 LINE",
"1110 562 LINE",
"1110 498 LINE"
);
}
);
width = 2200;
},
{
anchors = (
{
name = bottom;
position = "{450, 0}";
},
{
name = top;
position = "{450, 1000}";
}
);
layerId = "5D8A6BC1-E275-4777-AF98-AB9B3DC0EDC1";
paths = (
{
closed = 1;
nodes = (
"723 -22 OFFCURVE",
"850 66 OFFCURVE",
"890 229 CURVE",
"680 336 LINE",
"675 291 OFFCURVE",
"659 214 OFFCURVE",
"634 214 CURVE SMOOTH",
"604 214 OFFCURVE",
"595 269 OFFCURVE",
"595 502 CURVE SMOOTH",
"595 698 OFFCURVE",
"612 781 OFFCURVE",
"642 781 CURVE SMOOTH",
"669 781 OFFCURVE",
"675 695 OFFCURVE",
"675 619 CURVE",
"903 441 LINE",
"903 831 OFFCURVE",
"851 1024 OFFCURVE",
"652 1024 CURVE SMOOTH",
"490 1024 OFFCURVE",
"365 896 OFFCURVE",
"365 491 CURVE SMOOTH",
"365 96 OFFCURVE",
"472 -22 OFFCURVE",
"632 -22 CURVE SMOOTH"
);
},
{
closed = 1;
nodes = (
"412 -22 OFFCURVE",
"475 85 OFFCURVE",
"489 166 CURVE",
"395 305 LINE",
"394 234 OFFCURVE",
"373 205 OFFCURVE",
"338 205 CURVE SMOOTH",
"305 205 OFFCURVE",
"283 246 OFFCURVE",
"283 320 CURVE SMOOTH",
"283 401 OFFCURVE",
"309 441 OFFCURVE",
"375 441 CURVE SMOOTH",
"504 441 LINE",
"504 624 LINE",
"394 624 LINE SMOOTH",
"163 624 OFFCURVE",
"19 531 OFFCURVE",
"19 309 CURVE SMOOTH",
"19 90 OFFCURVE",
"151 -22 OFFCURVE",
"288 -22 CURVE SMOOTH"
);
},
{
closed = 1;
nodes = (
"562 690 LINE SMOOTH",
"561 905 OFFCURVE",
"404 1024 OFFCURVE",
"287 1024 CURVE SMOOTH",
"158 1024 OFFCURVE",
"68 962 OFFCURVE",
"-2 881 CURVE",
"162 699 LINE",
"203 743 OFFCURVE",
"244 777 OFFCURVE",
"298 777 CURVE SMOOTH",
"329 777 OFFCURVE",
"362 735 OFFCURVE",
"362 661 CURVE SMOOTH",
"362 450 LINE",
"563 451 LINE"
);
},
{
closed = 1;
nodes = (
"903 441 LINE",
"759 619 LINE",
"561 619 LINE",
"561 441 LINE"
);
}
);
width = 900;
},
{
anchors = (
{
name = bottom;
position = "{1006, 0}";
},
{
name = top;
position = "{1006, 1000}";
}
);
layerId = "16EBFD8D-F4C1-4BAA-8DD7-EBE82D779ED1";
paths = (
{
closed = 1;
nodes = (
"1642 -22 OFFCURVE",
"1824 71 OFFCURVE",
"1926 239 CURVE",
"1647 368 LINE",
"1607 315 OFFCURVE",
"1549 258 OFFCURVE",
"1430 258 CURVE SMOOTH",
"1363 258 OFFCURVE",
"1184 282 OFFCURVE",
"1184 502 CURVE SMOOTH",
"1184 642 OFFCURVE",
"1252 736 OFFCURVE",
"1413 736 CURVE SMOOTH",
"1565 736 OFFCURVE",
"1608 670 OFFCURVE",
"1608 600 CURVE",
"1932 427 LINE",
"1932 725 OFFCURVE",
"1817 1024 OFFCURVE",
"1424 1024 CURVE SMOOTH",
"1121 1024 OFFCURVE",
"898 856 OFFCURVE",
"898 485 CURVE SMOOTH",
"898 117 OFFCURVE",
"1206 -22 OFFCURVE",
"1433 -22 CURVE SMOOTH"
);
},
{
closed = 1;
nodes = (
"776 -22 OFFCURVE",
"1003 100 OFFCURVE",
"1043 302 CURVE",
"894 459 LINE",
"896 421 OFFCURVE",
"749 247 OFFCURVE",
"533 247 CURVE SMOOTH",
"466 247 OFFCURVE",
"380 269 OFFCURVE",
"380 336 CURVE SMOOTH",
"380 401 OFFCURVE",
"469 427 OFFCURVE",
"561 427 CURVE SMOOTH",
"1076 427 LINE",
"1076 640 LINE",
"532 640 LINE SMOOTH",
"391 640 OFFCURVE",
"61 579 OFFCURVE",
"61 326 CURVE SMOOTH",
"61 63 OFFCURVE",
"316 -22 OFFCURVE",
"528 -22 CURVE SMOOTH"
);
},
{
closed = 1;
nodes = (
"1123 598 LINE SMOOTH",
"1108 818 OFFCURVE",
"870 1024 OFFCURVE",
"595 1024 CURVE SMOOTH",
"330 1024 OFFCURVE",
"142 943 OFFCURVE",
"58 858 CURVE",
"266 638 LINE",
"334 692 OFFCURVE",
"459 731 OFFCURVE",
"615 731 CURVE SMOOTH",
"804 731 OFFCURVE",
"887 658 OFFCURVE",
"887 573 CURVE SMOOTH",
"887 434 LINE",
"1134 437 LINE"
);
},
{
closed = 1;
nodes = (
"1932 427 LINE",
"1768 633 LINE",
"1126 633 LINE",
"1126 427 LINE"
);
}
);
width = 2201;
}
);
leftKerningGroup = a;
rightKerningGroup = e;
},
{
glyphname = b;
lastChange = "2020-04-14 15:57:36 +0000";
layers = (
{
anchors = (
{
name = bottom;
position = "{580, 0}";
},
{
name = top;
position = "{580, 1000}";
}
);
layerId = "5521DC30-183F-421A-91F3-644B5E24AFE6";
paths = (
{
closed = 1;
nodes = (
"466 0 LINE",
"508 202 LINE",
"508 1500 LINE",
"132 1500 LINE",
"132 0 LINE"
);
},
{
closed = 1;
nodes = (
"1022 -22 OFFCURVE",
"1202 148 OFFCURVE",
"1202 502 CURVE SMOOTH",
"1202 856 OFFCURVE",
"1042 1022 OFFCURVE",
"808 1022 CURVE SMOOTH",
"544 1022 OFFCURVE",
"428 774 OFFCURVE",
"428 630 CURVE",
"496 602 LINE",
"520 682 OFFCURVE",
"600 738 OFFCURVE",
"668 738 CURVE SMOOTH",
"776 738 OFFCURVE",
"828 644 OFFCURVE",
"828 502 CURVE SMOOTH",
"828 358 OFFCURVE",
"774 262 OFFCURVE",
"662 262 CURVE SMOOTH",
"596 262 OFFCURVE",
"498 322 OFFCURVE",
"496 422 CURVE",
"430 396 LINE",
"430 252 OFFCURVE",
"528 -22 OFFCURVE",
"788 -22 CURVE SMOOTH"
);
}
);
width = 1300;
},
{
anchors = (
{
name = bottom;
position = "{676, 0}";
},
{
name = top;
position = "{676, 1000}";
}
);
layerId = "BE68D89F-AB3F-4BDF-B332-ED50D7C47704";
paths = (
{
closed = 1;
nodes = (
"360 0 LINE",
"360 242 LINE",
"360 1500 LINE",
"294 1500 LINE",
"294 0 LINE"
);
},
{
closed = 1;
nodes = (
"890 -22 OFFCURVE",
"1088 136 OFFCURVE",
"1088 502 CURVE SMOOTH",
"1088 868 OFFCURVE",
"910 1022 OFFCURVE",
"718 1022 CURVE SMOOTH",
"478 1022 OFFCURVE",
"322 818 OFFCURVE",
"322 624 CURVE",
"356 624 LINE",
"382 780 OFFCURVE",
"520 956 OFFCURVE",
"704 956 CURVE SMOOTH",
"882 956 OFFCURVE",
"1022 832 OFFCURVE",
"1022 502 CURVE SMOOTH",
"1022 178 OFFCURVE",
"864 44 OFFCURVE",
"686 44 CURVE SMOOTH",
"502 44 OFFCURVE",
"378 234 OFFCURVE",
"356 400 CURVE",
"322 398 LINE",
"322 194 OFFCURVE",
"456 -22 OFFCURVE",
"698 -22 CURVE SMOOTH"
);
}
);
width = 1300;
},
{
anchors = (
{
name = bottom;
position = "{402, 0}";
},
{
name = top;
position = "{402, 1000}";
}
);
layerId = "2E286313-D5BF-4FB4-A4B7-BD9BC13B574E";
paths = (
{
closed = 1;
nodes = (
"252 0 LINE",
"252 162 LINE",
"252 1500 LINE",
"182 1500 LINE",
"182 0 LINE"
);
},
{
closed = 1;
nodes = (
"622 -22 OFFCURVE",
"740 136 OFFCURVE",
"740 502 CURVE SMOOTH",
"740 868 OFFCURVE",
"638 1022 OFFCURVE",
"494 1022 CURVE SMOOTH",
"306 1022 OFFCURVE",
"202 818 OFFCURVE",
"202 624 CURVE",
"248 628 LINE",
"266 774 OFFCURVE",
"344 956 OFFCURVE",
"482 956 CURVE SMOOTH",
"600 956 OFFCURVE",
"670 832 OFFCURVE",
"670 502 CURVE SMOOTH",
"670 178 OFFCURVE",
"586 44 OFFCURVE",
"470 44 CURVE SMOOTH",
"332 44 OFFCURVE",
"264 230 OFFCURVE",
"248 396 CURVE",
"202 392 LINE",
"202 198 OFFCURVE",
"294 -22 OFFCURVE",
"478 -22 CURVE SMOOTH"
);
}
);
width = 900;
},
{
anchors = (
{
name = bottom;
position = "{1050, 0}";
},
{
name = top;
position = "{1050, 1000}";
}
);
layerId = "E338D14E-1DA5-418D-88BC-8956EEA80AB9";
paths = (
{
closed = 1;
nodes = (
"560 0 LINE",
"560 284 LINE",
"560 1500 LINE",
"484 1500 LINE",
"484 0 LINE"
);
},
{
closed = 1;
nodes = (
"1586 -22 OFFCURVE",
"1884 156 OFFCURVE",
"1884 502 CURVE SMOOTH",
"1884 848 OFFCURVE",
"1622 1022 OFFCURVE",
"1226 1022 CURVE SMOOTH",
"820 1022 OFFCURVE",
"512 824 OFFCURVE",
"512 604 CURVE",
"556 604 LINE",
"580 770 OFFCURVE",
"896 956 OFFCURVE",
"1218 956 CURVE SMOOTH",
"1584 956 OFFCURVE",
"1808 786 OFFCURVE",
"1808 502 CURVE SMOOTH",
"1808 218 OFFCURVE",
"1554 44 OFFCURVE",
"1188 44 CURVE SMOOTH",
"866 44 OFFCURVE",
"574 234 OFFCURVE",
"556 420 CURVE",
"512 414 LINE",
"512 190 OFFCURVE",
"794 -22 OFFCURVE",
"1190 -22 CURVE SMOOTH"
);
}
);
width = 2200;
},
{
anchors = (
{
name = bottom;
position = "{403, 0}";
},
{
name = top;
position = "{403, 1000}";
}
);
layerId = "5D8A6BC1-E275-4777-AF98-AB9B3DC0EDC1";
paths = (
{
closed = 1;
nodes = (
"383 0 LINE",
"418 155 LINE",
"418 1500 LINE",
"80 1500 LINE",
"80 0 LINE"
);
},
{
closed = 1;
nodes = (
"752 -22 OFFCURVE",
"860 136 OFFCURVE",
"860 502 CURVE SMOOTH",
"860 867 OFFCURVE",
"767 1022 OFFCURVE",
"601 1022 CURVE SMOOTH",
"412 1022 OFFCURVE",
"368 788 OFFCURVE",
"368 647 CURVE",
"414 623 LINE",
"416 698 OFFCURVE",
"438 753 OFFCURVE",
"472 753 CURVE SMOOTH",
"505 753 OFFCURVE",
"522 676 OFFCURVE",
"522 502 CURVE SMOOTH",
"522 327 OFFCURVE",
"507 247 OFFCURVE",
"473 247 CURVE SMOOTH",
"438 247 OFFCURVE",
"411 294 OFFCURVE",
"414 401 CURVE",
"379 378 LINE",
"379 237 OFFCURVE",
"407 -22 OFFCURVE",
"587 -22 CURVE SMOOTH"
);
}
);
width = 900;
},
{
anchors = (
{
name = bottom;
position = "{1035, 0}";
},
{
name = top;
position = "{1035, 1000}";
}
);
layerId = "16EBFD8D-F4C1-4BAA-8DD7-EBE82D779ED1";
paths = (
{
closed = 1;
nodes = (
"770 0 LINE",
"770 300 LINE",
"770 1500 LINE",
"351 1500 LINE",
"351 0 LINE"
);
},
{
closed = 1;
nodes = (
"1635 -22 OFFCURVE",
"1930 177 OFFCURVE",
"1930 505 CURVE SMOOTH",
"1930 833 OFFCURVE",
"1667 1022 OFFCURVE",
"1304 1022 CURVE SMOOTH",
"892 1022 OFFCURVE",
"597 746 OFFCURVE",
"597 588 CURVE",
"761 557 LINE",
"836 656 OFFCURVE",
"1012 713 OFFCURVE",
"1178 713 CURVE SMOOTH",
"1363 713 OFFCURVE",
"1508 661 OFFCURVE",
"1508 504 CURVE SMOOTH",
"1508 347 OFFCURVE",
"1353 287 OFFCURVE",
"1168 287 CURVE SMOOTH",
"1007 287 OFFCURVE",
"779 381 OFFCURVE",
"761 467 CURVE",
"589 438 LINE",
"589 282 OFFCURVE",
"850 -22 OFFCURVE",
"1273 -22 CURVE SMOOTH"
);
}
);
width = 2200;
}
);
leftKerningGroup = h;
rightKerningGroup = o;
unicode = 0062;
},
{
glyphname = c;
lastChange = "2020-04-14 16:27:19 +0000";
layers = (
{
anchors = (
{
name = bottom;
position = "{696, 0}";
},
{
name = top;
position = "{696, 1000}";
}
);
layerId = "5521DC30-183F-421A-91F3-644B5E24AFE6";
paths = (
{
closed = 1;
nodes = (
"922 -22 OFFCURVE",
"1097 50 OFFCURVE",
"1191 218 CURVE",
"888 386 LINE",
"862 326 OFFCURVE",
"809 246 OFFCURVE",
"711 246 CURVE SMOOTH",
"615 246 OFFCURVE",
"540 316 OFFCURVE",
"540 502 CURVE SMOOTH",
"540 692 OFFCURVE",
"615 756 OFFCURVE",
"711 756 CURVE SMOOTH",
"809 756 OFFCURVE",
"862 660 OFFCURVE",
"888 600 CURVE",
"1192 768 LINE",
"1104 948 OFFCURVE",
"918 1024 OFFCURVE",
"700 1024 CURVE SMOOTH",
"424 1024 OFFCURVE",
"154 878 OFFCURVE",
"154 502 CURVE SMOOTH",
"154 130 OFFCURVE",
"424 -22 OFFCURVE",
"700 -22 CURVE SMOOTH"
);
}
);
width = 1300;
},
{
anchors = (
{
name = bottom;
position = "{680, 0}";
},
{
name = top;
position = "{680, 1000}";
}
);
layerId = "BE68D89F-AB3F-4BDF-B332-ED50D7C47704";
paths = (
{
closed = 1;
nodes = (
"889 -22 OFFCURVE",
"1017 110 OFFCURVE",
"1053 184 CURVE",
"989 218 LINE",
"953 144 OFFCURVE",
"851 44 OFFCURVE",
"695 44 CURVE SMOOTH",
"529 44 OFFCURVE",
"314 188 OFFCURVE",
"314 502 CURVE SMOOTH",
"314 820 OFFCURVE",
"529 958 OFFCURVE",
"695 958 CURVE SMOOTH",
"849 958 OFFCURVE",
"951 864 OFFCURVE",
"991 784 CURVE",
"1053 816 LINE",
"1011 902 OFFCURVE",
"889 1024 OFFCURVE",
"695 1024 CURVE SMOOTH",
"501 1024 OFFCURVE",
"242 878 OFFCURVE",
"242 502 CURVE SMOOTH",
"242 130 OFFCURVE",
"501 -22 OFFCURVE",
"695 -22 CURVE SMOOTH"
);
}
);
width = 1300;
},
{
anchors = (
{
name = bottom;
position = "{466, 0}";
},
{
name = top;
position = "{466, 1000}";
}
);
layerId = "2E286313-D5BF-4FB4-A4B7-BD9BC13B574E";
paths = (
{
closed = 1;
nodes = (
"606 -22 OFFCURVE",
"692 104 OFFCURVE",
"718 178 CURVE",
"654 210 LINE",
"628 136 OFFCURVE",
"578 44 OFFCURVE",
"480 44 CURVE SMOOTH",
"360 44 OFFCURVE",
"248 188 OFFCURVE",
"248 502 CURVE SMOOTH",
"248 820 OFFCURVE",
"360 958 OFFCURVE",
"480 958 CURVE SMOOTH",
"578 958 OFFCURVE",
"618 872 OFFCURVE",
"654 784 CURVE",
"718 816 LINE",
"678 922 OFFCURVE",
"606 1024 OFFCURVE",
"480 1024 CURVE SMOOTH",
"332 1024 OFFCURVE",
"182 888 OFFCURVE",
"182 502 CURVE SMOOTH",
"182 120 OFFCURVE",
"332 -22 OFFCURVE",
"480 -22 CURVE SMOOTH"
);
}
);
width = 900;
},
{
anchors = (
{
name = bottom;
position = "{1156, 0}";
},
{
name = top;
position = "{1156, 1000}";
}
);
layerId = "E338D14E-1DA5-418D-88BC-8956EEA80AB9";
paths = (
{
closed = 1;
nodes = (
"1472 -22 OFFCURVE",
"1720 104 OFFCURVE",
"1782 178 CURVE",
"1722 226 LINE",
"1660 152 OFFCURVE",
"1444 44 OFFCURVE",
"1170 44 CURVE SMOOTH",
"862 44 OFFCURVE",
"522 178 OFFCURVE",
"522 502 CURVE SMOOTH",
"522 830 OFFCURVE",
"862 958 OFFCURVE",
"1170 958 CURVE SMOOTH",
"1444 958 OFFCURVE",
"1638 878 OFFCURVE",
"1730 770 CURVE",
"1782 816 LINE",
"1688 922 OFFCURVE",
"1472 1024 OFFCURVE",
"1170 1024 CURVE SMOOTH",
"864 1024 OFFCURVE",
"448 908 OFFCURVE",
"448 502 CURVE SMOOTH",
"448 100 OFFCURVE",
"864 -22 OFFCURVE",
"1170 -22 CURVE SMOOTH"
);
}
);
width = 2200;
},
{
anchors = (
{
name = bottom;
position = "{473, 0}";
},
{
name = top;
position = "{473, 1000}";
}
);
layerId = "5D8A6BC1-E275-4777-AF98-AB9B3DC0EDC1";
paths = (
{
closed = 1;
nodes = (
"654 -22 OFFCURVE",
"764 90 OFFCURVE",
"822 249 CURVE",
"526 356 LINE",
"520 321 OFFCURVE",
"492 242 OFFCURVE",
"464 242 CURVE SMOOTH",
"429 242 OFFCURVE",
"404 302 OFFCURVE",
"404 502 CURVE SMOOTH",
"404 705 OFFCURVE",
"427 759 OFFCURVE",
"462 759 CURVE SMOOTH",
"494 759 OFFCURVE",
"519 654 OFFCURVE",
"526 619 CURVE",
"822 738 LINE",
"774 908 OFFCURVE",
"655 1024 OFFCURVE",
"464 1024 CURVE SMOOTH",
"247 1024 OFFCURVE",
"61 888 OFFCURVE",
"61 502 CURVE SMOOTH",
"61 120 OFFCURVE",
"247 -22 OFFCURVE",
"464 -22 CURVE SMOOTH"
);
}
);
width = 899;
},
{
anchors = (
{
name = bottom;
position = "{1131, 0}";
},
{
name = top;
position = "{1148, 1000}";
}
);
layerId = "16EBFD8D-F4C1-4BAA-8DD7-EBE82D779ED1";
paths = (
{
closed = 1;
nodes = (
"1523 -22 OFFCURVE",
"1836 94 OFFCURVE",
"1896 134 CURVE",
"1617 408 LINE",
"1544 337 OFFCURVE",
"1388 273 OFFCURVE",
"1158 273 CURVE SMOOTH",
"925 273 OFFCURVE",
"726 332 OFFCURVE",
"726 502 CURVE SMOOTH",
"726 676 OFFCURVE",
"930 733 OFFCURVE",
"1162 733 CURVE SMOOTH",
"1389 733 OFFCURVE",
"1549 673 OFFCURVE",
"1616 608 CURVE",
"1896 852 LINE",
"1836 897 OFFCURVE",
"1520 1024 OFFCURVE",
"1164 1024 CURVE SMOOTH",
"751 1024 OFFCURVE",
"297 876 OFFCURVE",
"297 502 CURVE SMOOTH",
"297 128 OFFCURVE",
"750 -22 OFFCURVE",
"1164 -22 CURVE SMOOTH"
);
}
);
width = 2200;
}
);
leftKerningGroup = o;
rightKerningGroup = c;
unicode = 0063;
},
{
glyphname = d;
lastChange = "2020-04-14 00:23:53 +0000";
layers = (
{
anchors = (
{
name = bottom;
position = "{604, 0}";
},
{
name = center;
position = "{944, 1298}";
},
{
name = top;
position = "{604, 1000}";
},
{
name = topright;
position = "{1264, 1400}";
}
);
components = (
{
alignment = -1;
name = b;
transform = "{-1, 0, 0, 1, 1282, 0}";
}
);
layerId = "5521DC30-183F-421A-91F3-644B5E24AFE6";
paths = (
{
closed = 1;
nodes = (
"1280 0 LINE",
"1280 269 LINE",
"1023 269 LINE",
"1023 0 LINE"
);
}
);
width = 1300;
},
{
anchors = (
{
name = bottom;
position = "{633, 0}";
},
{
name = center;
position = "{920, 1298}";
},
{
name = top;
position = "{560, 1000}";
},
{
name = topright;
position = "{1220, 1400}";
}
);
components = (
{
alignment = -1;
name = b;
transform = "{-1, 0, 0, 1, 1250, 0}";
}
);
layerId = "BE68D89F-AB3F-4BDF-B332-ED50D7C47704";
paths = (
{
closed = 1;
nodes = (
"1135 0 LINE",
"1135 65 LINE",
"907 65 LINE",
"907 0 LINE"
);
}
);
width = 1300;
},
{
anchors = (
{
name = bottom;
position = "{423, 0}";
},
{
name = center;
position = "{658, 1298}";
},
{
name = top;
position = "{344, 1000}";
},
{
name = topright;
position = "{826, 1400}";
}
);
components = (
{
alignment = -1;
name = b;
transform = "{-1, 0, 0, 1, 862, 0}";
}
);
layerId = "2E286313-D5BF-4FB4-A4B7-BD9BC13B574E";
paths = (
{
closed = 1;
nodes = (
"795 0 LINE",
"795 65 LINE",
"682 65 LINE",
"682 0 LINE"
);
}
);
width = 900;
},
{
anchors = (
{
name = bottom;
position = "{1079, 0}";
},
{
name = center;
position = "{1635, 1298}";
},
{
name = top;
position = "{960, 956}";
},
{
name = topright;
position = "{1900, 1400}";
}
);
components = (
{
alignment = -1;
name = b;
transform = "{-1, 0, 0, 1, 2158, 0}";
}
);
layerId = "E338D14E-1DA5-418D-88BC-8956EEA80AB9";
paths = (
{
closed = 1;
nodes = (
"1958 0 LINE",
"1958 65 LINE",
"1626 65 LINE",
"1626 0 LINE"
);
}
);
width = 2200;
},
{
anchors = (
{
name = bottom;
position = "{426, -12}";
},
{
name = center;
position = "{622, 1298}";
},
{
name = top;
position = "{376, 1012}";
},
{
name = topright;
position = "{880, 1400}";
}
);
components = (
{
alignment = -1;
name = b;
transform = "{-1, 0, 0, 1, 874, 0}";
}
);
layerId = "5D8A6BC1-E275-4777-AF98-AB9B3DC0EDC1";
paths = (
{
closed = 1;
nodes = (
"895 0 LINE",
"895 269 LINE",
"782 269 LINE",
"782 0 LINE"
);
}
);
width = 900;
},
{
anchors = (
{
name = bottom;
position = "{1114, 0}";
},
{
name = center;
position = "{1512, 1298}";
},
{
name = top;
position = "{1060, 978}";
},
{
name = topright;
position = "{2036, 1400}";
}
);
components = (
{
alignment = -1;
name = b;
transform = "{-1, 0, 0, 1, 2080, 0}";
}
);
layerId = "16EBFD8D-F4C1-4BAA-8DD7-EBE82D779ED1";
paths = (
{
closed = 1;
nodes = (
"1975 0 LINE",
"1975 290 LINE",
"1535 290 LINE",
"1535 0 LINE"
);
}
);
width = 2200;
}
);
leftKerningGroup = o;
rightKerningGroup = l;
unicode = 0064;
},
{
glyphname = eth;
lastChange = "2020-04-13 15:57:32 +0000";
layers = (
{
layerId = "5521DC30-183F-421A-91F3-644B5E24AFE6";
paths = (
{
closed = 1;
nodes = (
"936 -20 OFFCURVE",
"1234 74 OFFCURVE",
"1234 658 CURVE SMOOTH",
"1234 1236 OFFCURVE",
"732 1544 OFFCURVE",
"394 1622 CURVE",
"272 1408 LINE",
"656 1326 OFFCURVE",
"832 924 OFFCURVE",
"832 588 CURVE SMOOTH",
"832 382 OFFCURVE",
"776 264 OFFCURVE",
"648 264 CURVE SMOOTH",
"542 264 OFFCURVE",
"472 384 OFFCURVE",
"472 504 CURVE SMOOTH",
"472 628 OFFCURVE",
"540 742 OFFCURVE",
"656 742 CURVE SMOOTH",
"766 742 OFFCURVE",
"832 639 OFFCURVE",
"832 588 CURVE",
"950 752 LINE",
"908 950 OFFCURVE",
"754 1026 OFFCURVE",
"592 1026 CURVE SMOOTH",
"320 1026 OFFCURVE",
"84 888 OFFCURVE",
"84 504 CURVE SMOOTH",
"84 124 OFFCURVE",
"356 -20 OFFCURVE",
"634 -20 CURVE SMOOTH"
);
},
{
closed = 1;
nodes = (
"936 1474 LINE",
"802 1628 LINE",
"322 1252 LINE",
"484 1098 LINE"
);
}
);
width = 1300;
},
{
layerId = "BE68D89F-AB3F-4BDF-B332-ED50D7C47704";
paths = (
{
closed = 1;
nodes = (
"868 -22 OFFCURVE",
"1044 150 OFFCURVE",
"1044 656 CURVE SMOOTH",
"1044 1132 OFFCURVE",
"752 1520 OFFCURVE",
"414 1590 CURVE",
"378 1524 LINE",
"636 1482 OFFCURVE",
"974 1172 OFFCURVE",
"974 656 CURVE SMOOTH",
"974 178 OFFCURVE",
"820 44 OFFCURVE",
"634 44 CURVE SMOOTH",
"438 44 OFFCURVE",
"286 228 OFFCURVE",
"286 502 CURVE SMOOTH",
"286 780 OFFCURVE",
"428 958 OFFCURVE",
"624 958 CURVE SMOOTH",
"812 958 OFFCURVE",
"974 793 OFFCURVE",
"974 656 CURVE",
"1020 718 LINE",
"1014 844 OFFCURVE",
"884 1024 OFFCURVE",
"630 1024 CURVE SMOOTH",
"350 1024 OFFCURVE",
"220 808 OFFCURVE",
"220 502 CURVE SMOOTH",
"220 200 OFFCURVE",
"374 -22 OFFCURVE",
"634 -22 CURVE SMOOTH"
);
},
{
closed = 1;
nodes = (
"804 1502 LINE",
"760 1568 LINE",
"470 1384 LINE",
"524 1328 LINE"
);
}
);
width = 1300;
},
{
layerId = "2E286313-D5BF-4FB4-A4B7-BD9BC13B574E";
paths = (
{
closed = 1;
nodes = (
"618 -22 OFFCURVE",
"750 110 OFFCURVE",
"750 616 CURVE SMOOTH",
"750 1112 OFFCURVE",
"512 1520 OFFCURVE",
"248 1570 CURVE",
"216 1504 LINE",
"414 1482 OFFCURVE",
"678 1132 OFFCURVE",
"678 616 CURVE SMOOTH",
"678 138 OFFCURVE",
"582 44 OFFCURVE",
"442 44 CURVE SMOOTH",
"296 44 OFFCURVE",
"222 228 OFFCURVE",
"222 502 CURVE SMOOTH",
"222 780 OFFCURVE",
"288 958 OFFCURVE",
"434 958 CURVE SMOOTH",
"576 958 OFFCURVE",
"678 765 OFFCURVE",
"678 616 CURVE",
"722 678 LINE",
"720 802 OFFCURVE",
"630 1024 OFFCURVE",
"440 1024 CURVE SMOOTH",
"230 1024 OFFCURVE",
"152 808 OFFCURVE",
"152 502 CURVE SMOOTH",
"152 200 OFFCURVE",
"248 -22 OFFCURVE",
"442 -22 CURVE SMOOTH"
);
},
{
closed = 1;
nodes = (
"576 1488 LINE",
"526 1544 LINE",
"290 1364 LINE",
"342 1308 LINE"
);
}
);
width = 900;
},
{
layerId = "E338D14E-1DA5-418D-88BC-8956EEA80AB9";
paths = (
{
closed = 1;
nodes = (
"1452 -22 OFFCURVE",
"1740 156 OFFCURVE",
"1740 602 CURVE SMOOTH",
"1740 1102 OFFCURVE",
"1248 1530 OFFCURVE",
"658 1590 CURVE",
"594 1524 LINE",
"1066 1502 OFFCURVE",
"1658 1112 OFFCURVE",
"1658 596 CURVE SMOOTH",
"1658 178 OFFCURVE",
"1368 44 OFFCURVE",
"1042 44 CURVE SMOOTH",
"700 44 OFFCURVE",
"414 228 OFFCURVE",
"414 502 CURVE SMOOTH",
"414 800 OFFCURVE",
"700 958 OFFCURVE",
"1024 958 CURVE SMOOTH",
"1373 958 OFFCURVE",
"1644 760 OFFCURVE",
"1662 632 CURVE",
"1720 658 LINE",
"1692 772 OFFCURVE",
"1480 1024 OFFCURVE",
"1036 1024 CURVE SMOOTH",
"608 1024 OFFCURVE",
"338 828 OFFCURVE",
"338 502 CURVE SMOOTH",
"338 200 OFFCURVE",
"608 -22 OFFCURVE",
"1042 -22 CURVE SMOOTH"
);
},
{
closed = 1;
nodes = (
"1268 1530 LINE",
"1224 1596 LINE",
"776 1314 LINE",
"830 1258 LINE"
);
}
);
width = 2200;
},
{
layerId = "5D8A6BC1-E275-4777-AF98-AB9B3DC0EDC1";
paths = (
{
closed = 1;
nodes = (
"651 -22 OFFCURVE",
"869 60 OFFCURVE",
"869 650 CURVE SMOOTH",
"869 1220 OFFCURVE",
"476 1536 OFFCURVE",
"237 1607 CURVE",
"134 1408 LINE",
"426 1333 OFFCURVE",
"514 977 OFFCURVE",
"514 632 CURVE SMOOTH",
"514 278 OFFCURVE",
"501 237 OFFCURVE",
"450 237 CURVE SMOOTH",
"394 237 OFFCURVE",
"372 318 OFFCURVE",
"372 502 CURVE SMOOTH",
"372 687 OFFCURVE",
"395 765 OFFCURVE",
"449 765 CURVE SMOOTH",
"498 765 OFFCURVE",
"514 702 OFFCURVE",
"514 632 CURVE",
"647 708 LINE",
"628 915 OFFCURVE",
"526 1024 OFFCURVE",
"386 1024 CURVE SMOOTH",
"200 1024 OFFCURVE",
"22 877 OFFCURVE",
"22 502 CURVE SMOOTH",
"22 132 OFFCURVE",
"226 -22 OFFCURVE",
"422 -22 CURVE SMOOTH"
);
},
{
closed = 1;
nodes = (
"677 1461 LINE",
"549 1601 LINE",
"156 1272 LINE",
"306 1131 LINE"
);
}
);
width = 900;
},
{
layerId = "16EBFD8D-F4C1-4BAA-8DD7-EBE82D779ED1";
paths = (
{
closed = 1;
nodes = (
"1588 -22 OFFCURVE",
"1988 103 OFFCURVE",
"1988 667 CURVE SMOOTH",
"1988 1248 OFFCURVE",
"1308 1552 OFFCURVE",
"770 1641 CURVE",
"608 1393 LINE",
"1167 1301 OFFCURVE",
"1545 949 OFFCURVE",
"1545 582 CURVE SMOOTH",
"1545 386 OFFCURVE",
"1373 287 OFFCURVE",
"1134 287 CURVE SMOOTH",
"916 287 OFFCURVE",
"711 325 OFFCURVE",
"711 502 CURVE SMOOTH",
"711 682 OFFCURVE",
"903 715 OFFCURVE",
"1127 715 CURVE SMOOTH",
"1352 715 OFFCURVE",
"1547 671 OFFCURVE",
"1554 588 CURVE",
"1696 725 LINE",
"1644 928 OFFCURVE",
"1379 1024 OFFCURVE",
"1068 1024 CURVE SMOOTH",
"675 1024 OFFCURVE",
"283 892 OFFCURVE",
"283 502 CURVE SMOOTH",
"283 113 OFFCURVE",
"676 -22 OFFCURVE",
"1118 -22 CURVE SMOOTH"
);
},
{
closed = 1;
nodes = (
"1500 1497 LINE",
"1365 1669 LINE",
"730 1221 LINE",
"904 1051 LINE"
);
}
);
width = 2200;
}
);
leftKerningGroup = eth;
rightKerningGroup = eth;
unicode = 00F0;
},
{
glyphname = e;
lastChange = "2020-04-14 16:28:45 +0000";
layers = (
{
anchors = (
{
name = bottom;
position = "{645, 0}";
},
{
name = ogonek;
position = "{692, 20}";
},
{
name = top;
position = "{672, 1000}";
}
);
layerId = "5521DC30-183F-421A-91F3-644B5E24AFE6";
paths = (
{
closed = 1;
nodes = (
"896 -22 OFFCURVE",
"1078 64 OFFCURVE",
"1136 180 CURVE",
"844 330 LINE",
"822 292 OFFCURVE",
"758 244 OFFCURVE",
"668 246 CURVE SMOOTH",
"542 249 OFFCURVE",
"488 340 OFFCURVE",
"488 500 CURVE SMOOTH",
"488 666 OFFCURVE",
"551 758 OFFCURVE",
"666 758 CURVE SMOOTH",
"769 758 OFFCURVE",
"826 686 OFFCURVE",
"826 618 CURVE SMOOTH",
"826 617 OFFCURVE",
"826 615 OFFCURVE",
"826 614 CURVE",
"412 614 LINE",
"412 382 LINE",
"1192 382 LINE",
"1197 423 OFFCURVE",
"1200 481 OFFCURVE",
"1200 517 CURVE SMOOTH",
"1200 862 OFFCURVE",
"958 1024 OFFCURVE",
"657 1024 CURVE SMOOTH",
"353 1024 OFFCURVE",
"110 834 OFFCURVE",
"110 502 CURVE SMOOTH",
"110 168 OFFCURVE",
"362 -22 OFFCURVE",
"654 -22 CURVE SMOOTH"
);
}
);
width = 1300;
},
{
anchors = (
{
name = bottom;
position = "{650, 0}";
},
{
name = ogonek;
position = "{690, 0}";
},
{
name = top;
position = "{670, 1000}";
}
);
layerId = "BE68D89F-AB3F-4BDF-B332-ED50D7C47704";
paths = (
{
closed = 1;
nodes = (
"892 -22 OFFCURVE",
"1014 112 OFFCURVE",
"1060 184 CURVE",
"990 222 LINE",
"952 154 OFFCURVE",
"860 44 OFFCURVE",
"654 44 CURVE SMOOTH",
"441 44 OFFCURVE",
"272 212 OFFCURVE",
"272 502 CURVE SMOOTH",
"272 816 OFFCURVE",
"462 958 OFFCURVE",
"652 958 CURVE SMOOTH",
"866 958 OFFCURVE",
"1019 772 OFFCURVE",
"1019 557 CURVE SMOOTH",
"1019 545 OFFCURVE",
"1019 544 OFFCURVE",
"1019 532 CURVE",
"238 532 LINE",
"238 468 LINE",
"1093 468 LINE",
"1095 485 OFFCURVE",
"1096 515 OFFCURVE",
"1096 533 CURVE SMOOTH",
"1096 809 OFFCURVE",
"906 1024 OFFCURVE",
"654 1024 CURVE SMOOTH",
"434 1024 OFFCURVE",
"200 868 OFFCURVE",
"200 502 CURVE SMOOTH",
"200 140 OFFCURVE",
"429 -22 OFFCURVE",
"654 -22 CURVE SMOOTH"
);
}
);
width = 1300;
},
{
anchors = (
{
name = bottom;
position = "{460, 0}";
},
{
name = ogonek;
position = "{454, 0}";
},
{
name = top;
position = "{440, 1000}";
}
);
layerId = "2E286313-D5BF-4FB4-A4B7-BD9BC13B574E";
paths = (
{
closed = 1;
nodes = (
"612 -22 OFFCURVE",
"688 142 OFFCURVE",
"708 194 CURVE",
"646 228 LINE",
"632 180 OFFCURVE",
"588 44 OFFCURVE",
"448 44 CURVE SMOOTH",
"310 44 OFFCURVE",
"226 192 OFFCURVE",
"226 502 CURVE SMOOTH",
"226 816 OFFCURVE",
"310 958 OFFCURVE",
"450 958 CURVE SMOOTH",
"607 958 OFFCURVE",
"655 757 OFFCURVE",
"655 558 CURVE SMOOTH",
"655 552 OFFCURVE",
"655 545 OFFCURVE",
"655 542 CURVE",
"200 542 LINE",
"200 478 LINE",
"720 478 LINE",
"721 502 OFFCURVE",
"722 531 OFFCURVE",
"722 557 CURVE SMOOTH",
"722 820 OFFCURVE",
"628 1024 OFFCURVE",
"454 1024 CURVE SMOOTH",
"278 1024 OFFCURVE",
"158 868 OFFCURVE",
"158 502 CURVE SMOOTH",
"158 140 OFFCURVE",
"280 -22 OFFCURVE",
"448 -22 CURVE SMOOTH"
);
}
);
width = 900;
},
{
anchors = (
{
name = bottom;
position = "{1126, 0}";
},
{
name = ogonek;
position = "{1160, 0}";
},
{
name = top;
position = "{1126, 1000}";
}
);
layerId = "E338D14E-1DA5-418D-88BC-8956EEA80AB9";
paths = (
{
closed = 1;
nodes = (
"1480 -22 OFFCURVE",
"1712 110 OFFCURVE",
"1792 184 CURVE",
"1730 238 LINE",
"1664 168 OFFCURVE",
"1464 44 OFFCURVE",
"1118 44 CURVE SMOOTH",
"704 44 OFFCURVE",
"456 232 OFFCURVE",
"456 502 CURVE SMOOTH",
"456 806 OFFCURVE",
"756 958 OFFCURVE",
"1122 958 CURVE SMOOTH",
"1477 958 OFFCURVE",
"1756 767 OFFCURVE",
"1756 540 CURVE SMOOTH",
"1756 537 OFFCURVE",
"1756 535 OFFCURVE",
"1756 532 CURVE",
"444 532 LINE",
"444 468 LINE",
"1838 468 LINE",
"1839 478 OFFCURVE",
"1839 499 OFFCURVE",
"1839 509 CURVE SMOOTH",
"1839 808 OFFCURVE",
"1517 1024 OFFCURVE",
"1122 1024 CURVE SMOOTH",
"724 1024 OFFCURVE",
"380 844 OFFCURVE",
"380 510 CURVE SMOOTH",
"380 168 OFFCURVE",
"702 -22 OFFCURVE",
"1118 -22 CURVE SMOOTH"
);
}
);
width = 2200;
},
{
anchors = (
{
name = bottom;
position = "{460, 0}";
},
{
name = ogonek;
position = "{468, 18}";
},
{
name = top;
position = "{456, 1000}";
}
);
layerId = "5D8A6BC1-E275-4777-AF98-AB9B3DC0EDC1";
paths = (
{
closed = 1;
nodes = (
"666 -22 OFFCURVE",
"766 96 OFFCURVE",
"801 190 CURVE",
"544 331 LINE",
"535 295 OFFCURVE",
"508 233 OFFCURVE",
"466 233 CURVE SMOOTH",
"415 233 OFFCURVE",
"390 316 OFFCURVE",
"390 497 CURVE SMOOTH",
"390 687 OFFCURVE",
"408 771 OFFCURVE",
"465 771 CURVE SMOOTH",
"518 771 OFFCURVE",
"532 679 OFFCURVE",
"532 608 CURVE SMOOTH",
"532 603 OFFCURVE",
"532 600 OFFCURVE",
"532 597 CURVE",
"321 597 LINE",
"321 386 LINE",
"823 386 LINE",
"827 404 OFFCURVE",
"833 463 OFFCURVE",
"833 561 CURVE SMOOTH",
"833 845 OFFCURVE",
"674 1024 OFFCURVE",
"465 1024 CURVE SMOOTH",
"208 1024 OFFCURVE",
"61 824 OFFCURVE",
"61 500 CURVE SMOOTH",
"61 177 OFFCURVE",
"226 -22 OFFCURVE",
"461 -22 CURVE SMOOTH"
);
}
);
width = 900;
},
{
anchors = (
{
name = bottom;
position = "{1082, -33}";
},
{
name = ogonek;
position = "{1178, 22}";
},
{
name = top;
position = "{1142, 1000}";
}
);
layerId = "16EBFD8D-F4C1-4BAA-8DD7-EBE82D779ED1";
paths = (
{
closed = 1;
nodes = (
"1405 -22 OFFCURVE",
"1738 59 OFFCURVE",
"1826 113 CURVE",
"1474 331 LINE",
"1426 299 OFFCURVE",
"1297 268 OFFCURVE",
"1095 268 CURVE SMOOTH",
"800 268 OFFCURVE",
"663 361 OFFCURVE",
"663 495 CURVE SMOOTH",
"663 656 OFFCURVE",
"853 736 OFFCURVE",
"1099 736 CURVE SMOOTH",
"1348 736 OFFCURVE",
"1500 675 OFFCURVE",
"1500 627 CURVE SMOOTH",
"1500 626 OFFCURVE",
"1500 626 OFFCURVE",
"1500 625 CURVE",
"620 625 LINE",
"620 380 LINE",
"1912 380 LINE",
"1914 396 OFFCURVE",
"1915 431 OFFCURVE",
"1915 451 CURVE SMOOTH",
"1915 876 OFFCURVE",
"1491 1024 OFFCURVE",
"1084 1024 CURVE SMOOTH",
"690 1024 OFFCURVE",
"250 857 OFFCURVE",
"250 496 CURVE SMOOTH",
"250 127 OFFCURVE",
"691 -22 OFFCURVE",
"1074 -22 CURVE SMOOTH"
);
}
);
width = 2200;
}
);
leftKerningGroup = o;
rightKerningGroup = o;
unicode = 0065;
},
{
glyphname = f;
lastChange = "2020-04-14 16:22:39 +0000";
layers = (
{
anchors = (
{
name = bottom;
position = "{650, 0}";
},
{
name = top;
position = "{650, 1500}";
}
);
layerId = "5521DC30-183F-421A-91F3-644B5E24AFE6";
paths = (
{
closed = 1;
nodes = (
"770 0 LINE",
"770 1064 LINE SMOOTH",
"770 1206 OFFCURVE",
"850 1230 OFFCURVE",
"958 1230 CURVE SMOOTH",
"1031 1230 OFFCURVE",
"1095 1210 OFFCURVE",
"1128 1190 CURVE",
"1128 1463 LINE",
"1093 1483 OFFCURVE",
"1024 1500 OFFCURVE",
"932 1500 CURVE SMOOTH",
"648 1500 OFFCURVE",
"396 1382 OFFCURVE",
"396 1074 CURVE SMOOTH",
"396 0 LINE"
);
},
{
closed = 1;
nodes = (
"1108 730 LINE",
"1108 1000 LINE",
"112 1000 LINE",
"112 730 LINE"
);
}
);
width = 1300;
},
{
anchors = (
{
name = bottom;
position = "{650, 0}";
},
{
name = top;
position = "{650, 1500}";
}
);
layerId = "BE68D89F-AB3F-4BDF-B332-ED50D7C47704";
paths = (
{
closed = 1;
nodes = (
"596 0 LINE",
"596 1132 LINE SMOOTH",
"596 1394 OFFCURVE",
"740 1436 OFFCURVE",
"916 1436 CURVE SMOOTH",
"1010 1436 OFFCURVE",
"1084 1414 OFFCURVE",
"1118 1394 CURVE",
"1118 1460 LINE",
"1083 1480 OFFCURVE",
"1007 1500 OFFCURVE",
"912 1500 CURVE SMOOTH",
"680 1500 OFFCURVE",
"530 1388 OFFCURVE",
"530 1152 CURVE SMOOTH",
"530 0 LINE"
);
},
{
closed = 1;
nodes = (
"1078 936 LINE",
"1078 1000 LINE",
"194 1000 LINE",
"194 936 LINE"
);
}
);
width = 1300;
},
{
anchors = (
{
name = bottom;
position = "{450, 0}";
},
{
name = top;
position = "{450, 1500}";
}
);
layerId = "2E286313-D5BF-4FB4-A4B7-BD9BC13B574E";
paths = (
{
closed = 1;
nodes = (
"458 0 LINE",
"458 1122 LINE SMOOTH",
"458 1354 OFFCURVE",
"525 1434 OFFCURVE",
"677 1434 CURVE SMOOTH",
"709 1434 OFFCURVE",
"752 1428 OFFCURVE",
"761 1423 CURVE",
"761 1489 LINE",
"751 1494 OFFCURVE",
"709 1500 OFFCURVE",
"676 1500 CURVE SMOOTH",
"492 1500 OFFCURVE",
"388 1400 OFFCURVE",
"388 1132 CURVE SMOOTH",
"388 0 LINE"
);
},
{
closed = 1;
nodes = (
"730 936 LINE",
"730 1000 LINE",
"212 1000 LINE",
"212 936 LINE"
);
}
);
width = 900;
},
{
anchors = (
{
name = bottom;
position = "{1100, 0}";
},
{
name = top;
position = "{1100, 1500}";
}
);
layerId = "E338D14E-1DA5-418D-88BC-8956EEA80AB9";
paths = (
{
closed = 1;
nodes = (
"962 0 LINE",
"962 1013 LINE SMOOTH",
"962 1365 OFFCURVE",
"1335 1434 OFFCURVE",
"1582 1434 CURVE SMOOTH",
"1790 1434 OFFCURVE",
"1888 1414 OFFCURVE",
"1976 1384 CURVE",
"1976 1450 LINE",
"1886 1480 OFFCURVE",
"1796 1500 OFFCURVE",
"1576 1500 CURVE SMOOTH",
"1261 1500 OFFCURVE",
"886 1389 OFFCURVE",
"886 1013 CURVE SMOOTH",
"886 0 LINE"
);
},
{
closed = 1;
nodes = (
"1936 936 LINE",
"1936 1000 LINE",
"294 1000 LINE",
"294 936 LINE"
);
}
);
width = 2200;
},
{
anchors = (
{
name = bottom;
position = "{433, 0}";
},
{
name = top;
position = "{433, 1500}";
}
);
layerId = "5D8A6BC1-E275-4777-AF98-AB9B3DC0EDC1";
paths = (
{
closed = 1;
nodes = (
"600 0 LINE",
"600 1065 LINE SMOOTH",
"600 1187 OFFCURVE",
"650 1233 OFFCURVE",
"735 1233 CURVE SMOOTH",
"777 1233 OFFCURVE",
"798 1227 OFFCURVE",
"812 1220 CURVE",
"812 1487 LINE",
"798 1492 OFFCURVE",
"756 1500 OFFCURVE",
"703 1500 CURVE SMOOTH",
"482 1500 OFFCURVE",
"261 1389 OFFCURVE",
"261 1114 CURVE SMOOTH",
"261 0 LINE"
);
},
{
closed = 1;
nodes = (
"778 733 LINE",
"778 1000 LINE",
"97 1000 LINE",
"97 733 LINE"
);
}
);
width = 900;
},
{
anchors = (
{
name = bottom;
position = "{1100, 0}";
},
{
name = top;
position = "{1100, 1500}";
}
);
layerId = "16EBFD8D-F4C1-4BAA-8DD7-EBE82D779ED1";
paths = (
{
closed = 1;
nodes = (
"1219 0 LINE",
"1219 1007 LINE SMOOTH",
"1219 1175 OFFCURVE",
"1370 1207 OFFCURVE",
"1556 1207 CURVE SMOOTH",
"1725 1207 OFFCURVE",
"1865 1177 OFFCURVE",
"1924 1147 CURVE",
"1924 1440 LINE",
"1853 1470 OFFCURVE",
"1731 1500 OFFCURVE",
"1550 1500 CURVE SMOOTH",
"1141 1500 OFFCURVE",
"804 1368 OFFCURVE",
"804 996 CURVE SMOOTH",
"804 0 LINE"
);
},
{
closed = 1;
nodes = (
"1834 707 LINE",
"1834 1000 LINE",
"287 1000 LINE",
"287 707 LINE"
);
}
);
width = 2200;
}
);
leftKerningGroup = f;
rightKerningGroup = f;
unicode = 0066;
},
